<svg xmlns="http://www.w3.org/2000/svg" xmlns:xlink="http://www.w3.org/1999/xlink" preserveAspectRatio="xMidYMid" width="41.16" height="41.38" viewBox="0 0 41.16 41.38">
  <defs>
    <style>
      .cls-1 {
        fill: #fff;
        fill-rule: evenodd;
      }
    </style>
  </defs>
  <path d="M37.304,24.553 L37.304,37.483 C37.304,39.625 35.577,41.362 33.446,41.362 L7.720,41.362 C5.589,41.362 3.862,39.625 3.862,37.483 L3.862,24.553 C1.731,24.553 0.003,22.817 0.003,20.675 L0.003,15.503 C0.003,13.360 1.731,11.624 3.862,11.624 L17.724,11.624 C17.766,11.578 17.796,11.525 17.841,11.480 L28.157,1.110 C29.653,-0.394 32.079,-0.394 33.575,1.110 C35.071,2.614 35.071,5.052 33.575,6.556 L28.534,11.624 L37.304,11.624 C39.436,11.624 41.163,13.360 41.163,15.503 L41.163,20.675 C41.163,22.817 39.436,24.553 37.304,24.553 ZM6.434,37.483 C6.434,38.197 7.010,38.776 7.720,38.776 L11.579,38.776 L11.579,31.018 C11.579,30.304 12.155,29.725 12.865,29.725 C13.576,29.725 14.152,30.304 14.152,31.018 L14.152,38.776 L19.297,38.776 L19.297,31.018 C19.297,30.304 19.872,29.725 20.583,29.725 C21.293,29.725 21.869,30.304 21.869,31.018 L21.869,38.776 L27.014,38.776 L27.014,31.018 C27.014,30.304 27.590,29.725 28.301,29.725 C29.011,29.725 29.587,30.304 29.587,31.018 L29.587,38.776 L33.446,38.776 C34.156,38.776 34.732,38.197 34.732,37.483 L34.732,24.553 L6.434,24.553 L6.434,37.483 ZM31.679,5.384 C32.323,4.736 32.323,3.687 31.679,3.039 C31.035,2.392 29.990,2.392 29.346,3.039 L19.760,12.675 C19.116,13.323 19.116,14.373 19.760,15.020 C20.404,15.667 21.449,15.667 22.092,15.020 L31.679,5.384 ZM38.591,15.503 C38.591,14.789 38.015,14.210 37.304,14.210 L25.961,14.210 L23.259,16.926 C21.763,18.430 19.337,18.430 17.841,16.926 C17.095,16.176 16.721,15.193 16.720,14.210 L3.862,14.210 C3.151,14.210 2.576,14.789 2.576,15.503 L2.576,20.675 C2.576,21.389 3.151,21.967 3.862,21.967 L37.304,21.967 C38.015,21.967 38.591,21.389 38.591,20.675 L38.591,15.503 Z" class="cls-1"/>
</svg>
