<svg xmlns="http://www.w3.org/2000/svg" xmlns:xlink="http://www.w3.org/1999/xlink" preserveAspectRatio="xMidYMid" width="43.78" height="43.97" viewBox="0 0 43.78 43.97">
  <defs>
    <style>
      .cls-1 {
        fill: #fff;
        fill-rule: evenodd;
      }
    </style>
  </defs>
  <path d="M21.886,43.970 C9.795,43.970 -0.007,34.127 -0.007,21.984 C-0.007,9.841 9.795,-0.002 21.886,-0.002 C33.978,-0.002 43.780,9.841 43.780,21.984 C43.780,34.127 33.978,43.970 21.886,43.970 ZM21.886,2.746 C11.306,2.746 2.729,11.359 2.729,21.984 C2.729,32.609 11.306,41.222 21.886,41.222 C32.467,41.222 41.043,32.609 41.043,21.984 C41.043,11.359 32.467,2.746 21.886,2.746 ZM30.096,23.358 L23.255,23.358 L23.255,30.229 C23.255,30.988 22.642,31.603 21.886,31.603 C21.131,31.603 20.518,30.988 20.518,30.229 L20.518,23.358 L13.676,23.358 C12.920,23.358 12.308,22.743 12.308,21.984 C12.308,21.225 12.920,20.610 13.676,20.610 L20.518,20.610 L20.518,13.739 C20.518,12.980 21.131,12.365 21.886,12.365 C22.642,12.365 23.255,12.980 23.255,13.739 L23.255,20.610 L30.096,20.610 C30.852,20.610 31.465,21.225 31.465,21.984 C31.465,22.743 30.852,23.358 30.096,23.358 Z" class="cls-1"/>
</svg>
