<svg xmlns="http://www.w3.org/2000/svg" xmlns:xlink="http://www.w3.org/1999/xlink" preserveAspectRatio="xMidYMid" width="37.69" height="37.81" viewBox="0 0 37.69 37.81">
  <defs>
    <style>
      .cls-1 {
        fill: #fff;
        fill-rule: evenodd;
      }
    </style>
  </defs>
  <path d="M37.251,34.848 C35.502,37.306 26.281,37.822 18.855,37.822 C11.428,37.822 2.208,37.306 0.459,34.847 C-0.010,34.187 -0.114,33.384 0.176,32.642 C1.880,28.285 4.764,27.265 7.086,26.864 C9.022,26.527 10.911,25.825 11.771,25.373 C11.793,25.108 11.791,23.351 11.788,22.220 C9.630,19.648 8.265,16.159 8.265,13.005 C8.265,5.826 11.811,0.006 18.865,0.006 C25.924,0.006 29.466,5.826 29.466,13.005 C29.466,16.166 28.082,19.682 25.898,22.264 C25.905,22.707 25.933,23.339 25.933,25.370 C26.789,25.827 28.685,26.526 30.623,26.864 C32.946,27.266 35.830,28.286 37.534,32.645 C37.822,33.385 37.721,34.188 37.251,34.848 ZM27.119,13.005 C27.119,7.131 24.362,2.370 18.865,2.370 C13.373,2.370 10.612,7.131 10.612,13.005 C10.612,17.831 14.307,23.641 18.865,23.641 C23.424,23.641 27.119,17.807 27.119,13.005 ZM30.196,29.188 C28.094,28.822 25.915,28.054 24.763,27.439 L23.604,26.820 C23.604,26.820 23.578,25.365 23.562,24.413 C22.145,25.398 20.554,26.005 18.865,26.005 C17.166,26.005 15.565,25.394 14.142,24.400 C14.120,25.351 14.085,26.840 14.085,26.840 L12.930,27.449 C11.763,28.063 9.590,28.827 7.514,29.187 C5.756,29.491 3.771,30.099 2.448,33.481 C2.513,33.557 4.483,35.461 18.855,35.461 C33.226,35.461 35.197,33.558 35.274,33.477 C33.939,30.100 31.954,29.492 30.196,29.188 Z" class="cls-1"/>
</svg>
