<svg xmlns="http://www.w3.org/2000/svg" xmlns:xlink="http://www.w3.org/1999/xlink" preserveAspectRatio="xMidYMid" width="38" height="38" viewBox="0 0 38 38">
  <defs>
    <style>
      .cls-1 {
        fill: #fff;
        fill-rule: evenodd;
      }
    </style>
  </defs>
  <path d="M27.371,22.563 C23.196,22.563 20.244,26.125 15.421,26.125 C9.473,26.125 4.750,22.563 4.750,22.563 L4.750,2.375 C4.750,2.375 9.012,5.937 15.400,5.937 C20.279,5.937 22.606,2.375 27.329,2.375 C33.259,2.375 38.000,5.937 38.000,5.937 L38.000,26.125 C38.000,26.125 33.299,22.563 27.371,22.563 ZM35.586,6.869 C33.635,5.882 30.671,4.750 27.329,4.750 C22.606,4.750 20.279,8.313 15.400,8.313 C11.874,8.313 8.996,7.227 7.124,6.255 C7.124,11.203 7.138,18.343 7.138,21.621 C9.086,22.611 12.058,23.750 15.421,23.750 C20.244,23.750 23.196,20.188 27.371,20.188 C30.739,20.188 33.712,21.338 35.650,22.331 C35.650,18.050 35.586,14.583 35.586,6.869 ZM1.187,38.000 C0.532,38.000 0.000,37.469 0.000,36.813 L0.000,1.188 C0.000,0.532 0.532,0.000 1.187,0.000 C1.843,0.000 2.375,0.532 2.375,1.188 L2.375,36.813 C2.375,37.469 1.843,38.000 1.187,38.000 Z" class="cls-1"/>
</svg>
