<svg xmlns="http://www.w3.org/2000/svg" xmlns:xlink="http://www.w3.org/1999/xlink" preserveAspectRatio="xMidYMid" width="32" height="32.03" viewBox="0 0 32 32.03">
  <defs>
    <style>
      .cls-1 {
        fill: #fff;
        fill-rule: evenodd;
      }
    </style>
  </defs>
  <path d="M21.624,1.791 L3.182,20.249 C1.087,22.346 -0.740,30.643 0.321,31.705 C1.426,32.812 9.665,30.942 11.764,28.841 L30.206,10.384 C32.576,8.011 32.576,4.164 30.206,1.791 C27.836,-0.581 23.994,-0.581 21.624,1.791 ZM5.231,21.022 L20.172,6.068 L22.360,8.256 L7.848,22.769 L7.308,22.244 C6.695,21.648 5.949,21.273 5.164,21.102 C5.186,21.077 5.209,21.044 5.231,21.022 ZM2.104,29.923 C1.636,29.454 2.786,25.425 4.064,22.845 C4.965,23.077 5.829,23.515 6.545,24.211 L7.384,25.028 C8.268,25.888 8.789,26.963 8.945,28.065 C6.357,29.292 2.534,30.354 2.104,29.923 ZM10.991,26.790 C10.906,26.875 10.800,26.962 10.688,27.050 C10.622,26.043 10.199,25.056 9.407,24.286 L9.281,24.163 L23.774,9.670 L25.936,11.832 L10.991,26.790 ZM28.790,8.975 L27.349,10.417 L21.585,4.653 L23.031,3.206 C24.621,1.613 27.200,1.613 28.790,3.206 C30.381,4.799 30.381,7.382 28.790,8.975 Z" class="cls-1"/>
</svg>
