<svg xmlns="http://www.w3.org/2000/svg" xmlns:xlink="http://www.w3.org/1999/xlink" preserveAspectRatio="xMidYMid" width="26" height="32" viewBox="0 0 26 32">
  <defs>
    <style>
      .cls-1 {
        fill: #fff;
        fill-rule: evenodd;
      }
    </style>
  </defs>
  <path d="M19.000,24.000 L7.000,24.000 C6.448,24.000 6.000,24.448 6.000,25.000 C6.000,25.552 6.448,26.000 7.000,26.000 L19.000,26.000 C19.552,26.000 20.000,25.552 20.000,25.000 C20.000,24.448 19.552,24.000 19.000,24.000 ZM23.000,5.000 L21.000,5.000 C21.000,3.896 20.105,3.000 19.000,3.000 L18.000,3.000 L18.000,2.000 C18.000,0.896 17.105,0.000 16.000,0.000 L10.000,0.000 C8.895,0.000 8.000,0.896 8.000,2.000 L8.000,3.000 L7.000,3.000 C5.895,3.000 5.000,3.896 5.000,5.000 L3.000,5.000 C1.343,5.000 0.000,6.343 0.000,8.000 L0.000,29.000 C0.000,30.657 1.343,32.000 3.000,32.000 L23.000,32.000 C24.657,32.000 26.000,30.657 26.000,29.000 L26.000,8.000 C26.000,6.343 24.657,5.000 23.000,5.000 ZM8.500,5.000 L10.000,5.000 L10.000,4.000 C10.000,2.895 10.896,2.000 12.000,2.000 L14.000,2.000 C15.105,2.000 16.000,2.895 16.000,4.000 L16.000,5.000 L17.500,5.000 C18.328,5.000 19.000,5.672 19.000,6.500 C19.000,7.329 18.328,8.000 17.500,8.000 L8.500,8.000 C7.672,8.000 7.000,7.329 7.000,6.500 C7.000,5.672 7.672,5.000 8.500,5.000 ZM24.000,28.000 C24.000,29.104 23.105,30.000 22.000,30.000 L4.000,30.000 C2.895,30.000 2.000,29.104 2.000,28.000 L2.000,9.000 C2.000,7.896 2.895,7.000 4.000,7.000 L5.000,7.000 L5.000,8.000 C5.000,9.105 5.895,10.000 7.000,10.000 L19.000,10.000 C20.215,10.000 20.647,8.960 20.957,7.971 C21.065,7.626 21.000,7.286 21.000,7.000 L22.000,7.000 C23.105,7.000 24.000,7.896 24.000,9.000 L24.000,28.000 ZM19.000,19.000 L7.000,19.000 C6.448,19.000 6.000,19.448 6.000,20.000 C6.000,20.553 6.448,21.000 7.000,21.000 L19.000,21.000 C19.552,21.000 20.000,20.553 20.000,20.000 C20.000,19.448 19.552,19.000 19.000,19.000 ZM19.000,14.000 L7.000,14.000 C6.448,14.000 6.000,14.448 6.000,15.000 C6.000,15.552 6.448,16.000 7.000,16.000 L19.000,16.000 C19.552,16.000 20.000,15.552 20.000,15.000 C20.000,14.448 19.552,14.000 19.000,14.000 Z" class="cls-1"/>
</svg>
