<svg xmlns="http://www.w3.org/2000/svg" xmlns:xlink="http://www.w3.org/1999/xlink" preserveAspectRatio="xMidYMid" width="32" height="21" viewBox="0 0 32 21">
  <defs>
    <style>
      .cls-1 {
        fill: #fff;
        fill-rule: evenodd;
      }
    </style>
  </defs>
  <path d="M29.000,-0.000 L3.000,-0.000 C1.343,-0.000 0.000,1.343 0.000,3.000 L0.000,18.000 C0.000,19.657 1.343,21.000 3.000,21.000 L29.000,21.000 C30.657,21.000 32.000,19.657 32.000,18.000 L32.000,3.000 C32.000,1.343 30.657,-0.000 29.000,-0.000 ZM4.000,2.000 L28.000,2.000 C28.288,2.000 28.560,2.063 28.807,2.173 L16.835,12.829 C16.644,12.976 16.360,13.075 16.075,13.075 C15.796,13.075 15.530,12.981 15.305,12.802 L3.522,2.064 C3.676,2.026 3.834,2.000 4.000,2.000 ZM2.000,4.000 C2.000,3.800 2.038,3.610 2.093,3.427 L9.959,10.594 L2.095,17.579 C2.039,17.395 2.000,17.203 2.000,17.000 L2.000,4.000 ZM28.000,19.000 L4.000,19.000 C3.856,19.000 3.717,18.984 3.582,18.955 L11.457,11.958 L14.023,14.296 C15.258,15.282 16.933,15.243 18.099,14.338 L20.658,12.061 L28.418,18.955 C28.283,18.984 28.144,19.000 28.000,19.000 ZM30.000,17.000 C30.000,17.203 29.961,17.395 29.905,17.579 L22.174,10.712 L29.976,3.767 C29.985,3.844 30.000,3.920 30.000,4.000 L30.000,17.000 Z" class="cls-1"/>
</svg>
