<svg xmlns="http://www.w3.org/2000/svg" xmlns:xlink="http://www.w3.org/1999/xlink" preserveAspectRatio="xMidYMid" width="26" height="31.94" viewBox="0 0 26 31.94">
  <defs>
    <style>
      .cls-1 {
        fill: #fff;
        fill-rule: evenodd;
      }
    </style>
  </defs>
  <path d="M13.314,31.910 C13.198,31.931 13.079,31.941 12.961,31.941 C12.843,31.941 12.724,31.931 12.607,31.910 C12.094,31.817 -0.004,29.437 -0.004,10.948 L-0.004,4.947 C-0.004,4.393 0.227,3.865 0.631,3.487 C1.003,3.139 1.493,2.947 1.999,2.947 C2.043,2.947 2.087,2.949 2.131,2.952 C2.162,2.954 2.483,2.974 2.986,2.974 C3.818,2.974 5.475,2.917 7.014,2.538 C9.366,1.961 11.769,0.389 11.850,0.335 C12.187,0.111 12.574,-0.001 12.961,-0.001 C13.349,-0.001 13.736,0.111 14.072,0.336 C14.740,0.783 17.036,2.050 19.025,2.538 C20.565,2.917 22.191,2.974 23.024,2.974 C23.527,2.974 23.848,2.954 23.877,2.952 C23.923,2.949 23.968,2.947 24.014,2.947 C24.519,2.947 25.008,3.138 25.379,3.485 C25.784,3.863 26.014,5.393 26.014,5.947 L26.014,10.948 C26.014,29.437 13.828,31.817 13.314,31.910 ZM24.014,4.947 C24.014,4.947 23.636,4.973 23.024,4.973 C21.975,4.973 20.241,4.896 18.548,4.480 C15.781,3.801 12.961,1.999 12.961,1.999 C12.961,1.999 10.261,3.801 7.491,4.480 C5.799,4.896 4.035,4.973 2.986,4.973 C2.374,4.973 1.996,4.947 1.996,4.947 C1.996,4.947 1.996,6.583 1.996,10.948 C1.996,27.976 12.961,29.941 12.961,29.941 C12.961,29.941 24.014,27.976 24.014,10.948 C24.014,6.583 24.014,4.947 24.014,4.947 ZM13.000,18.970 C10.791,18.970 9.000,17.179 9.000,14.970 C9.000,12.761 10.791,10.970 13.000,10.970 C15.209,10.970 17.000,12.761 17.000,14.970 C17.000,17.179 15.209,18.970 13.000,18.970 ZM13.000,12.970 C11.896,12.970 11.000,13.866 11.000,14.970 C11.000,16.075 11.896,16.970 13.000,16.970 C14.105,16.970 15.000,16.075 15.000,14.970 C15.000,13.866 14.105,12.970 13.000,12.970 Z" class="cls-1"/>
</svg>
