<svg xmlns="http://www.w3.org/2000/svg" xmlns:xlink="http://www.w3.org/1999/xlink" preserveAspectRatio="xMidYMid" width="31" height="32" viewBox="0 0 31 32">
  <defs>
    <style>
      .cls-1 {
        fill: #fff;
        fill-rule: evenodd;
      }
    </style>
  </defs>
  <path d="M25.000,20.000 C22.917,20.000 21.083,21.062 20.008,22.674 L11.355,18.696 C11.764,17.884 12.000,16.971 12.000,16.000 C12.000,15.087 11.790,14.225 11.425,13.451 L20.129,9.494 C21.218,11.010 22.991,12.000 25.000,12.000 C28.314,12.000 31.000,9.314 31.000,6.000 C31.000,2.686 28.314,0.000 25.000,0.000 C21.686,0.000 19.000,2.686 19.000,6.000 C19.000,6.590 19.089,7.159 19.248,7.698 L10.264,11.782 C9.177,10.682 7.668,10.000 6.000,10.000 C2.686,10.000 0.000,12.686 0.000,16.000 C0.000,19.314 2.686,22.000 6.000,22.000 C7.586,22.000 9.024,21.380 10.098,20.375 L19.183,24.552 C19.068,25.017 19.000,25.500 19.000,26.000 C19.000,29.314 21.686,32.000 25.000,32.000 C28.314,32.000 31.000,29.314 31.000,26.000 C31.000,22.686 28.314,20.000 25.000,20.000 ZM25.000,2.000 C27.209,2.000 29.000,3.791 29.000,6.000 C29.000,8.209 27.209,10.000 25.000,10.000 C22.791,10.000 21.000,8.209 21.000,6.000 C21.000,3.791 22.791,2.000 25.000,2.000 ZM6.000,20.000 C3.791,20.000 2.000,18.209 2.000,16.000 C2.000,13.791 3.791,12.000 6.000,12.000 C8.209,12.000 10.000,13.791 10.000,16.000 C10.000,18.209 8.209,20.000 6.000,20.000 ZM25.000,30.000 C22.791,30.000 21.000,28.209 21.000,26.000 C21.000,23.791 22.791,22.000 25.000,22.000 C27.209,22.000 29.000,23.791 29.000,26.000 C29.000,28.209 27.209,30.000 25.000,30.000 Z" class="cls-1"/>
</svg>
