<svg xmlns="http://www.w3.org/2000/svg" xmlns:xlink="http://www.w3.org/1999/xlink" preserveAspectRatio="xMidYMid" width="32" height="32" viewBox="0 0 32 32">
  <defs>
    <style>
      .cls-1 {
        fill: #fff;
        fill-rule: evenodd;
      }
    </style>
  </defs>
  <path d="M16.000,32.000 C7.164,32.000 0.000,24.837 0.000,16.000 C0.000,7.164 7.164,0.000 16.000,0.000 C24.837,0.000 32.000,7.164 32.000,16.000 C32.000,24.837 24.837,32.000 16.000,32.000 ZM16.000,2.000 C8.268,2.000 2.000,8.268 2.000,16.000 C2.000,23.732 8.268,30.000 16.000,30.000 C23.732,30.000 30.000,23.732 30.000,16.000 C30.000,8.268 23.732,2.000 16.000,2.000 ZM19.074,14.796 C18.821,15.021 18.367,15.401 17.712,15.934 C17.531,16.084 17.386,16.216 17.276,16.330 C17.167,16.444 17.086,16.548 17.033,16.642 C16.979,16.737 16.938,16.832 16.909,16.926 C16.879,17.021 16.835,17.187 16.777,17.424 C16.675,17.928 16.358,18.180 15.826,18.180 C15.549,18.180 15.316,18.098 15.127,17.933 C14.938,17.768 14.843,17.523 14.843,17.199 C14.843,16.791 14.912,16.439 15.051,16.141 C15.189,15.843 15.373,15.581 15.602,15.356 C15.831,15.130 16.140,14.863 16.529,14.552 C16.870,14.281 17.117,14.076 17.268,13.938 C17.420,13.800 17.548,13.646 17.652,13.477 C17.756,13.307 17.808,13.123 17.808,12.924 C17.808,12.536 17.649,12.209 17.332,11.943 C17.015,11.676 16.606,11.543 16.105,11.543 C15.520,11.543 15.088,11.677 14.811,11.946 C14.534,12.215 14.300,12.611 14.108,13.135 C13.927,13.683 13.583,13.956 13.077,13.956 C12.779,13.956 12.527,13.861 12.322,13.669 C12.117,13.478 12.014,13.271 12.014,13.048 C12.014,12.587 12.177,12.121 12.502,11.648 C12.826,11.176 13.301,10.784 13.924,10.474 C14.547,10.164 15.274,10.009 16.105,10.009 C16.878,10.009 17.560,10.139 18.151,10.398 C18.743,10.657 19.199,11.010 19.522,11.455 C19.844,11.901 20.005,12.386 20.005,12.909 C20.005,13.321 19.913,13.683 19.729,13.993 C19.546,14.303 19.327,14.570 19.074,14.796 ZM15.914,19.841 C16.249,19.841 16.532,19.946 16.761,20.154 C16.990,20.363 17.104,20.619 17.104,20.925 C17.104,21.264 16.985,21.531 16.745,21.724 C16.505,21.918 16.228,22.015 15.914,22.015 C15.589,22.015 15.305,21.919 15.063,21.728 C14.820,21.537 14.699,21.269 14.699,20.925 C14.699,20.619 14.816,20.363 15.051,20.154 C15.285,19.946 15.573,19.841 15.914,19.841 Z" class="cls-1"/>
</svg>
