<?xml version="1.0" standalone="no"?>
<!DOCTYPE svg PUBLIC "-//W3C//DTD SVG 1.1//EN" "http://www.w3.org/Graphics/SVG/1.1/DTD/svg11.dtd" >
<svg>
<metadata>
Created by FontForge 20090622 at Thu May 12 12:28:17 2016
 By deploy user
Copyright 1990-2005 Bitstream Inc.  All rights reserved.
</metadata>
<defs>
<font id="IowanOldStyle-Roman" horiz-adv-x="0" >
  <font-face 
    font-family="Iowan Old Style"
    font-weight="400"
    font-stretch="normal"
    units-per-em="2048"
    panose-1="2 4 6 2 4 5 6 2 2 4"
    ascent="1638"
    descent="-410"
    x-height="981"
    cap-height="1427"
    bbox="-1632 -936 3491 2546"
    underline-thickness="109"
    underline-position="-204"
    unicode-range="U+0020-U+FE48"
  />
<missing-glyph horiz-adv-x="1229" 
d="M102 -362v1806h1024v-1806h-1024zM217 -248h795v1577h-795v-1577z" />
    <glyph glyph-name="fi" unicode="fi" horiz-adv-x="1208" 
d="M379 1068v-107q43 -2 91 -2.5t136 -0.5q149 0 238 13t149 41q-6 -206 -9 -375t-3 -301v-103q0 -110 21.5 -138.5t84.5 -28.5q6 0 16 1t15 1v-68q-61 5 -118.5 7.5t-106.5 2.5q-32 0 -81 -2t-142 -8v70h24q124 0 125 244v55l2 247v82q0 120 -26 147t-146 27h-270
q0 -58 -1 -169.5t-1 -163.5q0 -275 4.5 -348t15.5 -90q13 -19 37.5 -27t71.5 -8h26v-66q-62 5 -119 7.5t-102 2.5q-31 0 -78.5 -2t-158.5 -8v68h26q69 0 93 42t24 183q0 27 -1 108.5t-1 135.5q0 74 -0.5 156.5t-1.5 174.5h-66q-2 0 -26.5 -1.5t-46.5 -2.5v68q42 1 76.5 11
t62.5 30q-1 9 -1.5 20.5t-0.5 34.5q0 235 131.5 378.5t341.5 143.5q131 0 230.5 -54t99.5 -122q0 -38 -27.5 -67t-62.5 -29q-36 0 -83 52q-20 22 -32 34q-44 42 -90.5 63t-95.5 21q-128 0 -185 -87t-59 -293z" />
    <glyph glyph-name="fl" unicode="fl" horiz-adv-x="1241" 
d="M76 68h24q69 0 93 42t24 183q0 27 -1 108.5t-1 135.5q0 74 -0.5 156.5t-1.5 174.5h-66q-2 0 -26.5 -1.5t-46.5 -2.5v68q42 1 76.5 11t62.5 30q-1 9 -1.5 20.5t-0.5 32.5q0 229 129.5 374.5t325.5 145.5q57 0 104.5 -16t91.5 -51l162 67q-6 -181 -9 -345.5t-3 -303.5
l-2 -205v-96q0 -70 1 -159t1 -109v-90q0 -109 25.5 -139.5t95.5 -30.5h14h8v-68q-68 5 -128.5 7.5t-104.5 2.5q-48 0 -105 -2.5t-118 -7.5l-1 68h31q71 0 95 37t24 214v72l8 946q-66 51 -130.5 76t-127.5 25q-118 0 -169.5 -86.5t-51.5 -296.5v-97q31 -2 94 -2
q10 0 46.5 1.5t102.5 5.5l-2 -97q-43 3 -92 4.5t-102 1.5h-47q0 -49 -1 -160.5t-1 -172.5q0 -250 5 -335t17 -104q13 -18 35.5 -25t71.5 -7h16h10v-68q-96 6 -144 8t-77 2q-51 0 -110 -2.5t-123 -7.5v68z" />
    <glyph glyph-name="ffl" unicode="ffl" horiz-adv-x="1849" 
d="M375 958h456v41q0 97 14 171.5t42 132.5q-67 66 -133 98.5t-136 32.5q-129 0 -187 -88t-58 -285v-25zM74 65l26 -3t15 -1q59 0 80.5 45t21.5 193q0 25 -1 95.5t-1 115.5q0 135 -0.5 211t-1.5 145h-53q-5 0 -34.5 -1.5t-51.5 -2.5v70q50 3 83 13.5t56 29.5v35
q0 235 126 377.5t329 142.5q80 0 152.5 -29.5t144.5 -91.5q75 69 154.5 104t160.5 35q56 0 105 -17t92 -52l155 67q-6 -181 -9 -345.5t-3 -303.5v-360v-209v-82q0 -117 26 -148.5t97 -31.5q2 0 6 0.5t8 1.5q4 0 5.5 -0.5t2.5 -1.5v-66q-66 5 -126.5 7.5t-108.5 2.5
q-37 0 -146 -5q-46 -2 -71 -3v64h30q71 0 95 37.5t24 215.5v72l6 946q-65 51 -129.5 76t-128.5 25q-117 0 -169 -86.5t-52 -296.5v-97q31 -2 94 -2q10 0 49.5 2t100.5 4v-95q-44 2 -93 3.5t-102 1.5h-47q0 -48 -1 -159.5t-1 -173.5q0 -274 4.5 -347.5t16.5 -91.5
q14 -19 37.5 -26.5t70.5 -7.5h27v-66q-96 6 -144 8t-77 2q-33 0 -84.5 -2t-146.5 -8l-1 68h25q69 0 94 43.5t25 191.5q0 27 -1 104.5t-1 129.5q0 74 -1 158.5l-2 176.5h-456q0 -63 -1 -184t-1 -180q0 -49 -1 -123t-1 -100q0 -140 23 -181t91 -41q16 0 24 0.5t17 1.5v-65
q-65 4 -122 6t-99 2q-43 0 -102.5 -2t-128.5 -6v65z" />
    <glyph glyph-name="ffi" unicode="ffi" horiz-adv-x="1817" 
d="M993 1067l-2 -109q48 0 122 -1t101 -1q159 0 243.5 12t144.5 40q-7 -203 -10 -371t-3 -301v-103q0 -110 22 -138.5t85 -28.5h20h10v-66q-61 5 -117.5 7.5t-105.5 2.5q-31 0 -79 -2t-140 -8v66h25q123 0 124 247q0 36 1 56l2 247v82q0 120 -26.5 147t-145.5 27h-273v-333
q0 -274 4.5 -347.5t16.5 -91.5q14 -19 37 -26.5t69 -7.5h27v-66q-100 6 -145.5 8t-73.5 2q-51 0 -110.5 -2.5t-122.5 -7.5l-1 68h25q69 0 94 43.5t25 191.5q0 27 -1 104.5t-1 129.5q0 74 -1 158.5l-2 176.5h-456q0 -63 -1 -184t-1 -180q0 -49 -1 -123t-1 -100
q0 -140 23 -181t91 -41q16 0 24 0.5t17 1.5v-65q-63 4 -119.5 6t-97.5 2q-53 0 -112 -2t-123 -6v65l26 -3t15 -1q59 0 80.5 45t21.5 193q0 25 -1 95.5t-1 115.5q0 135 -0.5 211t-1.5 145h-53q-5 0 -34.5 -1.5t-51.5 -2.5v70q50 3 83 13.5t56 29.5v35q0 234 126.5 377
t330.5 143q79 0 150.5 -29t144.5 -90q79 70 158.5 103.5t164.5 33.5q139 0 239.5 -53t100.5 -121q0 -37 -26.5 -65.5t-61.5 -28.5q-42 0 -92 56l-27 28q-49 46 -93 65t-101 19t-109 -30t-82 -81q-21 -35 -30.5 -86.5t-12.5 -183.5zM885 1305q-66 65 -131.5 97t-135.5 32
q-129 0 -187 -88t-58 -285v-25l2 -78h456v46q0 100 13 173t41 128z" />
    <glyph glyph-name="ff" unicode="ff" horiz-adv-x="1276" 
d="M999 1036l2 -75h68q50 0 100 1.5t97 3.5q-1 -26 -1.5 -51.5t-0.5 -52.5l-7 1q-145 7 -213 7h-45q0 -46 -1 -163t-1 -187q0 -232 5 -314.5t16 -101.5q13 -21 38.5 -31t69.5 -10q19 0 29 0.5t21 1.5v-65q-70 4 -132.5 6t-111.5 2q-43 0 -105 -2t-137 -6v65q6 0 13.5 -1
t21.5 -1q53 0 76.5 20t27.5 68q4 27 5.5 147.5t1.5 571.5h-457q0 -63 -1 -184t-1 -178q0 -49 -1 -123t-1 -100q0 -140 23 -181t91 -41q16 0 24 0.5t17 1.5v-65q-65 4 -121.5 6t-99.5 2q-50 0 -109.5 -2t-125.5 -6v65l26 -3t15 -1q59 0 80.5 45t21.5 193q0 25 -1 95.5
t-1 115.5q0 135 -0.5 211t-1.5 145h-53q-5 0 -34.5 -1.5t-51.5 -2.5v70q50 3 83 13.5t56 29.5v35q0 235 126.5 377.5t332.5 142.5q79 0 150.5 -28.5t144.5 -88.5q55 65 130.5 102t153.5 37q102 0 167 -38.5t65 -96.5q0 -33 -22 -55.5t-54 -22.5q-24 0 -98.5 45.5
t-130.5 45.5q-96 0 -137.5 -79.5t-41.5 -277.5v-37zM887 1309q-67 64 -131.5 94.5t-132.5 30.5q-129 0 -186.5 -87t-57.5 -286v-25v-75h457v36q0 109 12 181.5t39 130.5z" />
    <glyph glyph-name=".notdef" horiz-adv-x="1229" 
d="M102 -362v1806h1024v-1806h-1024zM217 -248h795v1577h-795v-1577z" />
    <glyph glyph-name="space" unicode=" " horiz-adv-x="569" 
 />
    <glyph glyph-name="exclam" unicode="!" horiz-adv-x="690" 
d="M311 242l70 -56q28 -21 40.5 -41t12.5 -43t-10 -40t-37 -37l-76 -58l-69 53q-29 23 -42.5 43.5t-13.5 42.5t10.5 38.5t41.5 39.5zM227 1427h207q-2 -189 -34.5 -539t-41.5 -497h-81q-5 240 -17.5 498.5t-32.5 537.5z" />
    <glyph glyph-name="quotedbl" unicode="&#x22;" horiz-adv-x="678" 
d="M518 864h-31l-65 457q0 2 -1 6q-3 22 -3 33q0 49 22.5 75.5t63.5 26.5q40 0 62 -26t22 -74q0 -14 -0.5 -23t-1.5 -18zM190 864h-32l-64 457l-3 26t-1 15q0 48 22 74t62 26q41 0 63.5 -26t22.5 -74q0 -9 -3 -34q-1 -5 -1 -7z" />
    <glyph glyph-name="numbersign" unicode="#" horiz-adv-x="1139" 
d="M733 835q-38 2 -72.5 2.5t-72.5 0.5h-103l-82 -254q24 -1 46.5 -1.5t44.5 -0.5q30 0 65 0.5t98 3.5zM555 1417h115l-67.5 -211l-81.5 -268q20 -1 42.5 -1.5t59.5 -0.5q30 0 65.5 0.5t75.5 1.5l72 228.5l73 250.5h115l-152 -479q14 0 40.5 -1t39.5 -1q35 0 67 1.5t62 4.5
l-34 -117q-47 4 -99 6.5t-108 4.5l-82 -252q17 0 48.5 -1t45.5 -1q25 0 52 0.5t68 3.5l-34 -113q-64 5 -101.5 6.5t-70.5 1.5h-39l-143 -481h-115l73.5 237l78.5 244h-119h-129l-53 -169l-95 -312h-116l155 479q-23 1 -45.5 1.5t-42.5 0.5q-27 0 -89 -3q-11 -1 -17 -1
l34 112q31 -2 61 -3.5t60 -1.5q13 0 37.5 1t36.5 1l82 250q-82 0 -124 -1t-79 -4l35 115q37 -3 75 -4.5t77 -1.5h51z" />
    <glyph glyph-name="dollar" unicode="$" horiz-adv-x="1139" 
d="M600 625v-418q83 15 133.5 76t50.5 145q0 65 -44 112.5t-140 84.5zM512 1206q-81 -12 -127.5 -60t-46.5 -120q0 -64 41.5 -110t132.5 -82v372zM508 1530h104l-2 -234q137 -4 215 -42.5t78 -100.5q0 -36 -23.5 -62t-56.5 -26q-24 0 -84.5 68.5t-129.5 72.5l-7 -403
q184 -64 259 -141.5t75 -198.5q0 -134 -91.5 -228.5t-242.5 -115.5v-234h-104l4 230q-151 4 -235.5 47.5t-84.5 116.5q0 39 25 67.5t57 28.5q34 0 96.5 -86t145.5 -86l4 448q-169 56 -247.5 134t-78.5 192q0 122 89 208t237 105z" />
    <glyph glyph-name="percent" unicode="%" horiz-adv-x="1802" 
d="M1356 725q-80 0 -120 -75.5t-40 -227.5q0 -181 45.5 -278t130.5 -97q80 0 120 75.5t40 225.5q0 184 -45.5 280.5t-130.5 96.5zM1036 379q0 191 94 307.5t246 116.5q142 0 230 -109t88 -284q0 -203 -91.5 -321t-246.5 -118q-146 0 -233 110.5t-87 297.5zM428 1370
q-80 0 -120 -76.5t-40 -228.5q0 -181 45.5 -277t130.5 -96q80 0 120 75t40 224q0 184 -45.5 281.5t-130.5 97.5zM1286 1460l80 -43l-556 -941l-304 -523l-76 39l813 1399q-106 -65 -187 -93t-157 -28q-47 0 -97.5 11.5t-113.5 37.5q37 -53 56.5 -125t19.5 -158
q0 -189 -93.5 -305.5t-244.5 -116.5q-145 0 -231 111t-86 299q0 187 91.5 304.5t233.5 117.5q41 0 76.5 -6.5t71.5 -20.5q119 -38 190.5 -52.5t130.5 -14.5q85 0 181.5 27t201.5 81z" />
    <glyph glyph-name="ampersand" unicode="&#x26;" horiz-adv-x="1702" 
d="M657 844q79 53 123.5 132t44.5 165q0 91 -49 149t-127 58q-72 0 -118 -50.5t-46 -130.5q0 -72 45 -157.5t127 -165.5zM924 244l-379 475q-121 -41 -181.5 -114.5t-60.5 -178.5q0 -131 93.5 -225.5t224.5 -94.5q70 0 143.5 33.5t159.5 104.5zM975 180q-109 -105 -220 -159
t-220 -54q-170 0 -285 114.5t-115 283.5q0 147 93 253.5t270 161.5q-82 85 -124 168t-42 160q0 132 101 231t235 99q136 0 224.5 -80.5t88.5 -202.5q0 -99 -67.5 -187.5t-211.5 -176.5l342 -414q103 113 167.5 244.5t64.5 201.5q0 46 -26.5 63t-102.5 17v74
q67 -7 123.5 -10.5t97.5 -3.5q30 0 74 2.5t145 11.5v-76h-22q-104 0 -153 -106q-3 -6 -5 -11q-75 -160 -149 -273.5t-158 -197.5l41 -49q71 -86 129 -124t116 -38q47 0 100 26.5t105 76.5l41 -43q-76 -102 -159.5 -154.5t-169.5 -52.5q-75 0 -141.5 43t-186.5 182z" />
    <glyph glyph-name="quotesingle" unicode="'" horiz-adv-x="348" 
d="M190 864h-32l-66 457q-1 8 -1.5 16t-0.5 23q0 50 21.5 76t62.5 26t63.5 -26t22.5 -74q0 -9 -3 -34q-1 -5 -1 -7z" />
    <glyph glyph-name="parenleft" unicode="(" horiz-adv-x="858" 
d="M762 1571l51 -53q-185 -205 -280 -440t-95 -488t95 -479t288 -437l-53 -61q-251 194 -374.5 440t-123.5 553q0 287 125.5 533t366.5 432z" />
    <glyph glyph-name="parenright" unicode=")" horiz-adv-x="858" 
d="M98 1571q240 -186 365 -432.5t125 -532.5q0 -307 -123 -553.5t-373 -439.5l-53 61q193 210 288 434.5t95 469.5q0 262 -94 497t-281 443z" />
    <glyph glyph-name="asterisk" unicode="*" horiz-adv-x="930" 
d="M465 1460l80 -45q-24 -73 -36.5 -132.5t-12.5 -94.5q0 -7 3 -12t7 -5q16 0 60.5 39t125.5 123l78 -45l2 -90q-122 -33 -176.5 -54.5t-54.5 -37.5q0 -15 61 -39t170 -51l-2 -90l-78 -43q-81 83 -125 121t-57 38q-7 0 -10.5 -4t-3.5 -12q0 -32 12 -89t37 -138l-80 -45
l-78 45q22 82 34.5 141.5t12.5 83.5v4q0 5 -4.5 9.5t-9.5 4.5q-13 0 -57 -38t-125 -121l-78 43v90q109 27 170 51t61 39t-57.5 38t-173.5 54v90l78 45q85 -88 126.5 -125t57.5 -37q5 0 8.5 5.5t3.5 13.5q0 24 -12.5 85.5t-34.5 139.5z" />
    <glyph glyph-name="plus" unicode="+" horiz-adv-x="1706" 
d="M795 1221h118v-551h539v-117h-539v-553h-118v553h-541v117h541v551z" />
    <glyph glyph-name="comma" unicode="," horiz-adv-x="569" 
d="M266 252q82 -63 107.5 -100t25.5 -82q0 -74 -75.5 -178.5t-202.5 -202.5l-53 65q66 52 107 112t58 132q-56 35 -78 60t-22 51q0 19 13.5 38t60.5 58z" />
    <glyph glyph-name="hyphen" unicode="-" horiz-adv-x="717" 
d="M66 424q15 35 28 73.5t25 84.5q10 -1 30 -1q147 -3 209 -3q98 0 163 1t128 3q-17 -44 -30 -83.5t-23 -74.5q-60 2 -118.5 3t-141.5 1t-145 -1t-125 -3z" />
    <glyph glyph-name="period" unicode="." horiz-adv-x="569" 
d="M266 260l80 -59q33 -25 48.5 -45.5t15.5 -38.5q0 -24 -13.5 -44t-46.5 -44l-78 -58l-73 58q-36 26 -50 46t-14 42q0 19 10.5 35.5t49.5 48.5z" />
    <glyph glyph-name="slash" unicode="/" horiz-adv-x="944" 
d="M866 1559l107 -50l-589.5 -1101.5l-311.5 -597.5l-107 47l513.5 954.5z" />
    <glyph glyph-name="zero" unicode="0" horiz-adv-x="1139" 
d="M551 1337q-147 0 -219 -141.5t-72 -429.5q0 -336 84.5 -511t245.5 -175q146 0 218.5 143t72.5 434q0 330 -85 505t-245 175zM78 676q0 351 139 560.5t367 209.5q221 0 348 -188t127 -521q0 -350 -138.5 -558t-367.5 -208q-221 0 -348 188.5t-127 516.5z" />
    <glyph glyph-name="one" unicode="1" horiz-adv-x="1139" 
d="M690 1446q-10 -187 -14 -385t-4 -529q0 -38 -1.5 -100t-1.5 -86q0 -178 35.5 -228t134.5 -50q6 0 20 1t21 1v-70q-90 4 -169.5 6t-143.5 2q-52 0 -128.5 -2t-168.5 -6v68h31q106 0 143 21t51 83q9 38 15 262t6 559q0 52 -2.5 157.5l-3.5 149.5q-58 -1 -123 -6.5
t-139 -15.5l-13 76q109 18 223 41t232 51z" />
    <glyph glyph-name="two" unicode="2" horiz-adv-x="1139" 
d="M305 172q45 -1 120 -2q128 -2 167 -2h125q146 0 192.5 30.5t67.5 118.5l63 -20q-29 -79 -48 -152t-30 -145q-162 5 -279.5 7.5t-211.5 2.5q-81 0 -175 -2.5t-216 -7.5l-31 68q316 270 495 524t179 428q0 126 -74.5 209.5t-187.5 83.5q-85 0 -156.5 -49.5t-142.5 -157.5
l-78 45q84 149 189.5 222t236.5 73q170 0 291 -117.5t121 -281.5q0 -153 -131.5 -343.5t-485.5 -531.5z" />
    <glyph glyph-name="three" unicode="3" horiz-adv-x="1139" 
d="M570 793q8 1 18 1.5t28 0.5q164 0 258.5 -93.5t94.5 -255.5q0 -191 -162.5 -333t-380.5 -142q-136 0 -236 53.5t-100 122.5q0 30 27.5 58t56.5 28q37 0 82 -48q12 -13 18 -19q46 -49 93.5 -70.5t107.5 -21.5q127 0 214 93.5t87 233.5q0 131 -74 213t-192 82
q-42 0 -89.5 -10.5t-101.5 -32.5l-28 70q199 87 299 183.5t100 201.5q0 93 -62 155t-157 62q-71 0 -136.5 -42t-129.5 -128l-74 43q69 123 166 185.5t221 62.5q151 0 252.5 -90.5t101.5 -220.5q0 -111 -75 -196t-227 -146z" />
    <glyph glyph-name="four" unicode="4" horiz-adv-x="1139" 
d="M666 1208l-443 -624q13 -1 36 -1q233 -8 335 -8h72v633zM707 1438h130q-7 -198 -10.5 -412.5t-3.5 -450.5h31q44 1 96.5 3t126.5 7q-15 -55 -21.5 -83.5t-10.5 -52.5q-56 3 -111.5 4.5t-110.5 1.5v-211q0 -118 25.5 -146t105.5 -28h27v-70q-69 4 -132.5 6t-113.5 2
q-42 0 -103 -2t-136 -6v70q6 0 18 -1t18 -1q80 0 107 36t27 170v76v105q-64 0 -152.5 1t-112.5 1q-29 0 -137.5 -2t-169.5 -2l-41 92l164 202t107 138l98 135l32 44q160 223 253 374z" />
    <glyph glyph-name="five" unicode="5" horiz-adv-x="1139" 
d="M965 1427q-20 -44 -35 -87.5t-25 -86.5q-96 -8 -179 -12t-157 -4q-36 0 -138 3q-25 1 -38 1l-67 -432q68 33 129.5 48t122.5 15q176 0 293.5 -117t117.5 -294q0 -203 -156.5 -346.5t-377.5 -143.5q-136 0 -236 53.5t-100 122.5q0 30 27.5 58t56.5 28q38 0 86 -52
q9 -10 14 -15q48 -50 94 -71t103 -21q132 0 216.5 98t84.5 256q0 142 -80.5 223.5t-218.5 81.5q-56 0 -109.5 -17t-103.5 -50l-80 34l90 717q130 -5 207 -7.5t127 -2.5q103 0 184.5 5t147.5 15z" />
    <glyph glyph-name="six" unicode="6" horiz-adv-x="1139" 
d="M314 652q-2 -16 -2.5 -33t-0.5 -50q0 -242 74.5 -369.5t214.5 -127.5q116 0 186 85.5t70 229.5q0 166 -78 265.5t-207 99.5q-58 0 -122.5 -25t-134.5 -75zM319 756q100 70 175.5 100.5t148.5 30.5q165 0 275 -124.5t110 -313.5q0 -209 -128 -343.5t-327 -134.5
q-201 0 -323.5 163t-122.5 437q0 374 201 622.5t489 248.5q76 0 116 -26.5t40 -76.5q0 -32 -18 -52.5t-46 -20.5q-10 0 -76 20.5t-122 20.5q-170 0 -273.5 -145t-118.5 -406z" />
    <glyph glyph-name="seven" unicode="7" horiz-adv-x="1139" 
d="M262 -8l321 628.5l302 622.5l-203 2.5t-156 1.5h-90q-142 0 -183.5 -31t-59.5 -124l-70 18q19 73 30.5 148.5t16.5 158.5q132 -5 220.5 -7.5t154.5 -2.5q125 0 249 2t248 6l29 -59q-95 -113 -264.5 -495t-331.5 -869h-213z" />
    <glyph glyph-name="eight" unicode="8" horiz-adv-x="1139" 
d="M500 678q-104 -67 -153.5 -144.5t-49.5 -171.5q0 -132 76 -214t198 -82q106 0 181 80.5t75 195.5t-73.5 191.5t-253.5 144.5zM672 776q168 -72 245.5 -166.5t77.5 -226.5q0 -170 -133.5 -292t-320.5 -122q-175 0 -296.5 109.5t-121.5 263.5q0 120 78.5 218t234.5 173
q-137 62 -203.5 148.5t-66.5 203.5q0 147 121 255t286 108q155 0 261 -94t106 -232q0 -108 -67 -194t-201 -152zM610 825q90 56 134 128.5t44 162.5q0 103 -65 170.5t-166 67.5q-94 0 -159.5 -67.5t-65.5 -162.5q0 -93 69 -167.5t209 -131.5z" />
    <glyph glyph-name="nine" unicode="9" horiz-adv-x="1139" 
d="M801 678q-86 -67 -166 -100t-158 -33q-161 0 -270 123t-109 309q0 204 124 336.5t317 132.5q212 0 332 -160t120 -444q0 -377 -197 -623t-489 -246q-74 0 -113.5 25t-39.5 72q0 32 18 49.5t51 17.5q12 0 70.5 -17.5t107.5 -17.5q180 0 280 144t122 432zM807 786
q0 282 -70.5 419.5t-214.5 137.5q-115 0 -182.5 -81.5t-67.5 -223.5q0 -161 77.5 -257.5t207.5 -96.5q59 0 121 25.5t129 76.5z" />
    <glyph glyph-name="colon" unicode=":" horiz-adv-x="569" 
d="M266 260l80 -59q33 -25 48.5 -45.5t15.5 -38.5q0 -24 -13.5 -44t-46.5 -44l-78 -58l-73 58q-36 26 -50 46t-14 42q0 19 10.5 35.5t49.5 48.5zM266 915l80 -59q33 -25 48.5 -45t15.5 -39q0 -24 -13.5 -44t-46.5 -44l-78 -57l-73 57q-36 26 -50 46t-14 42q0 19 10.5 35.5
t49.5 48.5z" />
    <glyph glyph-name="semicolon" unicode=";" horiz-adv-x="569" 
d="M266 252q82 -63 107.5 -100t25.5 -82q0 -74 -75.5 -178.5t-202.5 -202.5l-53 65q66 52 107 112t58 132q-56 35 -78 60t-22 51q0 19 13.5 38t60.5 58zM266 915l80 -59q33 -25 48.5 -45t15.5 -39q0 -24 -13.5 -44t-46.5 -44l-78 -57l-73 57q-36 26 -50 46t-14 42
q0 19 10.5 35.5t49.5 48.5z" />
    <glyph glyph-name="less" unicode="&#x3c;" horiz-adv-x="1706" 
d="M1442 1145v-127l-1000 -408l1000 -405v-129l-1178 483v103z" />
    <glyph glyph-name="equal" unicode="=" horiz-adv-x="1706" 
d="M254 477h1198v-117h-1198v117zM254 860h1198v-117h-1198v117z" />
    <glyph glyph-name="greater" unicode="&#x3e;" horiz-adv-x="1706" 
d="M264 1145l1178 -483v-103l-1178 -483v129l1000 405l-1000 408v127z" />
    <glyph glyph-name="question" unicode="?" horiz-adv-x="963" 
d="M295 240l70 -54q28 -21 40.5 -41t12.5 -43t-10 -40t-37 -37l-76 -60l-72 55q-28 22 -40.5 42t-12.5 42q0 23 10 40t39 38zM330 391l-76 1q1 16 1.5 36t0.5 59q0 58 -2.5 118.5t-7.5 123.5q193 46 301 142t108 221q0 98 -68 162.5t-171 64.5q-72 0 -151 -46t-97 -46
q-30 0 -50 21.5t-20 54.5q0 66 64 108.5t166 42.5q198 0 330.5 -118.5t132.5 -295.5q0 -137 -77 -231.5t-281 -193.5q-6 -3 -17 -8q-86 -40 -86 -169v-47z" />
    <glyph glyph-name="at" unicode="@" horiz-adv-x="2048" 
d="M1146 335q-173 -163 -242 -210t-116 -47q-63 0 -96 55t-33 162t32 213.5t91 198.5q78 120 181 184.5t215 64.5q27 0 55 -5t57 -15l127 53q-68 -285 -102.5 -464.5t-34.5 -254.5q0 -45 19.5 -68.5t58.5 -23.5q109 0 210 171.5t101 383.5q0 225 -140 357.5t-376 132.5
q-152 0 -292.5 -70t-252.5 -201q-108 -126 -166.5 -279t-58.5 -308q0 -279 172.5 -450t456.5 -171q205 0 408.5 122.5t357.5 340.5l37 -60q-165 -242 -383 -373.5t-453 -131.5q-327 0 -533 195t-206 503q0 177 73 355.5t201 312.5q135 142 308.5 219.5t357.5 77.5
q273 0 449.5 -163.5t176.5 -412.5q0 -145 -66 -280.5t-192 -247.5q-75 -68 -142.5 -101.5t-127.5 -33.5q-66 0 -101.5 47t-35.5 135q0 12 1.5 33.5t3.5 53.5zM1245 834q-35 22 -62.5 31t-54.5 9q-59 0 -114.5 -42.5t-100.5 -122.5q-41 -75 -68.5 -178t-27.5 -181t13 -107.5
t44 -29.5t100.5 53.5t188.5 169.5q17 74 36.5 167.5t45.5 230.5z" />
    <glyph glyph-name="A" unicode="A" horiz-adv-x="1479" 
d="M698 1239l-229 -598q19 0 55 -1q113 -3 154 -3q50 0 181 3q29 1 44 1zM653 1427h172l246.5 -725t183.5 -493q40 -95 69 -117t83 -22h20v-70q-78 4 -142.5 6t-108.5 2q-56 0 -123 -2t-142 -6v70h19q71 0 97 16.5t26 60.5q0 16 -4 35.5t-13 46.5l-98 306q-38 0 -104 1
q-120 3 -154 3q-68 0 -128.5 -0.5t-125.5 -2.5q-71 -179 -97 -261t-26 -117q0 -49 26 -68.5t93 -19.5h27v-70q-73 4 -136.5 6t-113.5 2q-40 0 -100 -2t-130 -6v69q71 2 112.5 28.5t72.5 88.5q56 117 198.5 468.5z" />
    <glyph glyph-name="B" unicode="B" horiz-adv-x="1274" 
d="M428 787q23 -2 49.5 -2.5t79.5 -0.5q57 0 105.5 2t93.5 7q73 52 110 117.5t37 144.5q0 127 -81 200.5t-222 73.5q-31 0 -71.5 -4t-91.5 -12q-3 -134 -5.5 -311t-3.5 -215zM430 130q58 -17 114 -25.5t109 -8.5q164 0 254 80t90 223q0 152 -101 225.5t-310 73.5
q-34 0 -68.5 -0.5t-89.5 -3.5q0 -42 -1 -123.5t-1 -119.5q0 -62 1 -131.5t3 -189.5zM76 65q7 -1 13.5 -1.5t19.5 -0.5q133 0 135 374q1 94 2 147l4 273q1 88 1.5 171t0.5 180q0 86 -32 119t-114 33h-8v70q64 -5 125.5 -7t124.5 -2q70 0 172 4.5t133 4.5q206 0 325.5 -91.5
t119.5 -246.5q0 -109 -58.5 -188.5t-193.5 -153.5q176 -34 263 -120t87 -227q0 -183 -145 -295t-387 -112q-44 0 -165 5t-200 5q-33 0 -91.5 -2t-131.5 -6v67z" />
    <glyph glyph-name="C" unicode="C" horiz-adv-x="1448" 
d="M1313 1382v-34q0 -70 5 -145.5t15 -158.5l-73 -12q-20 144 -136 224.5t-303 80.5q-249 0 -384.5 -152.5t-135.5 -432.5q0 -299 155.5 -483.5t403.5 -184.5q156 0 270.5 72t178.5 211l67 -33q-32 -65 -58 -132.5t-46 -135.5q-108 -49 -220 -74t-225 -25
q-332 0 -537.5 205.5t-205.5 540.5q0 330 217 537.5t561 207.5q102 0 215.5 -19t235.5 -57z" />
    <glyph glyph-name="D" unicode="D" horiz-adv-x="1599" 
d="M76 0v69q6 0 13 -0.5t20 -0.5q133 0 135 371q1 94 2 147l4 266q1 86 1.5 167.5t0.5 186.5q0 86 -32 119t-114 33h-8v69l122.5 -5.5t94.5 -2.5q110 0 242.5 8.5t155.5 8.5q372 0 586 -189t214 -514q0 -334 -214.5 -537.5t-573.5 -203.5q-53 0 -193 8t-227 8q-41 0 -100 -2
t-129 -6zM430 121q73 -16 143.5 -23.5t141.5 -7.5q282 0 432.5 154t150.5 440q0 305 -162 478t-450 173q-59 0 -120 -4.5t-125 -13.5q-6 -364 -8.5 -574t-2.5 -350v-272z" />
    <glyph glyph-name="E" unicode="E" horiz-adv-x="1298" 
d="M98 1427q175 -6 313 -9t238 -3q111 0 224.5 3t230.5 9q1 -75 6 -153.5t12 -157.5l-67 -6q-8 120 -74 162.5t-285 42.5q-56 0 -205 -3q-30 -1 -44 -1q-2 -120 -6 -294t-5 -226h31q59 0 147.5 -1.5t118.5 -1.5q145 0 191.5 27t50.5 100l63 -6q-7 -62 -10.5 -115t-3.5 -98
q0 -26 5 -112l3 -47l-65 -2v8q0 85 -49.5 115t-231.5 30h-178h-72q0 -49 -1 -135.5t-1 -124.5q0 -66 1 -137.5t4 -167.5q50 -6 113.5 -9t139.5 -3q251 0 330.5 48.5t126.5 186.5l72 -24q-30 -83 -53 -163t-40 -159q-157 6 -292 9t-244 3q-149 0 -480 -11l-36 -1v65
q7 -1 13.5 -1.5t19.5 -0.5q133 0 135 374q1 94 2 147l4 273q1 88 1.5 171t0.5 180q0 86 -32 119t-114 33h-8v67z" />
    <glyph glyph-name="F" unicode="F" horiz-adv-x="1198" 
d="M76 65q8 -1 15.5 -1.5t23.5 -0.5q80 0 108.5 52.5t28.5 234.5q0 30 -1 107t-1 127v272q0 55 1 172.5t1 179.5q0 85 -32.5 118.5t-113.5 33.5h-16v67q207 -5 335.5 -7.5t217.5 -2.5q97 0 209.5 2.5t251.5 7.5q0 -69 4.5 -145.5t13.5 -173.5l-69 -8q-7 127 -71 171t-286 44
q-78 0 -243 -4h-6q-2 -148 -6 -329.5t-5 -201.5h33q56 0 139 -1t113 -1q147 0 194.5 27t51.5 100l63 -4q-8 -75 -11 -123.5t-3 -89.5q0 -30 1.5 -71t4.5 -92l-66 -5v17q0 82 -49 111.5t-227 29.5h-172h-72v-389q0 -144 32 -181.5t130 -37.5h39v-70q-76 4 -149.5 6t-143.5 2
q-35 0 -106.5 -2t-161.5 -6v65z" />
    <glyph glyph-name="G" unicode="G" horiz-adv-x="1520" 
d="M1329 1380q2 -74 10 -150.5t23 -156.5l-76 -16q-28 142 -134 210t-300 68q-262 0 -406.5 -154t-144.5 -436q0 -303 165 -484t437 -181q57 0 115 11.5t123 35.5q3 77 4.5 131t1.5 88q0 171 -38 205.5t-167 34.5h-14v67q85 -4 157.5 -6t122.5 -2q73 0 136.5 2t121.5 6v-67
q-84 0 -109.5 -32.5t-25.5 -201.5v-104q0 -77 2 -119.5t6 -81.5l-99 -22q-259 -58 -392 -58q-347 0 -555.5 202t-208.5 536t224.5 543.5t582.5 209.5q108 0 217.5 -19.5t220.5 -58.5z" />
    <glyph glyph-name="H" unicode="H" horiz-adv-x="1626" 
d="M78 1427q71 -4 136 -6t118 -2q61 0 125 2t131 6v-69h-27q-82 0 -110.5 -43.5t-28.5 -231.5v-49v-246q65 -2 137.5 -3t202.5 -1q133 0 231.5 1t200.5 3v279q0 199 -28.5 245t-110.5 46h-27v69q67 -4 131.5 -6t126.5 -2q53 0 117 2t135 6v-69q-5 0 -14 1t-13 1
q-77 0 -105 -48.5t-28 -207.5q0 -30 1 -114t1 -138v-266q0 -54 -1 -138.5t-1 -115.5q0 -164 28 -214t105 -50q14 0 21.5 0.5t13.5 0.5v-69q-79 4 -146.5 6t-113.5 2q-54 0 -121.5 -2t-144.5 -6v70q6 0 18 -1t17 -1q82 0 110.5 45t28.5 217v121v219h-13q-257 4 -376 4
q-90 0 -172 -2h-12q-43 0 -93 -0.5t-106 -1.5v-238v-80q0 -192 29 -238t112 -46q5 0 17 1t18 1v-70q-77 4 -144.5 6t-121.5 2q-46 0 -113 -2t-147 -6v69q6 0 13.5 -0.5t20.5 -0.5q78 0 106 50t28 214q0 31 -1 115.5t-1 138.5v266q0 50 1 127.5t1 105.5q0 173 -28.5 224
t-107.5 51q-3 0 -12 -1t-14 -1v69z" />
    <glyph glyph-name="I" unicode="I" horiz-adv-x="696" 
d="M76 1427q70 -4 139 -6t135 -2q56 0 125 2t146 6v-69h-17q-65 0 -97.5 -15t-45.5 -50q-8 -23 -11.5 -74.5t-3.5 -167.5v-199v-498q0 -118 5.5 -166t17.5 -71q13 -25 46.5 -36t94.5 -11h21v-70q-86 4 -159 6t-122 2q-58 0 -131 -2t-153 -6v70h20q62 0 95 11t46 36
q14 27 19.5 88.5t5.5 222.5v158v391q0 157 -4 223.5t-13 92.5q-12 35 -43.5 50t-97.5 15h-18v69z" />
    <glyph glyph-name="J" unicode="J" horiz-adv-x="680" 
d="M68 1427q11 0 35 -1q159 -7 225 -7q64 0 221 7q25 1 37 1l-1 -69q-65 -2 -93.5 -16t-40.5 -50q-11 -28 -15 -124.5t-4 -442.5q0 -118 2 -272t2 -191q0 -172 -22.5 -265t-75.5 -171q-66 -95 -154 -144t-194 -49q-82 0 -122 25.5t-40 77.5q0 38 23 67t55 29
q24 0 83.5 -31.5t96.5 -31.5q81 0 116.5 78t35.5 266v1077q0 101 -30.5 134.5t-119.5 33.5h-20v69z" />
    <glyph glyph-name="K" unicode="K" horiz-adv-x="1419" 
d="M874 1427q64 -4 127 -6t123 -2q43 0 99 2t123 6v-67h-9q-114 0 -219 -99l-10 -10l-496 -475l457 -459l51 -51q193 -198 283 -198q11 0 17 0.5t9 1.5l1 -70q-16 1 -43 2q-104 6 -142 6t-86.5 -2t-103.5 -6l1.5 4.5t0.5 5.5q0 52 -319 369l-314 317l385 416l71 76
q101 109 101 129q0 22 -19.5 32.5t-62.5 10.5h-25v67zM78 1427q71 -4 136 -6t118 -2q62 0 126 2t130 6v-67h-13q-90 0 -120.5 -45t-30.5 -232v-731q0 -196 29 -240t116 -44q5 0 16 1t17 1v-70q-75 4 -143.5 6t-126.5 2q-46 0 -113 -2t-147 -6v69q6 0 13 -0.5t19 -0.5
q79 0 107.5 55.5t28.5 247.5q0 26 -1 98t-1 117v266q0 50 1 127.5t1 105.5q0 173 -28.5 224t-107.5 51q-3 0 -12 -1t-14 -1v69z" />
    <glyph glyph-name="L" unicode="L" horiz-adv-x="1171" 
d="M98 1430q107 -6 162.5 -8.5t89.5 -2.5q65 0 127.5 2.5t124.5 7.5v-69h-31q-79 0 -107 -54.5t-28 -250.5v-199l3 -733q56 -3 106.5 -4.5t95.5 -1.5q268 0 345.5 49.5t123.5 191.5l72 -22q-31 -86 -55 -169t-42 -167q-166 5 -305.5 7.5t-261.5 2.5q-86 0 -192 -2.5
t-250 -7.5v65q7 -1 13.5 -1.5t19.5 -0.5q135 1 136 385q0 87 1 136l2 272q0 44 1 113t1 96q0 184 -29.5 239.5t-114.5 55.5h-8v70z" />
    <glyph glyph-name="M" unicode="M" horiz-adv-x="1864" 
d="M932 350l289 656l12 27q143 323 143 382q0 2 -1 6t-1 6q59 -3 106.5 -4.5t84.5 -1.5q35 0 81 1.5t101 4.5v-69h-12q-87 0 -119.5 -30t-32.5 -107q0 -30 4 -134t10 -225l17 -281l1 -27q22 -374 34 -423q6 -29 37 -45t81 -16h25v-70q-79 4 -147 6t-113 2q-53 0 -119 -2
t-141 -6v72q9 0 23 -1t20 -1q76 0 105.5 27t29.5 98q0 33 -1 65t-3 66l-39 860l-410 -943q-1 -2 -4 -9q-48 -99 -71 -211h-66q-14 62 -70 190l-4 9l-403 913l-17 -294q-28 -464 -28 -581v-10q0 -127 28.5 -153.5t116.5 -26.5h21v-70q-65 4 -124.5 6t-115.5 2q-40 0 -99.5 -2
t-127.5 -6v70h28q57 0 85 14t44 49q19 41 39 332q5 80 9 127l18 242v3q27 359 27 408q0 63 -30.5 88t-115.5 25h-16v69q8 0 26 -1q116 -7 162 -7q35 0 133 6q31 2 47 2v-6q0 -89 339 -840z" />
    <glyph glyph-name="N" unicode="N" horiz-adv-x="1655" 
d="M61 1427q47 -4 91.5 -6t87.5 -2q32 0 75 2t93 6q13 -33 36 -68t58 -77l825 -976q-3 152 -6 403q-8 527 -18 567q-12 46 -42.5 64t-99.5 18h-31v69q12 0 36 -1q142 -7 200 -7q59 0 206 7q21 1 32 1l-1 -69q-6 1 -13 1.5t-19 0.5q-134 0 -136 -373q-1 -94 -1 -147l-4 -266
q-2 -59 -2.5 -121.5t-0.5 -171.5q0 -121 3 -188.5t10 -108.5h-111q-17 40 -121 160l-10 12l-858 1009v-23q6 -936 20 -990q12 -46 42.5 -64t97.5 -18h30v-70q-15 1 -44 2q-140 6 -191 6q-49 0 -108.5 -2t-125.5 -6v69q6 0 13.5 -0.5t19.5 -0.5q134 0 136 371q1 94 1 147
l5 266q1 86 1.5 167.5t0.5 186.5q0 86 -33 119t-117 33h-27v69z" />
    <glyph glyph-name="O" unicode="O" horiz-adv-x="1642" 
d="M1327 684q0 291 -150 477.5t-378 186.5q-219 0 -351.5 -160t-132.5 -428q0 -298 150.5 -489t376.5 -191q218 0 351.5 164.5t133.5 439.5zM821 1460q152 0 271.5 -43.5t216.5 -134.5q116 -110 177.5 -255t61.5 -308q0 -166 -65 -314t-185 -255q-96 -86 -223.5 -134.5
t-255.5 -48.5q-160 0 -294.5 59t-237.5 175q-94 106 -143.5 238t-49.5 278q0 158 59.5 298.5t172.5 246.5q102 96 230 147t265 51z" />
    <glyph glyph-name="P" unicode="P" horiz-adv-x="1206" 
d="M432 692q42 -6 76 -9t67 -3q188 0 285.5 83.5t97.5 244.5q0 145 -96 231t-260 86q-45 0 -85.5 -3.5t-79.5 -10.5q-3 -135 -4 -272.5t-1 -346.5zM76 65q8 -1 15.5 -1.5t23.5 -0.5q80 0 108.5 54.5t28.5 242.5q0 28 -1 103t-1 121v626q0 86 -31 118t-113 32h-8v70
q68 -5 135.5 -7t133.5 -2q74 0 176.5 4.5t132.5 4.5q219 0 350 -109t131 -287q0 -211 -143.5 -328.5t-405.5 -117.5q-26 0 -70.5 3t-105.5 9v-301q0 -154 31.5 -193.5t126.5 -39.5q3 0 10.5 1t11.5 1q5 0 7.5 -0.5t4.5 -1.5l1 -66q-73 4 -147 6t-146 2q-35 0 -102.5 -2
t-153.5 -6v65z" />
    <glyph glyph-name="Q" unicode="Q" horiz-adv-x="1642" 
d="M1069 25l229 -138q168 -99 267 -135.5t188 -36.5q29 0 68 5t94 16l12 -62q-142 -40 -210.5 -52.5t-121.5 -12.5q-213 0 -712 338l-41 28q-7 0 -21.5 -1t-21.5 -1q-306 0 -505.5 210t-199.5 530q0 160 59.5 300t172.5 249q100 96 228 147t267 51q150 0 269.5 -44
t216.5 -134q117 -111 179 -256t62 -307q0 -248 -125 -430t-354 -264zM1327 684q0 291 -150 477.5t-378 186.5q-219 0 -351.5 -160t-132.5 -428q0 -301 151 -489.5t384 -188.5q214 0 345.5 164.5t131.5 437.5z" />
    <glyph glyph-name="R" unicode="R" horiz-adv-x="1440" 
d="M432 705q48 -5 90.5 -7t75.5 -2q28 0 64 1.5t78 5.5q96 58 141 134.5t45 182.5q0 139 -90 223t-242 84q-41 0 -80 -3.5t-77 -10.5q-3 -124 -4 -255t-1 -353zM76 65q7 -1 13.5 -1.5t19.5 -0.5q133 0 135 374q1 94 2 147l4 273q1 88 1.5 171t0.5 180q0 86 -32 119t-114 33
h-8v70q67 -5 132.5 -7t127.5 -2q67 0 166.5 4.5t132.5 4.5q205 0 336 -108t131 -271q0 -121 -65.5 -215.5t-196.5 -161.5l187 -283l30 -46q194 -296 318 -296h10v-57q-14 -1 -42 -4q-65 -6 -95 -6q-106 0 -167.5 28.5t-121.5 110.5q-10 13 -110.5 178t-202.5 311
q-38 -4 -81 -6t-95 -2h-60v-307q0 -150 31 -189.5t123 -39.5q3 0 8 1t8 1q4 0 6.5 -1t3.5 -1v-66q-71 4 -141 6t-139 2q-37 0 -104 -2t-152 -6v65z" />
    <glyph glyph-name="S" unicode="S" horiz-adv-x="1108" 
d="M940 1384q0 -74 8.5 -146t26.5 -142l-78 -15q-17 124 -95.5 184t-221.5 60q-132 0 -214.5 -64t-82.5 -165q0 -166 352 -284q47 -15 72 -24q161 -56 237 -143.5t76 -216.5q0 -199 -151 -322.5t-400 -123.5q-95 0 -185.5 15.5t-183.5 48.5q1 10 1.5 23.5t0.5 39.5
q0 71 -8 140t-24 138l90 21q17 -164 103 -240t255 -76q148 0 241 74.5t93 191.5q0 166 -290 258q-41 13 -64 21q-201 65 -288 159t-87 240q0 172 136 287t341 115q75 0 152 -12t188 -42z" />
    <glyph glyph-name="T" unicode="T" horiz-adv-x="1292" 
d="M334 70h35q71 0 101 17.5t42 64.5q9 31 12.5 225t3.5 604v319h-202q-147 0 -198.5 -39.5t-76.5 -166.5l-65 14q19 87 29 171t10 165q30 -19 121.5 -27t320.5 -8h244q304 0 391.5 7.5t122.5 27.5q0 -10 -1 -31.5t-1 -32.5q0 -63 5.5 -130t16.5 -138l-63 -12
q-12 113 -61.5 154t-208.5 46h-189q-1 -57 -2 -161q-2 -273 -2 -367q0 -355 4.5 -481t15.5 -157q13 -36 43 -50t92 -14h35v-70q-83 4 -156.5 6t-131.5 2q-51 0 -125.5 -2t-161.5 -6v70z" />
    <glyph glyph-name="U" unicode="U" horiz-adv-x="1612" 
d="M598 1427v-69q-6 0 -17 1t-16 1q-79 0 -107 -52t-28 -247v-158v-207q0 -162 10 -239t33 -127q49 -108 144.5 -164.5t230.5 -56.5q101 0 177 29t130 89t76 147t22 290q0 244 -5.5 410.5t-14.5 201.5q-14 46 -43.5 64t-95.5 18h-15v69q12 0 35 -1q138 -7 197 -7q58 0 196 7
q24 1 35 1v-69h-12q-59 0 -88.5 -15t-42.5 -50q-11 -29 -16 -152.5t-5 -399.5v-100q0 -158 -12 -241.5t-39 -147.5q-56 -133 -193 -209t-323 -76q-129 0 -237.5 38t-184.5 110q-83 76 -118 179.5t-35 289.5q0 72 2 235.5t2 255.5v31q0 172 -28.5 212t-111.5 40h-18v69
q71 -4 135 -6t117 -2q64 0 130 2t134 6z" />
    <glyph glyph-name="V" unicode="V" horiz-adv-x="1468" 
d="M14 1427q75 -4 142 -6t118 -2q64 0 130.5 2t136.5 6l-1 -63q-84 -7 -111.5 -22t-27.5 -52q0 -28 10.5 -70.5t37.5 -117.5l301 -842q241 605 303.5 784.5t62.5 235.5q0 46 -24.5 63t-112.5 21v63q60 -4 118.5 -6t114.5 -2q48 0 107 2t123 6v-63h-15q-110 0 -187 -194
q-17 -44 -28 -68l-363 -881t-85 -237h-123q0 24 -93 299t-225 623l-26 71q-145 389 -256 389q-10 0 -15.5 -0.5t-11.5 -1.5v63z" />
    <glyph glyph-name="W" unicode="W" horiz-adv-x="2124" 
d="M717 250l307 764l-61 196q-32 100 -59 125t-85 25q-16 0 -24.5 -0.5t-15.5 -1.5l-1 69q92 -5 148 -7.5t96 -2.5q38 0 97.5 2.5t160.5 7.5v-69h-27q-72 0 -95 -13.5t-23 -50.5q0 -22 7.5 -54t35.5 -116l284 -874l106 302q234 664 234 728q0 45 -24 61.5t-99 16.5h-26v69
q63 -4 120.5 -6t104.5 -2q54 0 110.5 2t114.5 6v-69h-16q-28 0 -47.5 -5t-34.5 -16q-32 -25 -177 -412l-44 -118l-84 -221l-98 -260q-110 -289 -121 -342h-117q-14 52 -43 141l-14 42l-232 697l-270 -671q-3 -8 -12 -30q-42 -97 -64 -179h-117q-7 50 -118 354l-82 227
l-109 299l-69 201q-101 297 -185 297q-5 0 -11.5 -1t-18.5 -3l-1 69q64 -4 121 -6t105 -2q57 0 117 2t122 6v-69q-72 0 -95 -13t-23 -51q0 -41 49 -180l4 -10z" />
    <glyph glyph-name="X" unicode="X" horiz-adv-x="1456" 
d="M92 1427q69 -4 131 -6t113 -2q61 0 125 2t131 6v-69h-37q-36 0 -56 -11t-20 -30q0 -17 20 -55t74 -121l177 -271l153 222q80 115 103.5 156.5t23.5 62.5q0 23 -23 35t-67 12h-20v69q62 -4 118.5 -6t100.5 -2q53 0 108.5 2t114.5 6l-1 -69q-5 1 -10.5 1.5t-17.5 0.5
q-92 0 -225 -184l-49 -68l-248 -330l344 -504q91 -135 137 -170.5t101 -35.5q10 0 15 0.5t9 0.5v-69q-78 4 -146.5 6t-123.5 2q-45 0 -112 -2t-146 -6v70h26q52 0 76.5 12t24.5 37q0 26 -57 110l-9 13l-258 383l-176 -252q-82 -117 -115.5 -175t-33.5 -81q0 -25 24.5 -37
t73.5 -12q6 0 17.5 1t17.5 1v-70q-73 4 -134.5 6t-103.5 2q-49 0 -111.5 -2t-132.5 -6v69q5 0 11.5 -0.5t17.5 -0.5q100 0 234 180l1 1l349 466l-320 483q-3 5 -11 17q-95 143 -189 143h-19v69z" />
    <glyph glyph-name="Y" unicode="Y" horiz-adv-x="1350" 
d="M18 1427q74 -4 139 -6t115 -2q54 0 116 2t130 6v-69h-14q-55 0 -84 -11.5t-29 -33.5q0 -24 49 -108l21 -36l241 -430q164 263 246 406t82 166q0 24 -24.5 35.5t-79.5 11.5h-17v69q60 -4 114 -6t95 -2q51 0 104 2t109 6v-69q-2 1 -5 1.5t-9 0.5h-12q-89 0 -231 -228
l-70 -112l-252 -385l4 -357q2 -139 32 -173.5t119 -34.5h35v-70q-83 4 -157.5 6t-133.5 2q-50 0 -124.5 -2t-161.5 -6v70q7 0 21 -1t20 -1q87 0 118 40t33 166l4 355l-323 545q-9 13 -23 38q-89 150 -162 150q-5 0 -12.5 -1l-21.5 -3z" />
    <glyph glyph-name="Z" unicode="Z" horiz-adv-x="1366" 
d="M156 1427q83 -9 193.5 -13.5t305.5 -4.5h119h119q121 0 209 4.5t168 13.5l28 -55q-38 -35 -76.5 -78.5t-86.5 -107.5l-790 -1053q63 -1 131.5 -1.5t191.5 -0.5q190 0 290.5 5t149.5 16q57 11 100 65.5t80 163.5l68 -21q-32 -95 -54.5 -184t-35.5 -176q-114 11 -267.5 17
t-355.5 6h-76q-168 0 -280.5 -5.5t-214.5 -17.5l-33 59q53 44 139 159l17 22l790 1060h-336q-289 0 -374 -43t-107 -165l-66 18q24 75 37 153.5t17 163.5z" />
    <glyph glyph-name="bracketleft" unicode="[" horiz-adv-x="858" 
d="M289 1538q49 -4 99.5 -6t133.5 -2h260v-86h-57q-53 0 -121.5 -4t-159.5 -13l-14 -1675q62 -10 125.5 -15t130.5 -5q19 0 39.5 0.5t42.5 1.5v-86h-238q-44 0 -108.5 -1.5t-146.5 -4.5q7 352 11.5 661t4.5 549q0 274 -0.5 417t-1.5 269z" />
    <glyph glyph-name="backslash" unicode="\" horiz-adv-x="944" 
d="M61 1559l353 -676.5l551 -1023.5l-107 -49l-715 1348l-188 351z" />
    <glyph glyph-name="bracketright" unicode="]" horiz-adv-x="858" 
d="M580 1538q-6 -389 -8.5 -578.5t-2.5 -306.5q0 -193 1 -454.5t3 -556.5q-112 3 -190.5 4.5t-126.5 1.5h-176v87q18 0 39 -1.5t24 -1.5q85 0 265 19l11 1l3 1675q-45 3 -121 9q-118 8 -151 8h-64v86h197q105 0 170 2t127 6z" />
    <glyph glyph-name="asciicircum" unicode="^" horiz-adv-x="2048" 
d="M934 1462h178l520 -565h-92l-518 436l-520 -436h-90z" />
    <glyph glyph-name="underscore" unicode="_" horiz-adv-x="1024" 
d="M0 -365h1024v-118h-1024v118z" />
    <glyph glyph-name="grave" unicode="`" horiz-adv-x="1024" 
d="M399 1550l265 -405l-76 -25l-336 340z" />
    <glyph glyph-name="a" unicode="a" horiz-adv-x="985" 
d="M961 145l28 -63q-75 -54 -137 -83.5t-100 -29.5q-64 0 -96 37.5t-35 113.5q-109 -73 -181 -104.5t-129 -31.5q-101 0 -169 76t-68 186q0 187 403 282l148 35q0 17 1 49q3 66 3 86q0 104 -43 153.5t-131 49.5q-86 0 -135.5 -31.5t-49.5 -85.5q0 -5 1 -13.5t1 -12.5
q0 -31 -30 -51.5t-72 -20.5q-36 0 -53 12t-17 37q0 80 135 178.5t279 98.5q139 0 211 -76.5t72 -224.5q0 -80 -9.5 -246t-9.5 -252q0 -65 14.5 -88t51.5 -23q16 0 41.5 9.5t75.5 33.5zM620 483l-57 -15q-325 -89 -325 -210q0 -66 42 -107.5t111 -41.5q42 0 97 22t128 70z
" />
    <glyph glyph-name="b" unicode="b" horiz-adv-x="1139" 
d="M358 131q46 -24 92 -35.5t99 -11.5q166 0 261 103.5t95 285.5q0 178 -85.5 288.5t-221.5 110.5q-57 0 -118 -19t-136 -60q-1 -87 -1.5 -164.5t-0.5 -143.5q0 -152 4 -236t12 -118zM356 1550l-1 -36q-15 -392 -15 -574v-66q103 69 181 99.5t151 30.5q165 0 284 -136.5
t119 -330.5q0 -246 -157 -398.5t-418 -152.5q-86 0 -168 11t-162 34q6 335 9 531.5t3 254.5v133q0 52 1 132t1 108q0 132 -15.5 174.5t-57.5 42.5q-10 0 -24.5 -1.5t-34.5 -4.5l-11 63q77 16 156 37t159 49z" />
    <glyph glyph-name="c" unicode="c" horiz-adv-x="915" 
d="M829 197l50 -76q-97 -74 -191 -112t-178 -38q-196 0 -320 140.5t-124 359.5q0 227 157 384t383 157q116 0 179 -32.5t63 -90.5q0 -42 -25.5 -72.5t-58.5 -30.5q-11 0 -92.5 50.5t-155.5 50.5q-130 0 -206.5 -93.5t-76.5 -254.5q0 -203 92.5 -316.5t256.5 -113.5
q61 0 121.5 21t125.5 67z" />
    <glyph glyph-name="d" unicode="d" horiz-adv-x="1151" 
d="M799 821q-67 38 -127 56t-121 18q-154 0 -238 -96t-84 -271q0 -186 82.5 -295.5t220.5 -109.5q55 0 118.5 21t142.5 65zM983 1550l-1 -18q-12 -355 -19 -686l-2 -156q-2 -55 -3.5 -146.5t-1.5 -201.5v-39q0 -156 11 -193.5t43 -37.5q19 0 39.5 4t42.5 12l16 -63
q-70 -27 -137 -40.5t-135 -13.5l-29 1q-7 43 -10.5 79.5t-3.5 69.5q-114 -73 -188 -101t-144 -28q-175 0 -285 132.5t-110 344.5q0 236 141 381t366 145q51 0 107.5 -9.5t122.5 -29.5q0 9 1 27q5 175 5 315q0 63 -19.5 89t-64.5 26q-10 0 -25 -2.5t-41 -7.5l-12 65
q74 13 157 33.5t179 48.5z" />
    <glyph glyph-name="e" unicode="e" horiz-adv-x="999" 
d="M930 559h-488q-57 0 -105 -2t-89 -6v-37q0 -196 90.5 -303t255.5 -107q73 0 144 24.5t151 76.5l39 -64q-103 -84 -205.5 -127t-202.5 -43q-194 0 -320 138.5t-126 355.5q0 231 132 388t322 157q177 0 282 -118t120 -333zM745 664q-30 123 -91 188.5t-146 65.5
q-96 0 -164.5 -77t-89.5 -208q198 0 311.5 7t179.5 24z" />
    <glyph glyph-name="f" unicode="f" horiz-adv-x="655" 
d="M377 1044l2 -83h67q52 0 102 1.5t97 3.5q0 -4 -1 -13q-3 -64 -3 -89l-12 1q-139 7 -203 7h-43q0 -107 -2 -233v-45q0 -229 3 -326t11 -131q10 -40 41.5 -54.5t120.5 -14.5v-68q-98 6 -151 8t-89 2q-32 0 -83 -2t-160 -8v68h26q69 0 93 42t24 183q0 27 -1 108.5t-1 135.5
q0 74 -0.5 156.5t-1.5 174.5h-66q-2 0 -26.5 -1.5t-46.5 -2.5v74q43 2 77 12t62 29v18q0 254 120 402.5t326 148.5q94 0 146.5 -31t52.5 -85q0 -36 -20.5 -60t-49.5 -24q-18 0 -93.5 39.5t-123.5 39.5q-105 0 -149.5 -80t-44.5 -284v-19z" />
    <glyph glyph-name="g" unicode="g" horiz-adv-x="1057" 
d="M506 934q-107 0 -166 -66t-59 -186q0 -132 57.5 -205.5t161.5 -73.5q105 0 165 66.5t60 183.5q0 135 -57 208t-162 73zM324 14q-49 -55 -72 -100t-23 -86q0 -93 83.5 -157t209.5 -64q143 0 247.5 79.5t104.5 178.5q0 81 -51 114t-196 33q-15 0 -66 1t-86 1h-151zM743 940
q67 0 135.5 2t137.5 6l-5 -100q-44 5 -96.5 7.5t-121.5 2.5q47 -36 71.5 -87.5t24.5 -113.5q0 -135 -112.5 -232t-276.5 -97q-17 0 -48 2.5l-44 3.5q-27 -18 -51 -37.5t-44 -40.5q15 -28 34.5 -51.5t45.5 -44.5q31 0 89 1q140 3 184 3q181 0 260.5 -55t79.5 -177
q0 -78 -43.5 -157.5t-122.5 -145.5q-81 -67 -186.5 -105t-209.5 -38q-155 0 -259.5 82t-104.5 199q0 68 43.5 133.5t152.5 154.5q-45 41 -74.5 84t-47.5 94q36 34 79 64.5t95 60.5q-101 32 -158 107t-57 174q0 155 114.5 262t286.5 107q63 0 118 -16.5t111 -51.5z" />
    <glyph glyph-name="h" unicode="h" horiz-adv-x="1200" 
d="M372 1546q-4 -168 -7 -343t-4 -359q112 85 200 125.5t160 40.5q147 0 221 -83t74 -249q0 -1 -1 -88t-1 -174q0 -37 -1 -92.5t-1 -75.5q0 -112 20 -146t76 -34q3 0 11.5 1t13.5 1v-70q-91 6 -137 8t-76 2q-48 0 -103.5 -2.5t-115.5 -7.5l-1 70h15q128 0 131 234v20l2 215
v41q0 182 -43 241.5t-148 59.5q-57 0 -126.5 -28t-163.5 -89l-5 -356q0 -30 -1 -77t-1 -65q0 -124 20 -161t77 -37q4 0 12.5 1t13.5 1v-70q-63 5 -118.5 7.5t-96.5 2.5q-39 0 -90 -2t-133 -7v69q6 0 17 -1t16 -1q69 0 93 36.5t24 212.5v74l4 752v172q0 43 -18.5 64.5
t-55.5 21.5q-14 0 -46 -6q-8 -2 -11 -2l-15 65q82 16 161 37.5t158 50.5z" />
    <glyph glyph-name="i" unicode="i" horiz-adv-x="608" 
d="M395 1022q-1 -38 -3 -108q-13 -402 -13 -566v-106q0 -116 22 -146t86 -30q6 0 16 1t15 1v-68q-85 6 -137 8t-88 2q-32 0 -81.5 -2t-148.5 -8v70h25q124 0 125 244v55l4 247q0 27 1 68t1 55q0 81 -15.5 107t-56.5 26q-8 0 -23.5 -1.5t-33.5 -3.5l-10 63q79 15 157.5 38
t157.5 54zM287 1493l71 -53q28 -21 41 -42t13 -44t-10.5 -39.5t-39.5 -38.5l-75 -57l-70 55q-29 23 -42 42.5t-13 41.5t10 38.5t41 39.5z" />
    <glyph glyph-name="j" unicode="j" horiz-adv-x="561" 
d="M375 1022q-6 -154 -9.5 -312t-3.5 -339v-140q0 -251 -8 -349t-28 -150q-47 -123 -151 -195t-234 -72h-25l4 80q151 13 215 116t64 343v723q0 95 -15 120t-55 25q-9 0 -21.5 -1.5l-29.5 -3.5l-12 63q86 16 162.5 39t146.5 53zM266 1493l72 -53q27 -21 40 -42t13 -44
t-10 -39.5t-39 -38.5l-76 -57l-69 55q-30 23 -43 42.5t-13 41.5t10.5 38.5t41.5 39.5z" />
    <glyph glyph-name="k" unicode="k" horiz-adv-x="1118" 
d="M781 0l-1 20q0 40 -60 106l-24 26l-338 380l147 135q202 184 202 220q0 12 -19 19t-53 7h-14v68q63 -3 110.5 -4.5t81.5 -1.5q45 0 97 1.5t109 4.5l1 -67q-4 0 -9.5 0.5t-15.5 0.5q-107 0 -367 -239l-104 -94l355 -382l29 -33q85 -99 163 -99q11 0 17.5 0.5t11.5 0.5
l-3 -69q-58 5 -100.5 7.5t-76.5 2.5q-16 0 -40.5 -1.5t-98.5 -8.5zM51 70h15q52 0 78 14.5t38 50.5q15 51 18 472q1 39 1 59l2 194q1 65 3.5 177.5t2.5 156.5q0 123 -17.5 165t-64.5 42q-14 0 -46 -6q-8 -2 -11 -2l-15 65q82 16 161 37.5t158 50.5q-7 -349 -11.5 -623
t-4.5 -372v-361q0 -81 24.5 -100t106.5 -20v-70q-69 6 -124 9t-97 3q-64 0 -114.5 -3t-102.5 -9v70z" />
    <glyph glyph-name="l" unicode="l" horiz-adv-x="598" 
d="M377 1546q-6 -186 -7 -484q-1 -115 -1 -165l-2 -205v-155v-209v-82q0 -115 25.5 -145.5t96.5 -30.5h23v-70q-69 5 -129.5 7.5t-106.5 2.5q-47 0 -103 -2.5t-117 -7.5l-1 70q7 0 17.5 -1t15.5 -1q70 0 93.5 36.5t23.5 212.5v74l4 752v172q0 43 -18.5 64.5t-55.5 21.5
q-14 0 -52 -7q-5 -1 -7 -1l-15 65q84 14 162.5 36t153.5 52z" />
    <glyph glyph-name="m" unicode="m" horiz-adv-x="1802" 
d="M370 1022q-4 -41 -7 -79.5t-4 -77.5q136 86 212 115.5t146 29.5q85 0 144.5 -39t101.5 -123q134 89 219 125.5t153 36.5q146 0 212.5 -89t66.5 -288v-21l-4 -329q0 -50 -2 -91v-4q0 -72 22 -95t88 -23h23v-70q-97 6 -145 8t-78 2q-32 0 -79.5 -2t-135.5 -8v70
q6 -1 15 -1.5t25 -0.5q64 0 85.5 41.5t21.5 201.5v146q0 36 1 95t1 83q0 128 -46.5 188t-143.5 60q-47 0 -112 -25t-161 -80l-8 -493v-82q0 -90 22.5 -111.5t92.5 -21.5h12v-69l-132 6.5t-91 2.5t-89 -2.5t-107 -7.5l-1 70q70 0 91 11.5t30 53.5q7 33 10.5 167t3.5 343
q0 125 -44.5 181.5t-141.5 56.5q-47 0 -112.5 -24.5t-157.5 -76.5q-6 -163 -8.5 -283t-2.5 -218q0 -153 20.5 -183t86.5 -30q5 0 15.5 1t17.5 1l-1 -70q-62 5 -120 7.5t-109 2.5q-44 0 -98 -2.5t-114 -7.5l-1 70h19q125 0 126 243q0 36 1 56l2 245v99q0 98 -15 128.5
t-55 30.5q-8 0 -20.5 -2t-26.5 -6l-12 62q74 20 149 44t149 52z" />
    <glyph glyph-name="n" unicode="n" horiz-adv-x="1196" 
d="M377 1022l-12 -168q113 82 196.5 119t153.5 37q147 0 221 -83t74 -249q0 -1 -1 -88t-1 -174q0 -37 -1 -92.5t-1 -75.5q0 -112 20 -146t76 -34q3 0 11.5 1t12.5 1v-70q-90 6 -136 8t-77 2q-48 0 -104 -2.5t-114 -7.5l-1 70h15q128 0 130 234q1 13 1 20l2 215v36
q0 185 -43 245.5t-148 60.5q-58 0 -128.5 -27.5t-149.5 -81.5q-4 -104 -6 -196.5t-2 -167.5v-138q0 -132 19.5 -167t76.5 -35q4 0 12.5 1t13.5 1v-70q-86 6 -135.5 8t-81.5 2q-30 0 -79 -2t-137 -8l-1 70h19q125 0 126 243q0 36 1 56l2 245v99q0 98 -15 128.5t-55 30.5
q-8 0 -20.5 -2t-26.5 -6l-12 62q75 14 150.5 38t154.5 58z" />
    <glyph glyph-name="o" unicode="o" horiz-adv-x="1128" 
d="M549 905q-134 0 -215.5 -97.5t-81.5 -262.5q0 -211 90.5 -342t235.5 -131q140 0 223.5 104t83.5 283q0 196 -94.5 321t-241.5 125zM575 1010q211 0 349.5 -141.5t138.5 -350.5q0 -230 -146 -387.5t-360 -157.5t-351.5 144t-137.5 364t149.5 374.5t357.5 154.5z" />
    <glyph glyph-name="p" unicode="p" horiz-adv-x="1147" 
d="M344 145q60 -29 120 -45t114 -16q148 0 232.5 97.5t84.5 271.5q0 188 -83 300.5t-218 112.5q-58 0 -121.5 -19t-122.5 -54q-4 -146 -6 -276t-2 -238q0 -19 1 -63.5t1 -70.5zM358 1034l-8 -160q91 63 169.5 92t154.5 29q165 0 276 -131.5t111 -326.5q0 -254 -141.5 -397.5
t-391.5 -143.5q-46 0 -93 9.5t-93 27.5v-357q0 -118 173 -120h1v-72q-66 5 -127.5 7.5t-116.5 2.5q-33 0 -86 -2t-159 -8v72q65 0 88 6.5t35 23.5q26 45 28 408v117l2 227v280v50q0 124 -14.5 155t-56.5 31q-10 0 -24 -2t-30 -6l-10 61q85 24 162.5 55.5t150.5 71.5z" />
    <glyph glyph-name="q" unicode="q" horiz-adv-x="1143" 
d="M782 821q-65 40 -124.5 59t-118.5 19q-143 0 -224.5 -97t-81.5 -270q0 -182 91.5 -299.5t228.5 -117.5q47 0 106.5 19.5t128.5 58.5q3 86 4 164.5t1 154.5q0 120 -2.5 185.5t-8.5 123.5zM966 1019q-4 -166 -7 -333t-5 -344v-225v-133q0 -26 -1 -65t-1 -52v-123
q0 -126 20 -160.5t77 -34.5q15 0 23 0.5t17 1.5l1 -65q-16 0 -46 1q-155 3 -215 3q-29 0 -128 -2q-58 -1 -93 -2v65h45q62 0 86 12.5t35 45.5q13 39 16 439q0 41 1 63q-98 -67 -168.5 -94t-141.5 -27q-183 0 -299 130.5t-116 336.5q0 234 145 386t369 152q60 0 125.5 -13.5
t142.5 -43.5q36 19 65.5 39.5t52.5 41.5z" />
    <glyph glyph-name="r" unicode="r" horiz-adv-x="799" 
d="M375 1022q-7 -68 -11 -137.5t-6 -147.5q81 143 149.5 206t141.5 63q57 0 90 -30.5t33 -82.5q0 -37 -21.5 -63.5t-50.5 -26.5q-18 0 -55.5 19.5t-64.5 19.5q-52 0 -104 -45.5t-109 -141.5v-110q0 -160 2.5 -259.5t7.5 -126.5q9 -51 38.5 -70t100.5 -19h29v-70
q-78 6 -139 9t-103 3q-58 0 -119.5 -3t-128.5 -9v70h23q73 0 99 35t26 163v105v325q0 108 -15 139t-55 31q-8 0 -17 -0.5t-30 -3.5l-12 62q71 16 146 40t155 56z" />
    <glyph glyph-name="s" unicode="s" horiz-adv-x="907" 
d="M739 969q0 -61 6.5 -123t18.5 -125l-76 -12q-12 104 -66 155t-151 51q-84 0 -138 -45.5t-54 -115.5q0 -111 236 -176l63 -17q118 -33 172.5 -94t54.5 -160q0 -146 -114.5 -241t-293.5 -95q-65 0 -133 14t-139 42q1 10 1.5 21t0.5 34q0 46 -5.5 99.5t-16.5 113.5l75 18
q16 -124 78 -185.5t172 -61.5q100 0 163.5 48.5t63.5 125.5q0 108 -212 172q-21 7 -31 10q-152 46 -213.5 113t-61.5 178q0 128 102 212.5t261 84.5q49 0 106.5 -10t130.5 -31z" />
    <glyph glyph-name="t" unicode="t" horiz-adv-x="737" 
d="M315 1171l66 -20q-6 -55 -9.5 -98.5t-4.5 -85.5h71q57 0 116 1.5t119 4.5l-24 -109q-64 5 -120.5 6.5t-112.5 1.5h-47q-6 -172 -8.5 -263.5t-2.5 -151.5q0 -226 31 -294.5t111 -68.5q33 0 73.5 14t98.5 46l33 -66q-96 -58 -174 -87.5t-136 -29.5q-107 0 -156 73.5
t-49 236.5q0 32 4.5 228.5t4.5 360.5q-9 0 -26 -1q-83 -3 -114 -3v72q98 14 162 72.5t94 160.5z" />
    <glyph glyph-name="u" unicode="u" horiz-adv-x="1204" 
d="M367 1011q-7 -196 -11 -343.5t-4 -204.5q0 -214 44 -285.5t151 -71.5q53 0 118 26t148 79q3 154 4.5 254t1.5 147v68q0 126 -21 158t-81 32q-10 0 -21.5 -0.5t-23.5 -1.5l-6 64q85 6 167.5 19t161.5 32q-6 -171 -9 -305t-3 -234q0 -41 -1 -102.5t-1 -81.5q0 -93 16 -122
t60 -29q10 0 23.5 2t35.5 8l8 -62l-305 -77l-4 149q-108 -82 -189.5 -120t-148.5 -38q-137 0 -214 79t-77 220q0 36 3 151q1 48 1 75l3 112q0 28 1 71.5t1 59.5q0 86 -14.5 114t-53.5 28q-12 0 -28 -2l-33 -4l-7 65q72 12 148.5 29.5t159.5 41.5z" />
    <glyph glyph-name="v" unicode="v" horiz-adv-x="1006" 
d="M0 980q75 -5 120 -7t77 -2q30 0 76.5 2t129.5 8v-70h-26q-50 0 -70 -13.5t-20 -47.5q0 -26 98 -293l133 -364q161 384 209.5 510.5t48.5 152.5q0 29 -22 42t-72 13h-14v70q45 -4 87 -6t83 -2q32 0 75 2t93 6v-70h-11q-68 0 -128 -142l-25 -58l-12 -26
q-290 -647 -300 -710h-110q0 33 -58 193.5t-215 561.5q-4 11 -13 34q-56 147 -126 147h-8v69z" />
    <glyph glyph-name="w" unicode="w" horiz-adv-x="1587" 
d="M12 981q54 -4 101 -6t84 -2q50 0 103 2t108 6v-68h-15q-55 0 -76.5 -16t-21.5 -55q0 -13 5 -34t13 -46l193 -553l264 559l-18 55q-20 57 -43 73.5t-72 16.5h-29v68q58 -4 108 -6t89 -2q53 0 107 2t112 6v-68q-5 0 -15 -1t-14 -1q-41 0 -60.5 -13.5t-19.5 -43.5
q0 -18 5.5 -41.5t15.5 -52.5l186 -545l32 81q196 504 196 552q0 38 -21.5 51.5t-81.5 13.5h-18v68q46 -4 90.5 -6t87.5 -2q36 0 78.5 2t91.5 6v-68q-32 0 -53 -8.5t-33 -25.5q-22 -33 -91.5 -198l-289.5 -710h-72l-235 670q-117 -227 -190.5 -386t-118.5 -284h-68
l-191 540.5t-135 360.5q-13 22 -31 31.5t-42 9.5h-15v68z" />
    <glyph glyph-name="x" unicode="x" horiz-adv-x="1085" 
d="M18 69q4 0 9.5 -0.5t15.5 -0.5q94 0 338 310l86 109l-225 310q-52 70 -83 94t-65 24q-2 0 -7.5 -1t-8.5 -1v68q13 -1 38 -2q118 -6 163 -6q37 0 86.5 2t107.5 6v-68h-8q-34 0 -51 -11.5t-17 -35.5q0 -35 155 -240l14 -17q98 129 135.5 186t37.5 77q0 22 -14 30.5
t-59 10.5v68q47 -4 89 -6t76 -2q43 0 86 2t89 6l-1 -67q-2 0 -6 0.5t-10 0.5q-74 0 -270 -247l-103 -127l269 -359q54 -73 83.5 -92.5t67.5 -19.5h11v-70q-18 1 -49 2q-113 6 -154 6q-29 0 -120 -4q-51 -3 -78 -4l-1 70h12q38 0 55 10t17 33q0 24 -109 170l-100 135
q-106 -137 -154.5 -210.5t-48.5 -98.5q0 -21 14 -30t46 -9h12v-70q-54 4 -102.5 6t-87.5 2q-32 0 -78.5 -2t-102.5 -6v69z" />
    <glyph glyph-name="y" unicode="y" horiz-adv-x="995" 
d="M0 980q75 -5 120 -7t77 -2q30 0 76.5 2t129.5 8v-70h-26q-50 0 -70 -13.5t-20 -47.5q0 -26 88 -264l139 -381q139 330 195.5 476t56.5 175t-22 42t-72 13h-15v70q45 -4 88.5 -6t83.5 -2q33 0 76 2t92 6v-70h-8q-33 0 -55.5 -14.5t-38.5 -46.5q-2 -5 -17 -39l-227 -514
l-153 -355q-200 -474 -308 -474q-40 0 -67 26t-27 66q0 55 77 69q31 5 44 11q56 22 161 254l46 102l-170 457q-167 460 -238 460q-6 0 -9.5 -0.5t-6.5 -0.5v68z" />
    <glyph glyph-name="z" unicode="z" horiz-adv-x="967" 
d="M135 981q83 -6 155 -9t128 -3q200 0 284 2.5t146 9.5l35 -55q-46 -37 -99 -98.5t-137 -176.5l-354 -485q56 -4 109.5 -6t103.5 -2h72q148 0 195 28.5t65 106.5l63 -19q-17 -64 -30 -132.5t-21 -141.5q-15 1 -43 2q-266 14 -379 14q-81 0 -166 -4t-178 -12l-33 63
q86 64 231 262l7 9l362 491q-29 1 -82 2q-122 2 -161 2h-41q-126 0 -161 -24.5t-50 -93.5l-66 18q16 59 27.5 121.5t17.5 130.5z" />
    <glyph glyph-name="braceleft" unicode="{" horiz-adv-x="858" 
d="M860 1538v-76q-13 1 -25.5 1.5t-23.5 0.5q-66 0 -110 -11t-72 -36q-66 -57 -68 -273q-1 -64 -2 -98l-2 -61q-6 -200 -59 -279.5t-181 -111.5v-6q128 -32 181 -112.5t59 -280.5l2 -60q1 -30 1 -85q1 -207 54 -269q27 -33 74.5 -48.5t122.5 -15.5q10 0 22.5 0.5t26.5 1.5
v-77h-94q-195 0 -276 89t-87 361l-4 193q-3 154 -53 211t-174 57h-20v74h20q124 0 174 57t53 210l4 196q6 273 87 361.5t276 88.5q11 0 42.5 -1t51.5 -1z" />
    <glyph glyph-name="bar" unicode="|" horiz-adv-x="1024" 
d="M449 1565h126v-2048h-126v2048z" />
    <glyph glyph-name="braceright" unicode="}" horiz-adv-x="858" 
d="M455 1090l6 -196q3 -154 52.5 -210.5t172.5 -56.5h23v-74h-21q-124 0 -174 -57.5t-53 -210.5l-6 -193q-6 -272 -87 -361t-276 -89h-92v77q15 -1 27.5 -1.5t21.5 -0.5q65 0 109 12t71 35q66 58 68 273q1 64 2 98l2 59q6 201 59.5 281.5t182.5 112.5v6
q-129 32 -182.5 111.5t-59.5 280.5l-2 61q-1 26 -2 74q-6 343 -248 343q-12 0 -24 -0.5t-25 -1.5v76q6 0 37 1t55 1q195 0 276 -88.5t87 -361.5z" />
    <glyph glyph-name="asciitilde" unicode="~" horiz-adv-x="1706" 
d="M1530 758v-131q-101 -72 -197.5 -108t-189.5 -36q-43 0 -90.5 9t-100.5 26q-30 10 -87 31q-202 72 -302 72q-83 0 -173.5 -37.5t-211.5 -122.5v133q105 73 202 109t185 36q56 0 116.5 -12.5t174.5 -52.5q12 -4 35 -13q164 -59 254 -59q85 0 176 36.5t209 119.5z" />
    <glyph glyph-name="Adieresis" unicode="&#xc4;" horiz-adv-x="1479" 
d="M698 1239l-229 -598q19 0 55 -1q113 -3 154 -3q50 0 181 3q29 1 44 1zM653 1427h172l246.5 -725t183.5 -493q40 -95 69 -117t83 -22h20v-70q-78 4 -142.5 6t-108.5 2q-56 0 -123 -2t-142 -6v70h19q71 0 97 16.5t26 60.5q0 16 -4 35.5t-13 46.5l-98 306q-38 0 -104 1
q-120 3 -154 3q-68 0 -128.5 -0.5t-125.5 -2.5q-71 -179 -97 -261t-26 -117q0 -49 26 -68.5t93 -19.5h27v-70q-73 4 -136.5 6t-113.5 2q-40 0 -100 -2t-130 -6v69q71 2 112.5 28.5t72.5 88.5q56 117 198.5 468.5zM952 1862q39 0 83 -40t44 -77q0 -36 -44 -76t-83 -40
q-40 0 -82.5 39.5t-42.5 76.5q0 36 43 76.5t82 40.5zM526 1862q39 0 82 -40t43 -77q0 -36 -43 -76t-82 -40q-40 0 -82.5 39.5t-42.5 76.5q0 36 43 76.5t82 40.5z" />
    <glyph glyph-name="Aring" unicode="&#xc5;" horiz-adv-x="1479" 
d="M698 1239l-229 -598q19 0 55 -1q113 -3 154 -3q50 0 181 3q29 1 44 1zM653 1427h172l246.5 -725t183.5 -493q40 -95 69 -117t83 -22h20v-70q-78 4 -142.5 6t-108.5 2q-56 0 -123 -2t-142 -6v70h19q71 0 97 16.5t26 60.5q0 16 -4 35.5t-13 46.5l-98 306q-38 0 -104 1
q-120 3 -154 3q-68 0 -128.5 -0.5t-125.5 -2.5q-71 -179 -97 -261t-26 -117q0 -49 26 -68.5t93 -19.5h27v-70q-73 4 -136.5 6t-113.5 2q-40 0 -100 -2t-130 -6v69q71 2 112.5 28.5t72.5 88.5q56 117 198.5 468.5zM739 1870q-54 0 -93.5 -40t-39.5 -95q0 -54 40 -95t93 -41
q54 0 94.5 41t40.5 95q0 55 -39.5 95t-95.5 40zM739 1972q101 0 170.5 -69t69.5 -168t-70 -169.5t-170 -70.5q-99 0 -169 70.5t-70 169.5t69.5 168t169.5 69z" />
    <glyph glyph-name="Ccedilla" unicode="&#xc7;" horiz-adv-x="1448" 
d="M1313 1382v-34q0 -70 5 -145.5t15 -158.5l-73 -12q-20 144 -136 224.5t-303 80.5q-249 0 -384.5 -152.5t-135.5 -432.5q0 -299 155.5 -483.5t403.5 -184.5q156 0 270.5 72t178.5 211l67 -33q-32 -65 -58 -132.5t-46 -135.5q-108 -49 -220 -74t-225 -25
q-332 0 -537.5 205.5t-205.5 540.5q0 330 217 537.5t561 207.5q102 0 215.5 -19t235.5 -57zM815 0h76l-98 -121q65 -16 100 -50t35 -81q0 -67 -66.5 -120.5t-185.5 -82.5l-30 60q66 15 100.5 46t34.5 77q0 37 -30.5 61t-90.5 35z" />
    <glyph glyph-name="Eacute" unicode="&#xc9;" horiz-adv-x="1298" 
d="M98 1427q175 -6 313 -9t238 -3q111 0 224.5 3t230.5 9q1 -75 6 -153.5t12 -157.5l-67 -6q-8 120 -74 162.5t-285 42.5q-56 0 -205 -3q-30 -1 -44 -1q-2 -120 -6 -294t-5 -226h31q59 0 147.5 -1.5t118.5 -1.5q145 0 191.5 27t50.5 100l63 -6q-7 -62 -10.5 -115t-3.5 -98
q0 -26 5 -112l3 -47l-65 -2v8q0 85 -49.5 115t-231.5 30h-178h-72q0 -49 -1 -135.5t-1 -124.5q0 -66 1 -137.5t4 -167.5q50 -6 113.5 -9t139.5 -3q251 0 330.5 48.5t126.5 186.5l72 -24q-30 -83 -53 -163t-40 -159q-157 6 -292 9t-244 3q-149 0 -480 -11l-36 -1v65
q7 -1 13.5 -1.5t19.5 -0.5q133 0 135 374q1 94 2 147l4 273q1 88 1.5 171t0.5 180q0 86 -32 119t-114 33h-8v67zM766 2001l149 -96l-334 -334l-75 27z" />
    <glyph glyph-name="Ntilde" unicode="&#xd1;" horiz-adv-x="1655" 
d="M61 1427q47 -4 91.5 -6t87.5 -2q32 0 75 2t93 6q13 -33 36 -68t58 -77l825 -976q-3 152 -6 403q-8 527 -18 567q-12 46 -42.5 64t-99.5 18h-31v69q12 0 36 -1q142 -7 200 -7q59 0 206 7q21 1 32 1l-1 -69q-6 1 -13 1.5t-19 0.5q-134 0 -136 -373q-1 -94 -1 -147l-4 -266
q-2 -59 -2.5 -121.5t-0.5 -171.5q0 -121 3 -188.5t10 -108.5h-111q-17 40 -121 160l-10 12l-858 1009v-23q6 -936 20 -990q12 -46 42.5 -64t97.5 -18h30v-70q-15 1 -44 2q-140 6 -191 6q-49 0 -108.5 -2t-125.5 -6v69q6 0 13.5 -0.5t19.5 -0.5q134 0 136 371q1 94 1 147
l5 266q1 86 1.5 167.5t0.5 186.5q0 86 -33 119t-117 33h-27v69zM1157 1899l53 -43q-53 -69 -107 -119t-117 -86q-71 5 -173 21t-133 16q-60 0 -107 -23.5t-86 -72.5l-49 47q52 68 110 118.5t125 86.5q72 -6 174.5 -22.5t135.5 -16.5q51 0 94 23.5t80 70.5z" />
    <glyph glyph-name="Odieresis" unicode="&#xd6;" horiz-adv-x="1642" 
d="M1327 684q0 291 -150 477.5t-378 186.5q-219 0 -351.5 -160t-132.5 -428q0 -298 150.5 -489t376.5 -191q218 0 351.5 164.5t133.5 439.5zM821 1460q152 0 271.5 -43.5t216.5 -134.5q116 -110 177.5 -255t61.5 -308q0 -166 -65 -314t-185 -255q-96 -86 -223.5 -134.5
t-255.5 -48.5q-160 0 -294.5 59t-237.5 175q-94 106 -143.5 238t-49.5 278q0 158 59.5 298.5t172.5 246.5q102 96 230 147t265 51zM1034 1862q39 0 83 -40t44 -77q0 -36 -44 -76t-83 -40q-40 0 -82.5 39.5t-42.5 76.5q0 36 43 76.5t82 40.5zM608 1862q39 0 82 -40t43 -77
q0 -36 -43 -76t-82 -40q-40 0 -82.5 39.5t-42.5 76.5q0 36 43 76.5t82 40.5z" />
    <glyph glyph-name="Udieresis" unicode="&#xdc;" horiz-adv-x="1612" 
d="M598 1427v-69q-6 0 -17 1t-16 1q-79 0 -107 -52t-28 -247v-158v-207q0 -162 10 -239t33 -127q49 -108 144.5 -164.5t230.5 -56.5q101 0 177 29t130 89t76 147t22 290q0 244 -5.5 410.5t-14.5 201.5q-14 46 -43.5 64t-95.5 18h-15v69q12 0 35 -1q138 -7 197 -7q58 0 196 7
q24 1 35 1v-69h-12q-59 0 -88.5 -15t-42.5 -50q-11 -29 -16 -152.5t-5 -399.5v-100q0 -158 -12 -241.5t-39 -147.5q-56 -133 -193 -209t-323 -76q-129 0 -237.5 38t-184.5 110q-83 76 -118 179.5t-35 289.5q0 72 2 235.5t2 255.5v31q0 172 -28.5 212t-111.5 40h-18v69
q71 -4 135 -6t117 -2q64 0 130 2t134 6zM1051 1862q39 0 83 -40t44 -77q0 -36 -44 -76t-83 -40q-40 0 -82.5 39.5t-42.5 76.5q0 36 43 76.5t82 40.5zM625 1862q39 0 82 -40t43 -77q0 -36 -43 -76t-82 -40q-40 0 -82.5 39.5t-42.5 76.5q0 36 43 76.5t82 40.5z" />
    <glyph glyph-name="aacute" unicode="&#xe1;" horiz-adv-x="985" 
d="M961 145l28 -63q-75 -54 -137 -83.5t-100 -29.5q-64 0 -96 37.5t-35 113.5q-109 -73 -181 -104.5t-129 -31.5q-101 0 -169 76t-68 186q0 187 403 282l148 35q0 17 1 49q3 66 3 86q0 104 -43 153.5t-131 49.5q-86 0 -135.5 -31.5t-49.5 -85.5q0 -5 1 -13.5t1 -12.5
q0 -31 -30 -51.5t-72 -20.5q-36 0 -53 12t-17 37q0 80 135 178.5t279 98.5q139 0 211 -76.5t72 -224.5q0 -80 -9.5 -246t-9.5 -252q0 -65 14.5 -88t51.5 -23q16 0 41.5 9.5t75.5 33.5zM620 483l-57 -15q-325 -89 -325 -210q0 -66 42 -107.5t111 -41.5q42 0 97 22t128 70z
M613 1550l149 -96l-334 -334l-75 27z" />
    <glyph glyph-name="agrave" unicode="&#xe0;" horiz-adv-x="985" 
d="M961 145l28 -63q-75 -54 -137 -83.5t-100 -29.5q-64 0 -96 37.5t-35 113.5q-109 -73 -181 -104.5t-129 -31.5q-101 0 -169 76t-68 186q0 187 403 282l148 35q0 17 1 49q3 66 3 86q0 104 -43 153.5t-131 49.5q-86 0 -135.5 -31.5t-49.5 -85.5q0 -5 1 -13.5t1 -12.5
q0 -31 -30 -51.5t-72 -20.5q-36 0 -53 12t-17 37q0 80 135 178.5t279 98.5q139 0 211 -76.5t72 -224.5q0 -80 -9.5 -246t-9.5 -252q0 -65 14.5 -88t51.5 -23q16 0 41.5 9.5t75.5 33.5zM620 483l-57 -15q-325 -89 -325 -210q0 -66 42 -107.5t111 -41.5q42 0 97 22t128 70z
M383 1550l265 -405l-76 -25l-336 340z" />
    <glyph glyph-name="acircumflex" unicode="&#xe2;" horiz-adv-x="985" 
d="M961 145l28 -63q-75 -54 -137 -83.5t-100 -29.5q-64 0 -96 37.5t-35 113.5q-109 -73 -181 -104.5t-129 -31.5q-101 0 -169 76t-68 186q0 187 403 282l148 35q0 17 1 49q3 66 3 86q0 104 -43 153.5t-131 49.5q-86 0 -135.5 -31.5t-49.5 -85.5q0 -5 1 -13.5t1 -12.5
q0 -31 -30 -51.5t-72 -20.5q-36 0 -53 12t-17 37q0 80 135 178.5t279 98.5q139 0 211 -76.5t72 -224.5q0 -80 -9.5 -246t-9.5 -252q0 -65 14.5 -88t51.5 -23q16 0 41.5 9.5t75.5 33.5zM620 483l-57 -15q-325 -89 -325 -210q0 -66 42 -107.5t111 -41.5q42 0 97 22t128 70z
M467 1473h62l272 -322l-61 -31l-244 203l-244 -203l-59 31z" />
    <glyph glyph-name="adieresis" unicode="&#xe4;" horiz-adv-x="985" 
d="M961 145l28 -63q-75 -54 -137 -83.5t-100 -29.5q-64 0 -96 37.5t-35 113.5q-109 -73 -181 -104.5t-129 -31.5q-101 0 -169 76t-68 186q0 187 403 282l148 35q0 17 1 49q3 66 3 86q0 104 -43 153.5t-131 49.5q-86 0 -135.5 -31.5t-49.5 -85.5q0 -5 1 -13.5t1 -12.5
q0 -31 -30 -51.5t-72 -20.5q-36 0 -53 12t-17 37q0 80 135 178.5t279 98.5q139 0 211 -76.5t72 -224.5q0 -80 -9.5 -246t-9.5 -252q0 -65 14.5 -88t51.5 -23q16 0 41.5 9.5t75.5 33.5zM620 483l-57 -15q-325 -89 -325 -210q0 -66 42 -107.5t111 -41.5q42 0 97 22t128 70z
M709 1411q39 0 83 -40t44 -77q0 -36 -44 -76t-83 -40q-40 0 -82.5 39.5t-42.5 76.5q0 36 43 76.5t82 40.5zM283 1411q39 0 82 -40t43 -77q0 -36 -43 -76t-82 -40q-40 0 -82.5 39.5t-42.5 76.5q0 36 43 76.5t82 40.5z" />
    <glyph glyph-name="atilde" unicode="&#xe3;" horiz-adv-x="985" 
d="M961 145l28 -63q-75 -54 -137 -83.5t-100 -29.5q-64 0 -96 37.5t-35 113.5q-109 -73 -181 -104.5t-129 -31.5q-101 0 -169 76t-68 186q0 187 403 282l148 35q0 17 1 49q3 66 3 86q0 104 -43 153.5t-131 49.5q-86 0 -135.5 -31.5t-49.5 -85.5q0 -5 1 -13.5t1 -12.5
q0 -31 -30 -51.5t-72 -20.5q-36 0 -53 12t-17 37q0 80 135 178.5t279 98.5q139 0 211 -76.5t72 -224.5q0 -80 -9.5 -246t-9.5 -252q0 -65 14.5 -88t51.5 -23q16 0 41.5 9.5t75.5 33.5zM620 483l-57 -15q-325 -89 -325 -210q0 -66 42 -107.5t111 -41.5q42 0 97 22t128 70z
M826 1448l53 -43q-53 -69 -107 -119t-117 -86q-71 5 -173 21t-133 16q-60 0 -107 -23.5t-86 -72.5l-49 47q52 68 110 118.5t125 86.5q72 -6 174.5 -22.5t135.5 -16.5q51 0 94 23.5t80 70.5z" />
    <glyph glyph-name="aring" unicode="&#xe5;" horiz-adv-x="985" 
d="M946 143l33 -57q-89 -62 -143 -90.5t-84 -28.5q-63 0 -95.5 38t-35.5 115q-112 -75 -183 -106.5t-127 -31.5q-101 0 -169 76t-68 186q0 188 416 287l135 32q0 17 1 49q3 66 3 86q0 104 -43 153.5t-131 49.5q-91 0 -133 -31t-50 -113q-3 -41 -23 -57t-69 -16
q-41 0 -60.5 12.5t-19.5 38.5q0 80 135 178.5t279 98.5q139 0 211 -76.5t72 -224.5q0 -77 -9.5 -243t-9.5 -255q0 -63 14.5 -87t49.5 -24q16 0 38 9t66 32zM620 483l-57 -15q-325 -89 -325 -210q0 -66 42 -107.5t111 -41.5q44 0 99 22t126 68zM494 1483q-58 0 -99 -41
t-41 -99q0 -56 41.5 -97.5t98.5 -41.5q56 0 97.5 41.5t41.5 97.5q0 59 -40.5 99.5t-98.5 40.5zM494 1587q101 0 172 -71t71 -173q0 -101 -70.5 -171t-172.5 -70t-172 70t-70 171q0 102 70.5 173t171.5 71z" />
    <glyph glyph-name="ccedilla" unicode="&#xe7;" horiz-adv-x="915" 
d="M829 197l50 -76q-97 -74 -191 -112t-178 -38q-196 0 -320 140.5t-124 359.5q0 227 157 384t383 157q116 0 179 -32.5t63 -90.5q0 -42 -25.5 -72.5t-58.5 -30.5q-11 0 -92.5 50.5t-155.5 50.5q-130 0 -206.5 -93.5t-76.5 -254.5q0 -203 92.5 -316.5t256.5 -113.5
q61 0 121.5 21t125.5 67zM522 0h76l-98 -121q65 -16 100 -50t35 -81q0 -67 -66.5 -120.5t-185.5 -82.5l-30 60q66 15 100.5 46t34.5 77q0 37 -30.5 61t-90.5 35z" />
    <glyph glyph-name="eacute" unicode="&#xe9;" horiz-adv-x="999" 
d="M930 559h-488q-57 0 -105 -2t-89 -6v-37q0 -196 90.5 -303t255.5 -107q73 0 144 24.5t151 76.5l39 -64q-103 -84 -205.5 -127t-202.5 -43q-194 0 -320 138.5t-126 355.5q0 231 132 388t322 157q177 0 282 -118t120 -333zM745 664q-30 123 -91 188.5t-146 65.5
q-96 0 -164.5 -77t-89.5 -208q198 0 311.5 7t179.5 24zM619 1550l149 -96l-334 -334l-75 27z" />
    <glyph glyph-name="egrave" unicode="&#xe8;" horiz-adv-x="999" 
d="M930 559h-488q-57 0 -105 -2t-89 -6v-37q0 -196 90.5 -303t255.5 -107q73 0 144 24.5t151 76.5l39 -64q-103 -84 -205.5 -127t-202.5 -43q-194 0 -320 138.5t-126 355.5q0 231 132 388t322 157q177 0 282 -118t120 -333zM745 664q-30 123 -91 188.5t-146 65.5
q-96 0 -164.5 -77t-89.5 -208q198 0 311.5 7t179.5 24zM389 1550l265 -405l-76 -25l-336 340z" />
    <glyph glyph-name="ecircumflex" unicode="&#xea;" horiz-adv-x="999" 
d="M930 559h-488q-57 0 -105 -2t-89 -6v-37q0 -196 90.5 -303t255.5 -107q73 0 144 24.5t151 76.5l39 -64q-103 -84 -205.5 -127t-202.5 -43q-194 0 -320 138.5t-126 355.5q0 231 132 388t322 157q177 0 282 -118t120 -333zM745 664q-30 123 -91 188.5t-146 65.5
q-96 0 -164.5 -77t-89.5 -208q198 0 311.5 7t179.5 24zM473 1473h62l272 -322l-61 -31l-244 203l-244 -203l-59 31z" />
    <glyph glyph-name="edieresis" unicode="&#xeb;" horiz-adv-x="999" 
d="M930 559h-488q-57 0 -105 -2t-89 -6v-37q0 -196 90.5 -303t255.5 -107q73 0 144 24.5t151 76.5l39 -64q-103 -84 -205.5 -127t-202.5 -43q-194 0 -320 138.5t-126 355.5q0 231 132 388t322 157q177 0 282 -118t120 -333zM745 664q-30 123 -91 188.5t-146 65.5
q-96 0 -164.5 -77t-89.5 -208q198 0 311.5 7t179.5 24zM715 1411q39 0 83 -40t44 -77q0 -36 -44 -76t-83 -40q-40 0 -82.5 39.5t-42.5 76.5q0 36 43 76.5t82 40.5zM289 1411q39 0 82 -40t43 -77q0 -36 -43 -76t-82 -40q-40 0 -82.5 39.5t-42.5 76.5q0 36 43 76.5t82 40.5z
" />
    <glyph glyph-name="iacute" unicode="&#xed;" horiz-adv-x="608" 
d="M395 1022q-1 -38 -3 -108q-13 -402 -13 -566v-106q0 -114 21.5 -143t86.5 -29h21h10v-70q-85 6 -137 8t-88 2q-32 0 -81.5 -2t-148.5 -8v70h25q124 0 125 244v55l4 247q0 27 1 68t1 55q0 81 -15.5 107t-56.5 26q-8 0 -23.5 -1.5t-33.5 -3.5l-10 63q79 15 157.5 38
t157.5 54zM424 1550l149 -96l-334 -334l-75 27z" />
    <glyph glyph-name="igrave" unicode="&#xec;" horiz-adv-x="608" 
d="M395 1022q-1 -38 -3 -108q-13 -402 -13 -566v-106q0 -114 21.5 -143t86.5 -29h21h10v-70q-85 6 -137 8t-88 2q-32 0 -81.5 -2t-148.5 -8v70h25q124 0 125 244v55l4 247q0 27 1 68t1 55q0 81 -15.5 107t-56.5 26q-8 0 -23.5 -1.5t-33.5 -3.5l-10 63q79 15 157.5 38
t157.5 54zM194 1550l265 -405l-76 -25l-336 340z" />
    <glyph glyph-name="icircumflex" unicode="&#xee;" horiz-adv-x="608" 
d="M395 1022q-1 -38 -3 -108q-13 -402 -13 -566v-106q0 -114 21.5 -143t86.5 -29h21h10v-70q-85 6 -137 8t-88 2q-32 0 -81.5 -2t-148.5 -8v70h25q124 0 125 244v55l4 247q0 27 1 68t1 55q0 81 -15.5 107t-56.5 26q-8 0 -23.5 -1.5t-33.5 -3.5l-10 63q79 15 157.5 38
t157.5 54zM278 1473h62l272 -322l-61 -31l-244 203l-244 -203l-59 31z" />
    <glyph glyph-name="idieresis" unicode="&#xef;" horiz-adv-x="608" 
d="M395 1022q-1 -38 -3 -108q-13 -402 -13 -566v-106q0 -114 21.5 -143t86.5 -29h21h10v-70q-85 6 -137 8t-88 2q-32 0 -81.5 -2t-148.5 -8v70h25q124 0 125 244v55l4 247q0 27 1 68t1 55q0 81 -15.5 107t-56.5 26q-8 0 -23.5 -1.5t-33.5 -3.5l-10 63q79 15 157.5 38
t157.5 54zM520 1411q39 0 83 -40t44 -77q0 -36 -44 -76t-83 -40q-40 0 -82.5 39.5t-42.5 76.5q0 36 43 76.5t82 40.5zM94 1411q39 0 82 -40t43 -77q0 -36 -43 -76t-82 -40q-40 0 -82.5 39.5t-42.5 76.5q0 36 43 76.5t82 40.5z" />
    <glyph glyph-name="ntilde" unicode="&#xf1;" horiz-adv-x="1196" 
d="M377 1022l-12 -168q113 82 196.5 119t153.5 37q147 0 221 -83t74 -249q0 -1 -1 -88t-1 -174q0 -37 -1 -92.5t-1 -75.5q0 -112 20 -146t76 -34q3 0 11.5 1t12.5 1v-70q-90 6 -136 8t-77 2q-48 0 -104 -2.5t-114 -7.5l-1 70h15q128 0 130 234q1 13 1 20l2 215v36
q0 185 -43 245.5t-148 60.5q-58 0 -128.5 -27.5t-149.5 -81.5q-4 -104 -6 -196.5t-2 -167.5v-138q0 -132 19.5 -167t76.5 -35q4 0 12.5 1t13.5 1v-70q-86 6 -135.5 8t-81.5 2q-30 0 -79 -2t-137 -8l-1 70h19q125 0 126 243q0 36 1 56l2 245v99q0 98 -15 128.5t-55 30.5
q-8 0 -20.5 -2t-26.5 -6l-12 62q75 14 150.5 38t154.5 58zM928 1448l53 -43q-53 -69 -107 -119t-117 -86q-71 5 -173 21t-133 16q-60 0 -107 -23.5t-86 -72.5l-49 47q52 68 110 118.5t125 86.5q72 -6 174.5 -22.5t135.5 -16.5q51 0 94 23.5t80 70.5z" />
    <glyph glyph-name="oacute" unicode="&#xf3;" horiz-adv-x="1128" 
d="M549 905q-134 0 -215.5 -97.5t-81.5 -262.5q0 -211 90.5 -342t235.5 -131q140 0 223.5 104t83.5 283q0 196 -94.5 321t-241.5 125zM575 1010q211 0 349.5 -141.5t138.5 -350.5q0 -230 -146 -387.5t-360 -157.5t-351.5 144t-137.5 364t149.5 374.5t357.5 154.5zM682 1550
l149 -96l-334 -334l-75 27z" />
    <glyph glyph-name="ograve" unicode="&#xf2;" horiz-adv-x="1128" 
d="M549 905q-134 0 -215.5 -97.5t-81.5 -262.5q0 -211 90.5 -342t235.5 -131q140 0 223.5 104t83.5 283q0 196 -94.5 321t-241.5 125zM575 1010q211 0 349.5 -141.5t138.5 -350.5q0 -230 -146 -387.5t-360 -157.5t-351.5 144t-137.5 364t149.5 374.5t357.5 154.5zM452 1550
l265 -405l-76 -25l-336 340z" />
    <glyph glyph-name="ocircumflex" unicode="&#xf4;" horiz-adv-x="1128" 
d="M549 905q-134 0 -215.5 -97.5t-81.5 -262.5q0 -211 90.5 -342t235.5 -131q140 0 223.5 104t83.5 283q0 196 -94.5 321t-241.5 125zM575 1010q211 0 349.5 -141.5t138.5 -350.5q0 -230 -146 -387.5t-360 -157.5t-351.5 144t-137.5 364t149.5 374.5t357.5 154.5zM536 1473
h62l272 -322l-61 -31l-244 203l-244 -203l-59 31z" />
    <glyph glyph-name="odieresis" unicode="&#xf6;" horiz-adv-x="1128" 
d="M549 905q-134 0 -215.5 -97.5t-81.5 -262.5q0 -211 90.5 -342t235.5 -131q140 0 223.5 104t83.5 283q0 196 -94.5 321t-241.5 125zM575 1010q211 0 349.5 -141.5t138.5 -350.5q0 -230 -146 -387.5t-360 -157.5t-351.5 144t-137.5 364t149.5 374.5t357.5 154.5zM778 1411
q39 0 83 -40t44 -77q0 -36 -44 -76t-83 -40q-40 0 -82.5 39.5t-42.5 76.5q0 36 43 76.5t82 40.5zM352 1411q39 0 82 -40t43 -77q0 -36 -43 -76t-82 -40q-40 0 -82.5 39.5t-42.5 76.5q0 36 43 76.5t82 40.5z" />
    <glyph glyph-name="otilde" unicode="&#xf5;" horiz-adv-x="1128" 
d="M549 905q-134 0 -215.5 -97.5t-81.5 -262.5q0 -211 90.5 -342t235.5 -131q140 0 223.5 104t83.5 283q0 196 -94.5 321t-241.5 125zM575 1010q211 0 349.5 -141.5t138.5 -350.5q0 -230 -146 -387.5t-360 -157.5t-351.5 144t-137.5 364t149.5 374.5t357.5 154.5zM895 1448
l53 -43q-53 -69 -107 -119t-117 -86q-71 5 -173 21t-133 16q-60 0 -107 -23.5t-86 -72.5l-49 47q52 68 110 118.5t125 86.5q72 -6 174.5 -22.5t135.5 -16.5q51 0 94 23.5t80 70.5z" />
    <glyph glyph-name="uacute" unicode="&#xfa;" horiz-adv-x="1204" 
d="M367 1011q-7 -196 -11 -343.5t-4 -204.5q0 -214 44 -285.5t151 -71.5q53 0 118 26t148 79q3 154 4.5 254t1.5 147v68q0 126 -21 158t-81 32q-10 0 -21.5 -0.5t-23.5 -1.5l-6 64q85 6 167.5 19t161.5 32q-6 -171 -9 -305t-3 -234q0 -41 -1 -102.5t-1 -81.5q0 -93 16 -122
t60 -29q10 0 23.5 2t35.5 8l8 -62l-305 -77l-4 149q-108 -82 -189.5 -120t-148.5 -38q-137 0 -214 79t-77 220q0 36 3 151q1 48 1 75l3 112q0 28 1 71.5t1 59.5q0 86 -14.5 114t-53.5 28q-12 0 -28 -2l-33 -4l-7 65q72 12 148.5 29.5t159.5 41.5zM719 1550l149 -96
l-334 -334l-75 27z" />
    <glyph glyph-name="ugrave" unicode="&#xf9;" horiz-adv-x="1204" 
d="M367 1011q-7 -196 -11 -343.5t-4 -204.5q0 -214 44 -285.5t151 -71.5q53 0 118 26t148 79q3 154 4.5 254t1.5 147v68q0 126 -21 158t-81 32q-10 0 -21.5 -0.5t-23.5 -1.5l-6 64q85 6 167.5 19t161.5 32q-6 -171 -9 -305t-3 -234q0 -41 -1 -102.5t-1 -81.5q0 -93 16 -122
t60 -29q10 0 23.5 2t35.5 8l8 -62l-305 -77l-4 149q-108 -82 -189.5 -120t-148.5 -38q-137 0 -214 79t-77 220q0 36 3 151q1 48 1 75l3 112q0 28 1 71.5t1 59.5q0 86 -14.5 114t-53.5 28q-12 0 -28 -2l-33 -4l-7 65q72 12 148.5 29.5t159.5 41.5zM489 1550l265 -405l-76 -25
l-336 340z" />
    <glyph glyph-name="ucircumflex" unicode="&#xfb;" horiz-adv-x="1204" 
d="M367 1011q-7 -196 -11 -343.5t-4 -204.5q0 -214 44 -285.5t151 -71.5q53 0 118 26t148 79q3 154 4.5 254t1.5 147v68q0 126 -21 158t-81 32q-10 0 -21.5 -0.5t-23.5 -1.5l-6 64q85 6 167.5 19t161.5 32q-6 -171 -9 -305t-3 -234q0 -41 -1 -102.5t-1 -81.5q0 -93 16 -122
t60 -29q10 0 23.5 2t35.5 8l8 -62l-305 -77l-4 149q-108 -82 -189.5 -120t-148.5 -38q-137 0 -214 79t-77 220q0 36 3 151q1 48 1 75l3 112q0 28 1 71.5t1 59.5q0 86 -14.5 114t-53.5 28q-12 0 -28 -2l-33 -4l-7 65q72 12 148.5 29.5t159.5 41.5zM573 1473h62l272 -322
l-61 -31l-244 203l-244 -203l-59 31z" />
    <glyph glyph-name="udieresis" unicode="&#xfc;" horiz-adv-x="1204" 
d="M367 1011q-7 -196 -11 -343.5t-4 -204.5q0 -214 44 -285.5t151 -71.5q53 0 118 26t148 79q3 154 4.5 254t1.5 147v68q0 126 -21 158t-81 32q-10 0 -21.5 -0.5t-23.5 -1.5l-6 64q85 6 167.5 19t161.5 32q-6 -171 -9 -305t-3 -234q0 -41 -1 -102.5t-1 -81.5q0 -93 16 -122
t60 -29q10 0 23.5 2t35.5 8l8 -62l-305 -77l-4 149q-108 -82 -189.5 -120t-148.5 -38q-137 0 -214 79t-77 220q0 36 3 151q1 48 1 75l3 112q0 28 1 71.5t1 59.5q0 86 -14.5 114t-53.5 28q-12 0 -28 -2l-33 -4l-7 65q72 12 148.5 29.5t159.5 41.5zM815 1411q39 0 83 -40
t44 -77q0 -36 -44 -76t-83 -40q-40 0 -82.5 39.5t-42.5 76.5q0 36 43 76.5t82 40.5zM389 1411q39 0 82 -40t43 -77q0 -36 -43 -76t-82 -40q-40 0 -82.5 39.5t-42.5 76.5q0 36 43 76.5t82 40.5z" />
    <glyph glyph-name="dagger" unicode="&#x2020;" horiz-adv-x="1024" 
d="M512 1460l139 -82q-45 -68 -69.5 -144.5t-30.5 -166.5q79 3 150 24t139 62l71 -121l-73 -131q-61 39 -131 62t-156 32q3 -132 26 -224t68 -161q-44 -121 -65 -287t-21 -407q0 -64 4 -204v-7h-102q1 66 1.5 125t0.5 115q0 226 -20 383t-64 282q44 70 66.5 161.5
t25.5 223.5q-86 -9 -156 -32t-131 -62l-73 131l73 121q68 -41 139 -62t150 -24q-6 88 -31 164.5t-71 146.5z" />
    <glyph glyph-name="degree" unicode="&#xb0;" horiz-adv-x="674" 
d="M338 1372q-84 0 -143.5 -58.5t-59.5 -142.5t59.5 -143t143.5 -59t142.5 59t58.5 143t-58.5 142.5t-142.5 58.5zM338 1454q117 0 200 -83t83 -200q0 -116 -83.5 -199t-201.5 -83t-199.5 82t-81.5 200q0 119 82.5 201t200.5 82z" />
    <glyph glyph-name="cent" unicode="&#xa2;" horiz-adv-x="1139" 
d="M463 1024q-83 -19 -129.5 -93.5t-46.5 -189.5q0 -116 45 -194.5t131 -110.5v588zM457 1460h96l-6 -340q7 0 20 -1t19 -1q90 0 146 -30.5t56 -79.5q0 -34 -19.5 -58t-45.5 -24t-76.5 48.5t-101.5 51.5v-600q7 -1 13.5 -1.5t12.5 -0.5q41 0 91 23.5t108 70.5l47 -63
q-67 -63 -133 -97.5t-137 -44.5l4 -352h-94l2 352q-148 20 -238 125t-90 258q0 166 89 277t243 139z" />
    <glyph glyph-name="sterling" unicode="&#xa3;" horiz-adv-x="1139" 
d="M530 725h88q78 0 236 4h6v-94h-12q-209 4 -307 4q1 -16 4 -44q4 -47 4 -60q0 -96 -39 -180t-121 -167h39q54 0 163 -20.5t161 -20.5q96 0 141.5 51t56.5 171l70 -11l-8 -90q-16 -153 -74 -223t-168 -70q-67 0 -215 38t-221 38q-49 0 -98 -19.5t-107 -62.5l-45 60
q172 106 253 212.5t81 227.5q0 32 -8 71.5t-27 98.5q-28 0 -69.5 -1t-55.5 -1h-15q-52 -2 -98 -2l1 94q42 -1 94.5 -2.5l121.5 -3.5q-17 74 -25.5 136.5t-8.5 113.5q0 211 110.5 344t280.5 133q92 0 157.5 -38.5t65.5 -90.5q0 -31 -22 -55.5t-50 -24.5q-29 0 -94.5 54.5
t-120.5 54.5q-75 0 -116 -67t-41 -189q0 -69 19 -242q9 -82 13 -127z" />
    <glyph glyph-name="section" unicode="&#xa7;" horiz-adv-x="1024" 
d="M348 1290q-63 -60 -97 -138.5t-34 -164.5q0 -97 51 -194t174 -230q15 -15 43 -46q244 -260 244 -411q0 -47 -11.5 -91.5t-37.5 -94.5q71 78 105 160t34 176q0 182 -227 416l-35 37q-142 147 -198 244t-56 188q0 36 11 73t34 76zM565 1444q118 0 208.5 -61t90.5 -132
q0 -40 -24.5 -69t-59.5 -29q-34 0 -69 59q-14 24 -23 37q-30 47 -69 72t-82 25q-65 0 -108.5 -49t-43.5 -121q0 -65 55 -147t203 -228q174 -172 222 -271t48 -223q0 -223 -143 -388t-328 -165q-128 0 -225.5 65t-97.5 140q0 39 27.5 67.5t62.5 28.5q42 0 79 -65l13 -23
q32 -55 76.5 -83.5t97.5 -28.5q72 0 121 53.5t49 130.5q0 126 -213 352l-41 43q-160 171 -214 278t-54 226q0 204 132.5 355t309.5 151z" />
    <glyph glyph-name="bullet" unicode="&#x2022;" horiz-adv-x="1208" 
d="M307 762q0 123 87 209t210 86q122 0 208.5 -86.5t86.5 -208.5t-87.5 -209.5t-209.5 -87.5q-123 0 -209 87t-86 210z" />
    <glyph glyph-name="paragraph" unicode="&#xb6;" horiz-adv-x="1124" 
d="M770 1350q-85 -11 -123.5 -108.5t-38.5 -307.5q0 -225 39.5 -340t122.5 -131v887zM1040 1427v-69h-22q-68 0 -98 -21t-37 -73q-4 -31 -6.5 -201.5t-2.5 -423.5q0 -126 5 -553q2 -240 3 -381h-118l6 688q-6 0 -19 -2q-61 -6 -85 -6q-241 0 -395 143.5t-154 364.5
q0 228 165 380t420 152q36 0 92.5 -2t77.5 -2q38 0 79.5 1.5t88.5 4.5z" />
    <glyph glyph-name="germandbls" unicode="&#xdf;" horiz-adv-x="1200" 
d="M70 68q1 -1 4 -1q23 -3 35 -4q62 0 85 51.5t23 221.5q0 27 -1 102.5t-1 122.5v418q0 277 116 423t337 146q148 0 247 -86.5t99 -214.5q0 -63 -31.5 -123t-103.5 -135l-13 -13q-94 -96 -94 -138q0 -20 15.5 -43t70.5 -76l69 -62q201 -179 201 -321q0 -146 -107.5 -250
t-252.5 -104q-93 0 -147 39.5t-54 107.5q0 31 20.5 51.5t53.5 20.5t77.5 -60.5t106.5 -60.5q71 0 116.5 48.5t45.5 123.5q0 107 -192 281l-54 49q-55 50 -84.5 98t-29.5 86q0 61 88 156l23 25q65 72 96.5 138.5t31.5 128.5q0 110 -66 177t-175 67q-124 0 -184 -96t-60 -295
v-633q0 -37 -1 -95t-1 -79q0 -121 17 -157.5t65 -36.5q3 0 9.5 1t10.5 1v-68q-82 6 -131 8t-84 2q-38 0 -88.5 -2.5t-107.5 -7.5v68z" />
    <glyph glyph-name="registered" unicode="&#xae;" horiz-adv-x="1683" 
d="M717 690q26 -3 47.5 -4.5t36.5 -1.5q9 0 42 2q20 1 31 2q43 32 62.5 73t19.5 97q0 78 -46 132t-109 54q-28 0 -76 -11l-4 -1q-1 -62 -2.5 -129t-1.5 -74v-139zM477 326q6 0 14.5 -1t12.5 -1q43 0 58.5 26.5t15.5 116.5v121v321q0 94 -15 120t-55 26h-19v57q11 -1 29 -2
q83 -6 117 -6q40 0 108 5t95 5q116 0 189 -64.5t73 -164.5q0 -68 -34 -120t-108 -97l30 -50q177 -307 255 -307q3 0 8 1t9 1l-1 -51q-24 -3 -45.5 -4.5t-37.5 -1.5q-145 0 -278 245l-66 121q-27 -2 -46.5 -3t-35.5 -1h-33q0 -68 1 -139t1 -73q0 -49 15 -64.5t63 -15.5h16
v-55l-102 3.5t-74 1.5q-22 0 -62 -1.5l-98 -3.5v55zM842 1313q-263 0 -449 -185.5t-186 -449.5q0 -263 185.5 -448t449.5 -185q262 0 447.5 186.5t185.5 446.5q0 263 -186 449t-447 186zM844 1384q116 0 232.5 -42t211.5 -119q121 -98 189.5 -243t68.5 -302
q0 -137 -54.5 -268t-154.5 -232q-99 -99 -227 -152t-268 -53q-142 0 -269.5 52.5t-228.5 152.5q-100 100 -153.5 229.5t-53.5 270.5q0 121 40.5 235t117.5 209q101 125 245 193.5t304 68.5z" />
    <glyph glyph-name="copyright" unicode="&#xa9;" horiz-adv-x="1683" 
d="M1108 295q-74 -31 -140 -46.5t-128 -15.5q-182 0 -298 123t-116 316q0 187 125 312.5t313 125.5q63 0 129.5 -13.5t145.5 -41.5v-43q0 -50 2.5 -94t7.5 -86l-55 -9q-13 106 -72 157.5t-168 51.5q-128 0 -203.5 -90t-75.5 -246q0 -173 83.5 -279t218.5 -106q88 0 150 48.5
t91 140.5l51 -23q-20 -50 -35.5 -94.5t-25.5 -87.5zM842 1313q-263 0 -449 -185.5t-186 -449.5q0 -263 185.5 -448t449.5 -185q262 0 447.5 186.5t185.5 446.5q0 263 -186 449t-447 186zM844 1384q116 0 232.5 -42t211.5 -119q121 -98 189.5 -243t68.5 -302
q0 -137 -54.5 -268t-154.5 -232q-99 -99 -227 -152t-268 -53q-142 0 -269.5 52.5t-228.5 152.5q-100 100 -153.5 229.5t-53.5 270.5q0 121 40.5 235t117.5 209q101 125 245 193.5t304 68.5z" />
    <glyph glyph-name="trademark" unicode="&#x2122;" horiz-adv-x="1683" 
d="M788 1438h183l141 -400l148 400h174v-25l-30 -2q-22 -2 -34 -15.5t-12 -37.5v-373q0 -24 12 -37.5t34 -15.5l30 -2v-27h-236v27l31 2q21 2 33 16t12 37v395l-178 -479h-15l-174 479v-395q0 -23 12.5 -37t34.5 -16l31 -2v-27h-197v27l34 2q21 2 32.5 16t11.5 37v371
q0 23 -12.5 37t-34.5 16l-31 2v27zM256 1438h440l11 -178h-25q-8 79 -40.5 115t-96.5 36h-21v-426q0 -23 12 -37t33 -16l31 -2v-27h-248v27l31 2q21 1 33 15.5t12 37.5v426h-20q-64 0 -97 -36t-41 -115h-26z" />
    <glyph glyph-name="acute" unicode="&#xb4;" horiz-adv-x="1024" 
d="M629 1550l149 -96l-334 -334l-75 27z" />
    <glyph glyph-name="dieresis" unicode="&#xa8;" horiz-adv-x="1024" 
d="M725 1411q39 0 83 -40t44 -77q0 -36 -44 -76t-83 -40q-40 0 -82.5 39.5t-42.5 76.5q0 36 43 76.5t82 40.5zM299 1411q39 0 82 -40t43 -77q0 -36 -43 -76t-82 -40q-40 0 -82.5 39.5t-42.5 76.5q0 36 43 76.5t82 40.5z" />
    <glyph glyph-name="notequal" unicode="&#x2260;" horiz-adv-x="1706" 
d="M1210 1180l88 -70l-196 -250h350v-115h-424l-211 -270h635v-115h-709l-251 -319l-89 70l197 249h-346v115h420l211 270h-631v115h704z" />
    <glyph glyph-name="AE" unicode="&#xc6;" horiz-adv-x="2152" 
d="M1116 1320l-461 -687q66 -1 124.5 -1.5t111.5 -0.5q74 0 121 0.5t92 1.5q1 134 4.5 307zM813 1427q125 -7 262 -10.5t291 -3.5q125 0 267.5 3.5t324.5 10.5q1 -75 6 -153.5t12 -157.5l-69 -6q-8 120 -74 162.5t-285 42.5q-54 0 -196 -3q-36 -1 -53 -1q-2 -169 -7 -418
q-1 -71 -2 -102h31q59 0 147.5 -1.5t118.5 -1.5q145 0 191.5 27t50.5 100l63 -6q-7 -62 -10.5 -115t-3.5 -98q0 -26 1.5 -67t4.5 -92l-65 -2v8q0 85 -49.5 115t-229.5 30h-178h-72q0 -49 -1 -135.5t-1 -124.5q0 -66 1 -137.5t4 -167.5q50 -6 113.5 -9t139.5 -3
q251 0 330.5 48.5t126.5 186.5l72 -24q-30 -83 -53 -163t-40 -159h-12q-385 12 -573 12q-101 0 -216.5 -3t-248.5 -9v68q2 -1 5 -1q31 -3 44 -4q72 0 97.5 43.5t25.5 223.5v69q0 51 0.5 79.5t1.5 53.5q-82 2 -166.5 5.5t-89.5 3.5q-47 0 -138.5 -3t-125.5 -3l-97 -154
q-135 -214 -135 -246q0 -38 25.5 -52.5t95.5 -14.5h21v-68q-86 6 -147.5 9t-102.5 3q-44 0 -105 -3t-139 -9v66h16q117 0 263 212l30 44l392 557q278 391 278 424q0 31 -25.5 44t-93.5 13h-49v67z" />
    <glyph glyph-name="Oslash" unicode="&#xd8;" horiz-adv-x="1642" 
d="M1100 1253q-70 53 -144 79t-155 26q-226 0 -363 -163t-137 -435q0 -154 40.5 -278.5t121.5 -219.5q135 196 439 679zM1161 1196l-299 -454.5l-342 -544.5q75 -63 158 -94t174 -31q216 0 352.5 168.5t136.5 445.5q0 157 -45.5 286t-134.5 224zM1307 1608l84 -54
l-88.5 -132.5l-57.5 -88.5q147 -112 225 -270t78 -344q0 -165 -65 -314t-185 -255q-96 -86 -223.5 -134.5t-255.5 -48.5q-111 0 -201.5 24.5t-168.5 76.5l-67.5 -109.5l-76.5 -130.5l-80 49l98 148l58 90q-135 100 -211 259t-76 343q0 315 214 529t532 214q88 0 169.5 -19
t161.5 -59q41 64 110 181z" />
    <glyph glyph-name="infinity" unicode="&#x221e;" horiz-adv-x="1706" 
d="M905 559q51 -95 119 -141.5t156 -46.5q102 0 168.5 71t66.5 181q0 108 -61 179.5t-152 71.5q-85 0 -153.5 -72.5t-143.5 -242.5zM803 666q-51 95 -119 142.5t-154 47.5q-105 0 -171 -71t-66 -183q0 -108 61 -179t152 -71q85 0 152 69t145 245zM866 494
q-71 -138 -148 -201.5t-173 -63.5q-134 0 -226 109t-92 272q0 172 82.5 277.5t214.5 105.5q97 0 172 -63t144 -203q67 138 146 204t175 66q134 0 226 -108.5t92 -272.5q0 -171 -82 -277t-213 -106q-96 0 -169 60t-149 201z" />
    <glyph glyph-name="plusminus" unicode="&#xb1;" horiz-adv-x="1706" 
d="M254 158h1198v-117h-1198v117zM795 1180h118v-344h539v-117h-539v-344h-118v344h-541v117h541v344z" />
    <glyph glyph-name="lessequal" unicode="&#x2264;" horiz-adv-x="1706" 
d="M262 150h1182v-117h-1182v117zM1444 1192v-125l-977 -324l977 -323v-125l-1182 399v101z" />
    <glyph glyph-name="greaterequal" unicode="&#x2265;" horiz-adv-x="1706" 
d="M262 150h1182v-117h-1182v117zM262 1192l1182 -397v-101l-1182 -399v125l979 323l-979 324v125z" />
    <glyph glyph-name="yen" unicode="&#xa5;" horiz-adv-x="1139" 
d="M304 0l-1 68q8 0 21.5 -1t19.5 -1q75 0 100 32.5t25 175.5v289q-103 0 -316 -4h-12l1 72q30 -1 66 -1.5t103 -0.5h160l-96 198q-50 -1 -108.5 -2.5t-124.5 -3.5l-1 76h82q42 0 67 0.5t49 1.5l-146 311q-39 86 -68.5 114t-71.5 28q-10 0 -15 -0.5t-9 -1.5v69
q65 -6 120.5 -9t98.5 -3q45 0 100 3t119 9v-69q-61 0 -86 -11.5t-25 -38.5q0 -11 9.5 -36t35.5 -84l187 -420l209 420q29 61 41 88.5t12 36.5q0 22 -21 33.5t-63 11.5h-12v69q46 -4 91.5 -6t88.5 -2q34 0 78.5 2t95.5 6v-69h-23q-69 0 -116 -93l-15 -29l-178 -329h88
q28 0 105 3q20 1 30 1v-78q-27 0 -114 1t-146 1l-106 -198h90q68 0 137 1.5t139 4.5v-72h-155h-207l2 -264v-18q2 -213 129 -213h35v-68q-85 6 -149.5 9t-108.5 3q-41 0 -163 -7q-50 -3 -78 -5z" />
    <glyph glyph-name="mu" unicode="&#xb5;" horiz-adv-x="1120" 
d="M164 193q-27 -136 -52 -339q-34 -272 -112 -272q-37 0 -58.5 23.5t-21.5 64.5q0 40 64.5 273.5t105.5 427.5l109 514h147l-104 -492q-6 -30 -9.5 -58.5t-3.5 -53.5q0 -83 42 -129t118 -46q98 0 163.5 68.5t94.5 200.5l111 510h149l-114 -531q-13 -59 -17 -87.5t-4 -49.5
q0 -48 26 -78t66 -30q35 0 65.5 18t51.5 51t41 93.5t39 60.5q12 0 19 -10t7 -27q0 -25 -11 -66.5t-29 -83.5q-38 -82 -95 -122.5t-135 -40.5q-68 0 -108.5 51t-40.5 139v23q-46 -110 -116 -164t-165 -54q-96 0 -152.5 54.5t-70.5 161.5z" />
    <glyph glyph-name="partialdiff" unicode="&#x2202;" horiz-adv-x="1044" 
d="M754 604q13 81 19.5 161.5t6.5 158.5q0 140 -39.5 216.5t-111.5 76.5q-53 0 -117 -63.5t-109 -63.5q-29 0 -51 21.5t-22 51.5q0 59 68 105.5t163 46.5q171 0 273 -152.5t102 -412.5q0 -335 -139 -555t-344 -220q-147 0 -241.5 106.5t-94.5 272.5q0 189 108.5 316
t266.5 127q99 0 162.5 -47t99.5 -146zM709 483q0 117 -45 180.5t-127 63.5q-113 0 -184.5 -127.5t-71.5 -333.5q0 -117 44 -178t128 -61q111 0 183.5 128t72.5 328z" />
    <glyph glyph-name="summation" unicode="&#x2211;" horiz-adv-x="1434" 
d="M12 1473h1135l98 -340h-74l-67 219q-8 27 -32 39t-73 12h-741l864 -850v-37l-858 -756h893q60 0 77.5 13t29.5 51l71 229h74l-135 -446h-1260v28l959 838l-961 950v50z" />
    <glyph glyph-name="product" unicode="&#x220f;" horiz-adv-x="1595" 
d="M57 1473h1479v-70h-186v-1727h186v-69h-555v69h197v1727h-762v-1727h196v-69h-555v69h187v1727h-187v70z" />
    <glyph glyph-name="integral" unicode="&#x222b;" horiz-adv-x="1024" 
d="M430 678q-4 56 -6 111t-2 110q0 290 89 466.5t230 176.5q43 0 72 -23t29 -59q0 -34 -18 -54t-50 -20q-12 0 -41.5 8.5t-46.5 8.5q-66 0 -101.5 -77.5t-35.5 -221.5q0 -76 11.5 -235.5t14.5 -220.5l17 -274q5 -74 7.5 -148.5t2.5 -155.5q0 -270 -89.5 -438.5
t-225.5 -168.5q-47 0 -76 25t-29 66q0 30 18.5 47.5t49.5 17.5q10 0 39 -6t47 -6q68 0 104.5 68.5t36.5 197.5q0 105 -21 420l-1 26z" />
    <glyph glyph-name="ordfeminine" unicode="&#xaa;" horiz-adv-x="739" 
d="M720 841l21 -44q-54 -38 -100.5 -58t-77.5 -20q-47 0 -71 26t-27 78q-82 -52 -135.5 -74t-96.5 -22q-75 0 -126.5 53.5t-51.5 130.5q0 132 306 199l108 25q1 21 1.5 42.5t0.5 51.5q0 72 -31.5 106.5t-97.5 34.5q-65 0 -102 -22t-37 -60q0 -3 1 -9t1 -9q0 -21 -23 -35
t-55 -14q-28 0 -39.5 7.5t-11.5 24.5q0 56 101 125.5t208 69.5q105 0 159 -53.5t54 -157.5q0 -56 -7 -172t-7 -176q0 -46 10.5 -62t38.5 -16q20 0 84 29zM464 1077l-37 -9q-249 -63 -249 -148q0 -46 32 -75.5t83 -29.5q32 0 74 16t96 50z" />
    <glyph glyph-name="ordmasculine" unicode="&#xba;" horiz-adv-x="846" 
d="M412 1372q-101 0 -162.5 -68t-61.5 -184q0 -147 69 -238t177 -91q106 0 168 72t62 198q0 137 -71 224t-181 87zM432 1446q158 0 261.5 -99t103.5 -245q0 -161 -109.5 -271t-269.5 -110t-263.5 100.5t-103.5 255.5q0 154 112 261.5t269 107.5z" />
    <glyph glyph-name="Omega" unicode="&#x2126;" horiz-adv-x="1567" 
d="M1100 188v-26h313l66 203h61l-108 -365h-500q134 233 202 451t68 413q0 271 -107.5 416t-308.5 145t-309 -145t-108 -416q0 -195 68 -411t204 -453h-500l-110 365h61l68 -203h311v26q-165 203 -234 361.5t-69 327.5q0 272 174.5 446t443.5 174t443 -174.5t174 -445.5
q0 -169 -69 -327.5t-234 -361.5z" />
    <glyph glyph-name="ae" unicode="&#xe6;" horiz-adv-x="1548" 
d="M801 633q198 0 311.5 7t179.5 24q-30 123 -91 188.5t-146 65.5q-96 0 -165 -77t-89 -208zM629 205l3 278q-17 -4 -53 -14q-343 -89 -343 -207q0 -64 44.5 -106.5t114.5 -42.5q46 0 101.5 21.5t132.5 70.5zM702 172q-137 -100 -228 -144t-159 -44q-102 0 -172.5 76
t-70.5 186q0 186 412 281l153 36q1 18 2 50q2 65 2 85q0 105 -43.5 154t-136.5 49q-88 0 -138.5 -30t-50.5 -83v-20q0 -39 -29 -60.5t-81 -21.5q-30 0 -46 12.5t-16 36.5q0 79 138.5 178t279.5 99q87 0 146.5 -37.5t87.5 -110.5q63 76 142.5 112t180.5 36q176 0 281 -118.5
t121 -334.5h-488q-57 0 -105 -2t-89 -6v-37q0 -196 90.5 -303t255.5 -107q73 0 145.5 24.5t151.5 76.5l39 -64q-102 -84 -205.5 -127t-202.5 -43q-116 0 -213.5 53.5t-153.5 147.5z" />
    <glyph glyph-name="oslash" unicode="&#xf8;" horiz-adv-x="1128" 
d="M786 801l-411 -639q34 -45 87.5 -69.5t117.5 -24.5q143 0 228 104.5t85 286.5q0 95 -28 184.5t-79 157.5zM731 852q-40 30 -85 44.5t-97 14.5q-141 0 -223 -101t-82 -280q0 -91 21.5 -170.5t62.5 -140.5zM909 1139l62 -37l-113 -180q98 -71 151.5 -176.5t53.5 -227.5
q0 -229 -146.5 -387t-359.5 -158q-79 0 -140.5 16.5t-113.5 51.5l-110 -174l-58 37l111 178q-85 71 -131.5 175.5t-46.5 223.5q0 223 151 376t371 153q54 0 104.5 -12t102.5 -37z" />
    <glyph glyph-name="questiondown" unicode="&#xbf;" horiz-adv-x="963" 
d="M633 1032h77q0 -20 -0.5 -44t-0.5 -73q0 -65 2 -119.5t6 -103.5q-193 -46 -301.5 -142t-108.5 -220q0 -98 68.5 -163t171.5 -65q71 0 150.5 47.5t97.5 47.5q29 0 49 -22.5t20 -55.5q0 -66 -63.5 -108t-165.5 -42q-199 0 -331 118t-132 294q0 137 76.5 232.5t281.5 195.5
l18 8q85 39 85 170v45zM670 1460l69 -53q28 -21 41 -42t13 -44t-10.5 -39.5t-39.5 -38.5l-73 -57l-72 53q-29 22 -41 42t-12 44q0 23 10 39.5t39 38.5z" />
    <glyph glyph-name="exclamdown" unicode="&#xa1;" horiz-adv-x="690" 
d="M264 1036h82q3 -205 15.5 -464.5t33.5 -571.5h-206q2 190 34.5 542t40.5 494zM311 1460l70 -53q27 -21 40 -42t13 -44t-10 -39.5t-39 -38.5l-74 -57l-71 53q-29 22 -41.5 42t-12.5 44q0 23 10.5 39.5t39.5 38.5z" />
    <glyph glyph-name="logicalnot" unicode="&#xac;" horiz-adv-x="1706" 
d="M254 858h1198v-502h-115v385h-1083v117z" />
    <glyph glyph-name="radical" unicode="&#x221a;" horiz-adv-x="1288" 
d="M1106 1647h182v-82h-119l-594 -1606h-53l-323 893l-119 -43l-23 68l262 92l265 -729z" />
    <glyph glyph-name="florin" unicode="&#x192;" horiz-adv-x="1139" 
d="M623 791h65h76q23 0 50 0.5t56 1.5l-14 -90q-36 1 -83 1.5t-163 0.5q-43 -536 -164 -805t-319 -269q-64 0 -102.5 27t-38.5 70q0 27 17.5 45t43.5 18q14 0 61.5 -18.5t81.5 -18.5q179 0 244 872l6 79q-10 0 -42.5 -1.5t-55.5 -1.5h-106l14 89h78h61h60
q30 288 184.5 471.5t355.5 183.5q76 0 123 -28t47 -72q0 -33 -19.5 -54.5t-49.5 -21.5q-20 0 -75.5 32.5t-105.5 32.5q-122 0 -195 -139t-91 -405z" />
    <glyph glyph-name="approxequal" unicode="&#x2248;" horiz-adv-x="1706" 
d="M1530 584v-131q-107 -75 -202 -110.5t-187 -35.5q-98 0 -288 69.5t-290 69.5q-82 0 -169.5 -35.5t-215.5 -123.5v131q108 74 203.5 110.5t183.5 36.5q111 0 301.5 -69.5t276.5 -69.5q85 0 173.5 35.5t213.5 122.5zM1530 934v-131q-104 -73 -200 -108.5t-187 -35.5
q-100 0 -290 69t-290 69q-83 0 -171.5 -36t-213.5 -122v131q106 73 202 109t185 36q111 0 300.5 -68.5t277.5 -68.5q87 0 175 35t212 121z" />
    <glyph glyph-name="Delta" unicode="&#x2206;" horiz-adv-x="1208" 
d="M555 1212l-389 -1042h768zM596 1497h29l555 -1497h-1151z" />
    <glyph glyph-name="guillemotleft" unicode="&#xab;" horiz-adv-x="856" 
d="M676 117l-161 263l-66 107l61 101l166 278l82 -37l-60.5 -144.5l-81.5 -195.5l64.5 -160l71.5 -177zM365 109q-76 108 -149 201t-148 175q79 90 153.5 187t145.5 200l75 -45l-88.5 -168l-85.5 -170l87 -174l87 -163z" />
    <glyph glyph-name="guillemotright" unicode="&#xbb;" horiz-adv-x="856" 
d="M182 862l105 -174.5l122 -196.5l-9 -15l-220 -363l-80 39l64 155.5l76 184.5l-45 112l-89 223zM492 872q63 -94 137.5 -188t161.5 -190q-79 -90 -154 -187t-145 -201l-76 46l97.5 185.5l76.5 151.5l-91.5 184.5l-82.5 155.5z" />
    <glyph glyph-name="ellipsis" unicode="&#x2026;" horiz-adv-x="2048" 
d="M323 260l80 -59q33 -25 48.5 -45.5t15.5 -38.5q0 -24 -13.5 -44t-46.5 -44l-78 -58l-73 58q-36 26 -50 46t-14 42q0 19 10.5 35.5t49.5 48.5zM1005 260l80 -59q33 -25 48.5 -45.5t15.5 -38.5q0 -24 -13.5 -44t-46.5 -44l-78 -58l-73 58q-36 26 -50 46t-14 42
q0 19 10.5 35.5t49.5 48.5zM1689 260l80 -59q33 -25 48.5 -45.5t15.5 -38.5q0 -24 -13.5 -44t-46.5 -44l-78 -58l-73 58q-36 26 -50 46t-14 42q0 19 10.5 35.5t49.5 48.5z" />
    <glyph glyph-name="nonbreakingspace" unicode="&#xa0;" horiz-adv-x="1139" 
 />
    <glyph glyph-name="Agrave" unicode="&#xc0;" horiz-adv-x="1479" 
d="M698 1239l-229 -598q19 0 55 -1q113 -3 154 -3q50 0 181 3q29 1 44 1zM653 1427h172l246.5 -725t183.5 -493q40 -95 69 -117t83 -22h20v-70q-78 4 -142.5 6t-108.5 2q-56 0 -123 -2t-142 -6v70h19q71 0 97 16.5t26 60.5q0 16 -4 35.5t-13 46.5l-98 306q-38 0 -104 1
q-120 3 -154 3q-68 0 -128.5 -0.5t-125.5 -2.5q-71 -179 -97 -261t-26 -117q0 -49 26 -68.5t93 -19.5h27v-70q-73 4 -136.5 6t-113.5 2q-40 0 -100 -2t-130 -6v69q71 2 112.5 28.5t72.5 88.5q56 117 198.5 468.5zM626 2001l265 -405l-76 -25l-336 340z" />
    <glyph glyph-name="Atilde" unicode="&#xc3;" horiz-adv-x="1479" 
d="M698 1239l-229 -598q19 0 55 -1q113 -3 154 -3q50 0 181 3q29 1 44 1zM653 1427h172l246.5 -725t183.5 -493q40 -95 69 -117t83 -22h20v-70q-78 4 -142.5 6t-108.5 2q-56 0 -123 -2t-142 -6v70h19q71 0 97 16.5t26 60.5q0 16 -4 35.5t-13 46.5l-98 306q-38 0 -104 1
q-120 3 -154 3q-68 0 -128.5 -0.5t-125.5 -2.5q-71 -179 -97 -261t-26 -117q0 -49 26 -68.5t93 -19.5h27v-70q-73 4 -136.5 6t-113.5 2q-40 0 -100 -2t-130 -6v69q71 2 112.5 28.5t72.5 88.5q56 117 198.5 468.5zM1069 1899l53 -43q-53 -69 -107 -119t-117 -86
q-71 5 -173 21t-133 16q-60 0 -107 -23.5t-86 -72.5l-49 47q52 68 110 118.5t125 86.5q72 -6 174.5 -22.5t135.5 -16.5q51 0 94 23.5t80 70.5z" />
    <glyph glyph-name="Otilde" unicode="&#xd5;" horiz-adv-x="1642" 
d="M1327 684q0 291 -150 477.5t-378 186.5q-219 0 -351.5 -160t-132.5 -428q0 -298 150.5 -489t376.5 -191q218 0 351.5 164.5t133.5 439.5zM821 1460q152 0 271.5 -43.5t216.5 -134.5q116 -110 177.5 -255t61.5 -308q0 -166 -65 -314t-185 -255q-96 -86 -223.5 -134.5
t-255.5 -48.5q-160 0 -294.5 59t-237.5 175q-94 106 -143.5 238t-49.5 278q0 158 59.5 298.5t172.5 246.5q102 96 230 147t265 51zM1151 1899l53 -43q-53 -69 -107 -119t-117 -86q-71 5 -173 21t-133 16q-60 0 -107 -23.5t-86 -72.5l-49 47q52 68 110 118.5t125 86.5
q72 -6 174.5 -22.5t135.5 -16.5q51 0 94 23.5t80 70.5z" />
    <glyph glyph-name="OE" unicode="&#x152;" horiz-adv-x="2224" 
d="M1268 645q0 329 -127 515t-350 186q-220 0 -355 -163.5t-135 -434.5q0 -294 152 -481t387 -187q193 0 310.5 154t117.5 411zM2046 1430v-39q0 -75 5 -143.5t15 -133.5l-71 -8q-12 104 -55 144t-193 53q-92 8 -426 12q-110 1 -170 2q144 -102 224.5 -237.5t97.5 -303.5h34
h18q59 -2 111 -2q211 0 256.5 27.5t47.5 105.5l65 -4q-8 -73 -11 -120.5t-3 -82.5q0 -30 5 -119l3 -44l-66 -5v5q0 82 -53.5 111.5t-245.5 29.5h-121h-38q-5 -186 -82 -329.5t-226 -244.5q14 0 124.5 1t207.5 1h105q176 0 243.5 9t102.5 30q38 23 68.5 69t54.5 120l71 -23
q-30 -84 -52 -162t-36 -153q-142 7 -303 10.5t-344 3.5q-170 0 -363.5 -19.5t-222.5 -19.5q-324 0 -531.5 208t-207.5 528q0 318 213 528.5t545 210.5q11 0 252 -17.5t475 -17.5q190 0 295 4.5t182 14.5z" />
    <glyph glyph-name="oe" unicode="&#x153;" horiz-adv-x="1796" 
d="M1049 633q198 0 311.5 7t179.5 24q-30 123 -91 188.5t-146 65.5q-96 0 -165 -77t-89 -208zM252 528q0 -200 91.5 -328t234.5 -128q140 0 223.5 104t83.5 283q0 197 -94 321.5t-242 124.5q-138 0 -217.5 -100t-79.5 -277zM950 180q-77 -102 -179 -155.5t-218 -53.5
q-212 0 -348.5 144.5t-136.5 365.5q0 219 149.5 374t355.5 155q129 0 226.5 -51.5t171.5 -157.5q62 98 155.5 153.5t196.5 55.5q176 0 281 -118t120 -333h-487q-57 0 -105 -2t-90 -6v-37q0 -196 91 -303t256 -107q73 0 145.5 24.5t151.5 76.5l36 -64q-101 -83 -204 -126.5
t-201 -43.5q-114 0 -207.5 53.5t-159.5 155.5z" />
    <glyph glyph-name="endash" unicode="&#x2013;" horiz-adv-x="1024" 
d="M35 557h989l-35 -108h-989z" />
    <glyph glyph-name="emdash" unicode="&#x2014;" horiz-adv-x="2048" 
d="M35 557h2013l-35 -108h-2013z" />
    <glyph glyph-name="quotedblleft" unicode="&#x201c;" horiz-adv-x="971" 
d="M799 1493l53 -66q-66 -51 -106.5 -109.5t-59.5 -133.5q59 -37 79.5 -61t20.5 -50q0 -20 -13 -38.5t-60 -57.5l-60 -47q-80 61 -106.5 99t-26.5 83q0 73 75.5 178t203.5 203zM395 1493l54 -66q-66 -51 -106 -110.5t-58 -132.5q56 -36 77 -60t21 -51q0 -20 -13.5 -38.5
t-60.5 -57.5l-57 -47q-82 62 -108.5 100t-26.5 82q0 73 75.5 178t202.5 203z" />
    <glyph glyph-name="quotedblright" unicode="&#x201d;" horiz-adv-x="971" 
d="M696 1458q82 -62 107.5 -99.5t25.5 -82.5q0 -74 -74.5 -178.5t-201.5 -202.5l-55 66q66 52 106 111t60 132q-57 35 -79 60t-22 51q0 20 13.5 38.5t60.5 57.5zM293 1458q84 -64 109.5 -101t25.5 -81q0 -73 -75.5 -178t-202.5 -203l-54 66q66 51 106 110.5t58 132.5
q-54 34 -76 59t-22 52q0 20 13 38.5t61 57.5z" />
    <glyph glyph-name="quoteleft" unicode="&#x2018;" horiz-adv-x="569" 
d="M395 1493l56 -66q-67 -52 -107.5 -112t-58.5 -131q56 -36 77 -60t21 -51q0 -21 -13.5 -40.5t-58.5 -55.5l-59 -47q-82 62 -108.5 100t-26.5 82q0 73 75.5 178t202.5 203z" />
    <glyph glyph-name="quoteright" unicode="&#x2019;" horiz-adv-x="569" 
d="M293 1458q84 -64 109.5 -101t25.5 -81q0 -73 -75.5 -178t-202.5 -203l-54 66q66 51 106 110.5t58 132.5q-54 34 -76 59t-22 52q0 20 13 38.5t61 57.5z" />
    <glyph glyph-name="divide" unicode="&#xf7;" horiz-adv-x="1706" 
d="M854 365q47 0 81 -34t34 -81t-33.5 -81t-81.5 -34t-81.5 33.5t-33.5 81.5t34 81.5t81 33.5zM254 670h1198v-117h-1198v117zM854 1085q48 0 81.5 -33.5t33.5 -80.5q0 -48 -33.5 -81.5t-81.5 -33.5q-49 0 -82 33.5t-33 81.5q0 47 34 80.5t81 33.5z" />
    <glyph glyph-name="lozenge" unicode="&#x25ca;" horiz-adv-x="1012" 
d="M506 1409l-385 -817l385 -825l385 825zM506 1653l500 -1061l-500 -1069l-500 1069z" />
    <glyph glyph-name="ydieresis" unicode="&#xff;" horiz-adv-x="995" 
d="M0 980q75 -5 120 -7t77 -2q30 0 76.5 2t129.5 8v-70h-26q-50 0 -70 -13.5t-20 -47.5q0 -26 88 -264l139 -381q139 330 195.5 476t56.5 175t-22 42t-72 13h-15v70q45 -4 88.5 -6t83.5 -2q33 0 76 2t92 6v-70h-8q-33 0 -55.5 -14.5t-38.5 -46.5q-2 -5 -17 -39l-227 -514
l-153 -355q-200 -474 -308 -474q-40 0 -67 26t-27 66q0 55 77 69q31 5 44 11q56 22 161 254l46 102l-170 457q-167 460 -238 460q-6 0 -9.5 -0.5t-6.5 -0.5v68zM713 1411q39 0 83 -40t44 -77q0 -36 -44 -76t-83 -40q-40 0 -82.5 39.5t-42.5 76.5q0 36 43 76.5t82 40.5z
M287 1411q39 0 82 -40t43 -77q0 -36 -43 -76t-82 -40q-40 0 -82.5 39.5t-42.5 76.5q0 36 43 76.5t82 40.5z" />
    <glyph glyph-name="Ydieresis" unicode="&#x178;" horiz-adv-x="1350" 
d="M18 1427q74 -4 139 -6t115 -2q54 0 116 2t130 6v-69h-14q-55 0 -84 -11.5t-29 -33.5q0 -24 49 -108l21 -36l241 -430q164 263 246 406t82 166q0 24 -24.5 35.5t-79.5 11.5h-17v69q60 -4 114 -6t95 -2q51 0 104 2t109 6v-69q-2 1 -5 1.5t-9 0.5h-12q-89 0 -231 -228
l-70 -112l-252 -385l4 -357q2 -139 32 -173.5t119 -34.5h35v-70q-83 4 -157.5 6t-133.5 2q-50 0 -124.5 -2t-161.5 -6v70q7 0 21 -1t20 -1q87 0 118 40t33 166l4 355l-323 545q-9 13 -23 38q-89 150 -162 150q-5 0 -12.5 -1l-21.5 -3zM889 1862q39 0 83 -40t44 -77
q0 -36 -44 -76t-83 -40q-40 0 -82.5 39.5t-42.5 76.5q0 36 43 76.5t82 40.5zM463 1862q39 0 82 -40t43 -77q0 -36 -43 -76t-82 -40q-40 0 -82.5 39.5t-42.5 76.5q0 36 43 76.5t82 40.5z" />
    <glyph glyph-name="fraction" unicode="&#x2044;" horiz-adv-x="342" 
d="M608 1456l76 -49l-439 -656l-511 -794l-78 51l424.5 631.5z" />
    <glyph glyph-name="currency" unicode="&#xa4;" horiz-adv-x="1241" 
d="M623 1200q-130 0 -222 -92t-92 -221q0 -131 91.5 -223.5t222.5 -92.5q129 0 221 93t92 223q0 129 -91.5 221t-221.5 92zM158 1419l207 -207q60 46 122.5 68.5t133.5 22.5t135.5 -22.5t124.5 -68.5l204 207l72 -73l-205 -205q43 -57 64.5 -121t21.5 -135t-21.5 -135.5
t-64.5 -120.5l205 -205l-72 -74l-204 207q-57 -44 -121.5 -66t-138.5 -22t-136.5 21.5t-119.5 66.5l-207 -207l-72 74l207 205q-44 58 -66 122t-22 134q0 69 22 133.5t66 122.5l-207 205z" />
    <glyph glyph-name="guilsinglleft" unicode="&#x2039;" horiz-adv-x="543" 
d="M365 109q-76 108 -149 201t-148 175q79 90 153.5 187t145.5 200l75 -45l-88.5 -168l-85.5 -170l87 -174l87 -163z" />
    <glyph glyph-name="guilsinglright" unicode="&#x203a;" horiz-adv-x="543" 
d="M176 872q64 -94 138 -188t161 -190q-79 -90 -154 -187t-145 -201l-76 46l98 185.5l76 151.5l-90.5 184.5l-83.5 155.5z" />
    <glyph glyph-name="daggerdbl" unicode="&#x2021;" horiz-adv-x="1024" 
d="M512 563l131 -207q-40 -46 -61.5 -103t-26.5 -132q74 6 138.5 28.5t123.5 61.5l68 -127l-68 -123q-63 42 -127.5 63.5t-134.5 24.5q12 -88 32.5 -153.5t51.5 -114.5l-127 -76l-127 76q33 54 53.5 119.5t30.5 148.5q-69 -3 -132.5 -24.5t-127.5 -63.5l-70 123l68 127
q59 -39 123.5 -61.5t138.5 -28.5q-3 74 -24 131t-62 104zM512 1460l127 -76q-32 -50 -52.5 -115t-31.5 -152q69 2 133.5 23.5t128.5 63.5l68 -123l-68 -127q-60 40 -124 62t-138 28q5 -74 26.5 -131.5t61.5 -103.5l-131 -221l-129 221q41 47 62 104t24 131q-74 -6 -138 -28
t-124 -62l-68 127l70 123q64 -42 127.5 -63.5t132.5 -23.5q-10 82 -30.5 147.5t-53.5 119.5z" />
    <glyph glyph-name="middot.001" unicode="&#xb7;" horiz-adv-x="569" 
d="M285 887q68 0 116 -48t48 -116t-48.5 -116t-115.5 -48q-66 0 -115 49t-49 115q0 67 48 115.5t116 48.5z" />
    <glyph glyph-name="quotesinglbase" unicode="&#x201a;" horiz-adv-x="569" 
d="M276 252q83 -63 108.5 -100t25.5 -82q0 -74 -75 -178.5t-202 -202.5l-55 65q66 52 107 112t59 132q-57 35 -79 60t-22 51q0 19 13.5 38t60.5 58z" />
    <glyph glyph-name="quotedblbase" unicode="&#x201e;" horiz-adv-x="971" 
d="M678 252q84 -64 109.5 -101t25.5 -81q0 -74 -75.5 -178.5t-202.5 -202.5l-54 65q67 52 107.5 112t58.5 132q-56 35 -78 60t-22 51q0 19 13 38t61 58zM276 252q83 -63 108.5 -100t25.5 -82q0 -74 -75 -178.5t-202 -202.5l-55 65q66 52 107 112t59 132q-57 35 -79 60
t-22 51q0 19 13.5 38t60.5 58z" />
    <glyph glyph-name="perthousand" unicode="&#x2030;" horiz-adv-x="2511" 
d="M2064 688q-76 0 -113.5 -72.5t-37.5 -220.5q0 -168 43.5 -259t124.5 -91q74 0 111.5 71t37.5 214q0 174 -42.5 266t-123.5 92zM1307 688q-77 0 -114.5 -72.5t-37.5 -220.5q0 -169 43 -259.5t123 -90.5q75 0 113.5 71.5t38.5 213.5q0 174 -43 266t-123 92zM1761 358
q0 182 88.5 292t233.5 110q134 0 217.5 -103t83.5 -270q0 -191 -87.5 -303.5t-234.5 -112.5q-137 0 -219 105t-82 282zM1004 358q0 182 88 292t233 110q135 0 218 -103t83 -270q0 -191 -87.5 -303.5t-233.5 -112.5q-138 0 -219.5 105t-81.5 282zM412 1372
q-77 0 -114.5 -71.5t-37.5 -219.5q0 -168 43.5 -259t124.5 -91q75 0 112.5 71t37.5 214q0 173 -43 264.5t-123 91.5zM1253 1460l78 -43l-487.5 -827l-370.5 -637l-78 39l815 1399q-103 -63 -184 -92t-149 -29q-49 0 -102.5 14t-117.5 43q36 -48 55 -117t19 -151
q0 -180 -89.5 -291t-231.5 -111q-138 0 -219.5 105t-81.5 282q0 182 87.5 292t231.5 110q31 0 64.5 -6.5t72.5 -20.5q113 -37 185 -52t129 -15q76 0 172.5 28t201.5 80z" />
    <glyph glyph-name="Acircumflex" unicode="&#xc2;" horiz-adv-x="1479" 
d="M698 1239l-229 -598q19 0 55 -1q113 -3 154 -3q50 0 181 3q29 1 44 1zM653 1427h172l246.5 -725t183.5 -493q40 -95 69 -117t83 -22h20v-70q-78 4 -142.5 6t-108.5 2q-56 0 -123 -2t-142 -6v70h19q71 0 97 16.5t26 60.5q0 16 -4 35.5t-13 46.5l-98 306q-38 0 -104 1
q-120 3 -154 3q-68 0 -128.5 -0.5t-125.5 -2.5q-71 -179 -97 -261t-26 -117q0 -49 26 -68.5t93 -19.5h27v-70q-73 4 -136.5 6t-113.5 2q-40 0 -100 -2t-130 -6v69q71 2 112.5 28.5t72.5 88.5q56 117 198.5 468.5zM710 1924h62l272 -322l-61 -31l-244 203l-244 -203l-59 31z
" />
    <glyph glyph-name="Ecircumflex" unicode="&#xca;" horiz-adv-x="1298" 
d="M98 1427q175 -6 313 -9t238 -3q111 0 224.5 3t230.5 9q1 -75 6 -153.5t12 -157.5l-67 -6q-8 120 -74 162.5t-285 42.5q-56 0 -205 -3q-30 -1 -44 -1q-2 -120 -6 -294t-5 -226h31q59 0 147.5 -1.5t118.5 -1.5q145 0 191.5 27t50.5 100l63 -6q-7 -62 -10.5 -115t-3.5 -98
q0 -26 5 -112l3 -47l-65 -2v8q0 85 -49.5 115t-231.5 30h-178h-72q0 -49 -1 -135.5t-1 -124.5q0 -66 1 -137.5t4 -167.5q50 -6 113.5 -9t139.5 -3q251 0 330.5 48.5t126.5 186.5l72 -24q-30 -83 -53 -163t-40 -159q-157 6 -292 9t-244 3q-149 0 -480 -11l-36 -1v65
q7 -1 13.5 -1.5t19.5 -0.5q133 0 135 374q1 94 2 147l4 273q1 88 1.5 171t0.5 180q0 86 -32 119t-114 33h-8v67zM620 1924h62l272 -322l-61 -31l-244 203l-244 -203l-59 31z" />
    <glyph glyph-name="Aacute" unicode="&#xc1;" horiz-adv-x="1479" 
d="M698 1239l-229 -598q19 0 55 -1q113 -3 154 -3q50 0 181 3q29 1 44 1zM653 1427h172l246.5 -725t183.5 -493q40 -95 69 -117t83 -22h20v-70q-78 4 -142.5 6t-108.5 2q-56 0 -123 -2t-142 -6v70h19q71 0 97 16.5t26 60.5q0 16 -4 35.5t-13 46.5l-98 306q-38 0 -104 1
q-120 3 -154 3q-68 0 -128.5 -0.5t-125.5 -2.5q-71 -179 -97 -261t-26 -117q0 -49 26 -68.5t93 -19.5h27v-70q-73 4 -136.5 6t-113.5 2q-40 0 -100 -2t-130 -6v69q71 2 112.5 28.5t72.5 88.5q56 117 198.5 468.5zM856 2001l149 -96l-334 -334l-75 27z" />
    <glyph glyph-name="Edieresis" unicode="&#xcb;" horiz-adv-x="1298" 
d="M98 1427q175 -6 313 -9t238 -3q111 0 224.5 3t230.5 9q1 -75 6 -153.5t12 -157.5l-67 -6q-8 120 -74 162.5t-285 42.5q-56 0 -205 -3q-30 -1 -44 -1q-2 -120 -6 -294t-5 -226h31q59 0 147.5 -1.5t118.5 -1.5q145 0 191.5 27t50.5 100l63 -6q-7 -62 -10.5 -115t-3.5 -98
q0 -26 5 -112l3 -47l-65 -2v8q0 85 -49.5 115t-231.5 30h-178h-72q0 -49 -1 -135.5t-1 -124.5q0 -66 1 -137.5t4 -167.5q50 -6 113.5 -9t139.5 -3q251 0 330.5 48.5t126.5 186.5l72 -24q-30 -83 -53 -163t-40 -159q-157 6 -292 9t-244 3q-149 0 -480 -11l-36 -1v65
q7 -1 13.5 -1.5t19.5 -0.5q133 0 135 374q1 94 2 147l4 273q1 88 1.5 171t0.5 180q0 86 -32 119t-114 33h-8v67zM862 1862q39 0 83 -40t44 -77q0 -36 -44 -76t-83 -40q-40 0 -82.5 39.5t-42.5 76.5q0 36 43 76.5t82 40.5zM436 1862q39 0 82 -40t43 -77q0 -36 -43 -76
t-82 -40q-40 0 -82.5 39.5t-42.5 76.5q0 36 43 76.5t82 40.5z" />
    <glyph glyph-name="Egrave" unicode="&#xc8;" horiz-adv-x="1298" 
d="M98 1427q175 -6 313 -9t238 -3q111 0 224.5 3t230.5 9q1 -75 6 -153.5t12 -157.5l-67 -6q-8 120 -74 162.5t-285 42.5q-56 0 -205 -3q-30 -1 -44 -1q-2 -120 -6 -294t-5 -226h31q59 0 147.5 -1.5t118.5 -1.5q145 0 191.5 27t50.5 100l63 -6q-7 -62 -10.5 -115t-3.5 -98
q0 -26 5 -112l3 -47l-65 -2v8q0 85 -49.5 115t-231.5 30h-178h-72q0 -49 -1 -135.5t-1 -124.5q0 -66 1 -137.5t4 -167.5q50 -6 113.5 -9t139.5 -3q251 0 330.5 48.5t126.5 186.5l72 -24q-30 -83 -53 -163t-40 -159q-157 6 -292 9t-244 3q-149 0 -480 -11l-36 -1v65
q7 -1 13.5 -1.5t19.5 -0.5q133 0 135 374q1 94 2 147l4 273q1 88 1.5 171t0.5 180q0 86 -32 119t-114 33h-8v67zM536 2001l265 -405l-76 -25l-336 340z" />
    <glyph glyph-name="Iacute" unicode="&#xcd;" horiz-adv-x="696" 
d="M76 1427q70 -4 139 -6t135 -2q56 0 125 2t146 6v-69h-17q-65 0 -97.5 -15t-45.5 -50q-8 -23 -11.5 -74.5t-3.5 -167.5v-199v-498q0 -118 5.5 -166t17.5 -71q13 -25 46.5 -36t94.5 -11h21v-70q-86 4 -159 6t-122 2q-58 0 -131 -2t-153 -6v70h20q62 0 95 11t46 36
q14 27 19.5 88.5t5.5 222.5v158v391q0 157 -4 223.5t-13 92.5q-12 35 -43.5 50t-97.5 15h-18v69zM467 2001l149 -96l-334 -334l-75 27z" />
    <glyph glyph-name="Icircumflex" unicode="&#xce;" horiz-adv-x="696" 
d="M76 1427q70 -4 139 -6t135 -2q56 0 125 2t146 6v-69h-17q-65 0 -97.5 -15t-45.5 -50q-8 -23 -11.5 -74.5t-3.5 -167.5v-199v-498q0 -118 5.5 -166t17.5 -71q13 -25 46.5 -36t94.5 -11h21v-70q-86 4 -159 6t-122 2q-58 0 -131 -2t-153 -6v70h20q62 0 95 11t46 36
q14 27 19.5 88.5t5.5 222.5v158v391q0 157 -4 223.5t-13 92.5q-12 35 -43.5 50t-97.5 15h-18v69zM321 1924h62l272 -322l-61 -31l-244 203l-244 -203l-59 31z" />
    <glyph glyph-name="Idieresis" unicode="&#xcf;" horiz-adv-x="696" 
d="M76 1427q70 -4 139 -6t135 -2q56 0 125 2t146 6v-69h-17q-65 0 -97.5 -15t-45.5 -50q-8 -23 -11.5 -74.5t-3.5 -167.5v-199v-498q0 -118 5.5 -166t17.5 -71q13 -25 46.5 -36t94.5 -11h21v-70q-86 4 -159 6t-122 2q-58 0 -131 -2t-153 -6v70h20q62 0 95 11t46 36
q14 27 19.5 88.5t5.5 222.5v158v391q0 157 -4 223.5t-13 92.5q-12 35 -43.5 50t-97.5 15h-18v69zM563 1862q39 0 83 -40t44 -77q0 -36 -44 -76t-83 -40q-40 0 -82.5 39.5t-42.5 76.5q0 36 43 76.5t82 40.5zM137 1862q39 0 82 -40t43 -77q0 -36 -43 -76t-82 -40
q-40 0 -82.5 39.5t-42.5 76.5q0 36 43 76.5t82 40.5z" />
    <glyph glyph-name="Igrave" unicode="&#xcc;" horiz-adv-x="696" 
d="M76 1427q70 -4 139 -6t135 -2q56 0 125 2t146 6v-69h-17q-65 0 -97.5 -15t-45.5 -50q-8 -23 -11.5 -74.5t-3.5 -167.5v-199v-498q0 -118 5.5 -166t17.5 -71q13 -25 46.5 -36t94.5 -11h21v-70q-86 4 -159 6t-122 2q-58 0 -131 -2t-153 -6v70h20q62 0 95 11t46 36
q14 27 19.5 88.5t5.5 222.5v158v391q0 157 -4 223.5t-13 92.5q-12 35 -43.5 50t-97.5 15h-18v69zM237 2001l265 -405l-76 -25l-336 340z" />
    <glyph glyph-name="Oacute" unicode="&#xd3;" horiz-adv-x="1642" 
d="M1327 684q0 291 -150 477.5t-378 186.5q-219 0 -351.5 -160t-132.5 -428q0 -298 150.5 -489t376.5 -191q218 0 351.5 164.5t133.5 439.5zM821 1460q152 0 271.5 -43.5t216.5 -134.5q116 -110 177.5 -255t61.5 -308q0 -166 -65 -314t-185 -255q-96 -86 -223.5 -134.5
t-255.5 -48.5q-160 0 -294.5 59t-237.5 175q-94 106 -143.5 238t-49.5 278q0 158 59.5 298.5t172.5 246.5q102 96 230 147t265 51zM938 2001l149 -96l-334 -334l-75 27z" />
    <glyph glyph-name="Ocircumflex" unicode="&#xd4;" horiz-adv-x="1642" 
d="M1327 684q0 291 -150 477.5t-378 186.5q-219 0 -351.5 -160t-132.5 -428q0 -298 150.5 -489t376.5 -191q218 0 351.5 164.5t133.5 439.5zM821 1460q152 0 271.5 -43.5t216.5 -134.5q116 -110 177.5 -255t61.5 -308q0 -166 -65 -314t-185 -255q-96 -86 -223.5 -134.5
t-255.5 -48.5q-160 0 -294.5 59t-237.5 175q-94 106 -143.5 238t-49.5 278q0 158 59.5 298.5t172.5 246.5q102 96 230 147t265 51zM792 1924h62l272 -322l-61 -31l-244 203l-244 -203l-59 31z" />
    <glyph glyph-name="Ograve" unicode="&#xd2;" horiz-adv-x="1642" 
d="M1327 684q0 291 -150 477.5t-378 186.5q-219 0 -351.5 -160t-132.5 -428q0 -298 150.5 -489t376.5 -191q218 0 351.5 164.5t133.5 439.5zM821 1460q152 0 271.5 -43.5t216.5 -134.5q116 -110 177.5 -255t61.5 -308q0 -166 -65 -314t-185 -255q-96 -86 -223.5 -134.5
t-255.5 -48.5q-160 0 -294.5 59t-237.5 175q-94 106 -143.5 238t-49.5 278q0 158 59.5 298.5t172.5 246.5q102 96 230 147t265 51zM708 2001l265 -405l-76 -25l-336 340z" />
    <glyph glyph-name="Uacute" unicode="&#xda;" horiz-adv-x="1612" 
d="M598 1427v-69q-6 0 -17 1t-16 1q-79 0 -107 -52t-28 -247v-158v-207q0 -162 10 -239t33 -127q49 -108 144.5 -164.5t230.5 -56.5q101 0 177 29t130 89t76 147t22 290q0 244 -5.5 410.5t-14.5 201.5q-14 46 -43.5 64t-95.5 18h-15v69q12 0 35 -1q138 -7 197 -7q58 0 196 7
q24 1 35 1v-69h-12q-59 0 -88.5 -15t-42.5 -50q-11 -29 -16 -152.5t-5 -399.5v-100q0 -158 -12 -241.5t-39 -147.5q-56 -133 -193 -209t-323 -76q-129 0 -237.5 38t-184.5 110q-83 76 -118 179.5t-35 289.5q0 72 2 235.5t2 255.5v31q0 172 -28.5 212t-111.5 40h-18v69
q71 -4 135 -6t117 -2q64 0 130 2t134 6zM955 2001l149 -96l-334 -334l-75 27z" />
    <glyph glyph-name="Ucircumflex" unicode="&#xdb;" horiz-adv-x="1612" 
d="M598 1427v-69q-6 0 -17 1t-16 1q-79 0 -107 -52t-28 -247v-158v-207q0 -162 10 -239t33 -127q49 -108 144.5 -164.5t230.5 -56.5q101 0 177 29t130 89t76 147t22 290q0 244 -5.5 410.5t-14.5 201.5q-14 46 -43.5 64t-95.5 18h-15v69q12 0 35 -1q138 -7 197 -7q58 0 196 7
q24 1 35 1v-69h-12q-59 0 -88.5 -15t-42.5 -50q-11 -29 -16 -152.5t-5 -399.5v-100q0 -158 -12 -241.5t-39 -147.5q-56 -133 -193 -209t-323 -76q-129 0 -237.5 38t-184.5 110q-83 76 -118 179.5t-35 289.5q0 72 2 235.5t2 255.5v31q0 172 -28.5 212t-111.5 40h-18v69
q71 -4 135 -6t117 -2q64 0 130 2t134 6zM809 1924h62l272 -322l-61 -31l-244 203l-244 -203l-59 31z" />
    <glyph glyph-name="Ugrave" unicode="&#xd9;" horiz-adv-x="1612" 
d="M598 1427v-69q-6 0 -17 1t-16 1q-79 0 -107 -52t-28 -247v-158v-207q0 -162 10 -239t33 -127q49 -108 144.5 -164.5t230.5 -56.5q101 0 177 29t130 89t76 147t22 290q0 244 -5.5 410.5t-14.5 201.5q-14 46 -43.5 64t-95.5 18h-15v69q12 0 35 -1q138 -7 197 -7q58 0 196 7
q24 1 35 1v-69h-12q-59 0 -88.5 -15t-42.5 -50q-11 -29 -16 -152.5t-5 -399.5v-100q0 -158 -12 -241.5t-39 -147.5q-56 -133 -193 -209t-323 -76q-129 0 -237.5 38t-184.5 110q-83 76 -118 179.5t-35 289.5q0 72 2 235.5t2 255.5v31q0 172 -28.5 212t-111.5 40h-18v69
q71 -4 135 -6t117 -2q64 0 130 2t134 6zM725 2001l265 -405l-76 -25l-336 340z" />
    <glyph glyph-name="dotlessi" unicode="&#x131;" horiz-adv-x="608" 
d="M395 1022q-1 -38 -3 -108q-13 -402 -13 -566v-106q0 -114 21.5 -143t86.5 -29h21h10v-70q-85 6 -137 8t-88 2q-32 0 -81.5 -2t-148.5 -8v70h25q124 0 125 244v55l4 247q0 27 1 68t1 55q0 81 -15.5 107t-56.5 26q-8 0 -23.5 -1.5t-33.5 -3.5l-10 63q79 15 157.5 38
t157.5 54z" />
    <glyph glyph-name="circumflex" unicode="&#x2c6;" horiz-adv-x="1024" 
d="M483 1473h62l272 -322l-61 -31l-244 203l-244 -203l-59 31z" />
    <glyph glyph-name="tilde" unicode="&#x2dc;" horiz-adv-x="1024" 
d="M842 1448l53 -43q-53 -69 -107 -119t-117 -86q-71 5 -173 21t-133 16q-60 0 -107 -23.5t-86 -72.5l-49 47q52 68 110 118.5t125 86.5q72 -6 174.5 -22.5t135.5 -16.5q51 0 94 23.5t80 70.5z" />
    <glyph glyph-name="macron" unicode="&#x2c9;" horiz-adv-x="1024" 
d="M252 1358h518v-127h-518v127z" />
    <glyph glyph-name="breve" unicode="&#x2d8;" horiz-adv-x="1024" 
d="M301 1434q29 -77 79 -111.5t132 -34.5q81 0 132 35t79 111l63 -21q-35 -128 -104 -193t-170 -65q-100 0 -169.5 65.5t-104.5 192.5z" />
    <glyph glyph-name="dotaccent" unicode="&#x2d9;" horiz-adv-x="1024" 
d="M512 1417q41 0 86 -42t45 -81q0 -38 -44.5 -79t-86.5 -41q-41 0 -86 41.5t-45 78.5q0 38 45 80.5t86 42.5z" />
    <glyph glyph-name="ring" unicode="&#x2da;" horiz-adv-x="1024" 
d="M512 1483q-57 0 -97 -40.5t-40 -99.5q0 -57 40 -98t97 -41t98 41.5t41 97.5q0 59 -40.5 99.5t-98.5 40.5zM512 1587q101 0 172.5 -71t71.5 -173q0 -101 -70.5 -171t-173.5 -70q-101 0 -171.5 70t-70.5 171q0 102 70.5 173t171.5 71z" />
    <glyph glyph-name="cedilla" unicode="&#xb8;" horiz-adv-x="1024" 
d="M575 0h76l-98 -121q65 -16 100 -50t35 -81q0 -67 -66.5 -120.5t-185.5 -82.5l-30 60q66 15 100.5 46t34.5 77q0 37 -30.5 61t-90.5 35z" />
    <glyph glyph-name="hungarumlaut" unicode="&#x2dd;" horiz-adv-x="1024" 
d="M760 1550l133 -86l-279 -344l-75 27zM475 1550l139 -67l-227 -363l-76 27z" />
    <glyph glyph-name="ogonek" unicode="&#x2db;" horiz-adv-x="1024" 
d="M588 43h37q-83 -78 -128.5 -154.5t-45.5 -134.5q0 -43 22.5 -68.5t58.5 -25.5q29 0 55.5 18.5t51.5 55.5l55 -39q-43 -71 -94.5 -106t-112.5 -35q-72 0 -118.5 46t-46.5 117q0 77 66.5 158t199.5 168z" />
    <glyph glyph-name="caron" unicode="&#x2c7;" horiz-adv-x="1024" 
d="M268 1470l244 -202l246 202l59 -30l-274 -320h-62l-274 322z" />
    <glyph glyph-name="Lslash" unicode="&#x141;" horiz-adv-x="1192" 
d="M117 1430q106 -6 161.5 -8.5t90.5 -2.5q65 0 127 2.5t125 7.5v-69h-31q-79 0 -107 -52.5t-28 -246.5v-121v-84v-43l144 90.5l181 120.5l2 -129l-73 -43q-177 -103 -254 -152l2 -577q56 -3 106.5 -4.5t95.5 -1.5q268 0 346 49.5t123 191.5l72 -22q-30 -86 -54 -169
t-43 -167q-166 5 -305 7.5t-261 2.5q-86 0 -192.5 -2.5t-249.5 -7.5l-1 66q7 0 17 -1.5t14 -1.5q135 1 138 351q0 80 1 127v65l-169 -102q-51 -32 -77 -47v125l142.5 80l107.5 65v184v136q0 207 -29.5 260t-117.5 53h-4v70z" />
    <glyph glyph-name="lslash" unicode="&#x142;" horiz-adv-x="627" 
d="M391 1546q-4 -129 -6 -254.5t-2 -294.5v-100l-2 -47l126 77l105 68v-104l-113.5 -66.5l-117.5 -68.5v-217v-215v-80q0 -114 25 -144t96 -30h24v-70q-68 5 -129 7.5t-106 2.5q-47 0 -103.5 -2.5t-117.5 -7.5v70q6 0 17 -1t15 -1q116 0 117 254v69l2 289l-126 -77l-81 -50
v102l150 90l57 35l2 363v176q0 40 -19.5 61t-56.5 21q-13 0 -45 -6q-9 -2 -12 -2l-14 65q83 14 161.5 36t153.5 52z" />
    <glyph glyph-name="Scaron" unicode="&#x160;" horiz-adv-x="1108" 
d="M940 1384q0 -74 8.5 -146t26.5 -142l-78 -15q-17 124 -95.5 184t-221.5 60q-132 0 -214.5 -64t-82.5 -165q0 -166 352 -284q47 -15 72 -24q161 -56 237 -143.5t76 -216.5q0 -199 -151 -322.5t-400 -123.5q-95 0 -185.5 15.5t-183.5 48.5q1 10 1.5 23.5t0.5 39.5
q0 71 -8 140t-24 138l90 21q17 -164 103 -240t255 -76q148 0 241 74.5t93 191.5q0 166 -290 258q-41 13 -64 21q-201 65 -288 159t-87 240q0 172 136 287t341 115q75 0 152 -12t188 -42zM311 1921l244 -202l246 202l59 -30l-274 -320h-62l-274 322z" />
    <glyph glyph-name="scaron" unicode="&#x161;" horiz-adv-x="907" 
d="M740 969q0 -61 6.5 -123t18.5 -125l-76 -12q-12 104 -66 155t-151 51q-84 0 -138 -45.5t-54 -115.5q0 -111 236 -176l63 -17q118 -33 172.5 -94t54.5 -160q0 -146 -114.5 -241t-293.5 -95q-65 0 -133 14t-139 42q1 10 1.5 21t0.5 34q0 46 -5.5 99.5t-16.5 113.5l75 18
q16 -124 78 -185.5t172 -61.5q100 0 163.5 48.5t63.5 125.5q0 108 -212 172q-21 7 -31 10q-152 46 -213.5 113t-61.5 178q0 128 102 212.5t261 84.5q49 0 106.5 -10t130.5 -31zM213 1470l244 -202l246 202l59 -30l-274 -320h-62l-274 322z" />
    <glyph glyph-name="Zcaron" unicode="&#x17d;" horiz-adv-x="1366" 
d="M156 1427q83 -9 193.5 -13.5t305.5 -4.5h119h119q121 0 209 4.5t168 13.5l28 -55q-38 -35 -76.5 -78.5t-86.5 -107.5l-790 -1053q63 -1 131.5 -1.5t191.5 -0.5q190 0 290.5 5t149.5 16q57 11 100 65.5t80 163.5l68 -21q-32 -95 -54.5 -184t-35.5 -176q-114 11 -267.5 17
t-355.5 6h-76q-168 0 -280.5 -5.5t-214.5 -17.5l-33 59q53 44 139 159l17 22l790 1060h-336q-289 0 -374 -43t-107 -165l-66 18q24 75 37 153.5t17 163.5zM440 1921l244 -202l246 202l59 -30l-274 -320h-62l-274 322z" />
    <glyph glyph-name="zcaron" unicode="&#x17e;" horiz-adv-x="967" 
d="M135 981q83 -6 155 -9t128 -3q200 0 284 2.5t146 9.5l35 -55q-46 -37 -99 -98.5t-137 -176.5l-354 -485q56 -4 109.5 -6t103.5 -2h72q148 0 195 28.5t65 106.5l63 -19q-17 -64 -30 -132.5t-21 -141.5q-15 1 -43 2q-266 14 -379 14q-81 0 -166 -4t-178 -12l-33 63
q86 64 231 262l7 9l362 491q-29 1 -82 2q-122 2 -161 2h-41q-126 0 -161 -24.5t-50 -93.5l-66 18q16 59 27.5 121.5t17.5 130.5zM241 1470l244 -202l246 202l59 -30l-274 -320h-62l-274 322z" />
    <glyph glyph-name="brokenbar" unicode="&#xa6;" horiz-adv-x="1024" 
d="M449 408h126v-758h-126v758zM449 1432h126v-758h-126v758z" />
    <glyph glyph-name="Eth" unicode="&#xd0;" horiz-adv-x="1612" 
d="M94 0v69q7 0 15.5 -0.5t21.5 -0.5q80 0 108.5 56t28.5 259v203v92h-102h-76h-72v100q22 0 63 -1t60 -1h127v76q0 57 1 143.5t1 116.5q0 152 -28.5 199t-106.5 47h-18v69l128.5 -5.5t88.5 -2.5q112 0 245.5 8.5t155.5 8.5q373 0 587 -189t214 -514q0 -334 -214.5 -537.5
t-573.5 -203.5q-51 0 -192.5 8t-231.5 8q-41 0 -100 -2t-130 -6zM453 121q72 -16 143 -23.5t141 -7.5q282 0 433 154t151 440q0 306 -161.5 478.5t-448.5 172.5q-60 0 -122 -4.5t-126 -13.5q-2 -95 -4 -206.5t-4 -334.5h190q32 0 97 1t98 1v-102q-65 1 -123 1.5t-109 0.5
h-153q-1 -80 -1.5 -151.5t-0.5 -133.5v-272z" />
    <glyph glyph-name="eth" unicode="&#xf0;" horiz-adv-x="1128" 
d="M827 838q-63 36 -121 54.5t-112 18.5q-169 0 -258.5 -99t-89.5 -288q0 -204 91.5 -328t240.5 -124q142 0 224.5 112.5t82.5 309.5q0 83 -14.5 170t-43.5 174zM416 1561q61 -38 116.5 -78.5t108.5 -85.5q43 28 93 64l112 83l49 -76q-35 -22 -74.5 -49.5l-118.5 -83.5
q183 -182 273 -376t90 -406q0 -252 -143 -416t-359 -164q-215 0 -355 145t-140 363q0 220 152.5 374.5t373.5 154.5q56 0 105 -10.5t96 -32.5q-43 81 -96 152.5t-119 137.5l-127 -84l-84 -59l-47 72l84.5 53.5l115.5 77.5q-63 56 -126.5 105t-129.5 91z" />
    <glyph glyph-name="Yacute" unicode="&#xdd;" horiz-adv-x="1350" 
d="M18 1427q74 -4 139 -6t115 -2q54 0 116 2t130 6v-69h-14q-55 0 -84 -11.5t-29 -33.5q0 -24 49 -108l21 -36l241 -430q164 263 246 406t82 166q0 24 -24.5 35.5t-79.5 11.5h-17v69q60 -4 114 -6t95 -2q51 0 104 2t109 6v-69q-2 1 -5 1.5t-9 0.5h-12q-89 0 -231 -228
l-70 -112l-252 -385l4 -357q2 -139 32 -173.5t119 -34.5h35v-70q-83 4 -157.5 6t-133.5 2q-50 0 -124.5 -2t-161.5 -6v70q7 0 21 -1t20 -1q87 0 118 40t33 166l4 355l-323 545q-9 13 -23 38q-89 150 -162 150q-5 0 -12.5 -1l-21.5 -3zM793 2001l149 -96l-334 -334l-75 27z
" />
    <glyph glyph-name="yacute" unicode="&#xfd;" horiz-adv-x="995" 
d="M0 980q75 -5 120 -7t77 -2q30 0 76.5 2t129.5 8v-70h-26q-50 0 -70 -13.5t-20 -47.5q0 -26 88 -264l139 -381q139 330 195.5 476t56.5 175t-22 42t-72 13h-15v70q45 -4 88.5 -6t83.5 -2q33 0 76 2t92 6v-70h-8q-33 0 -55.5 -14.5t-38.5 -46.5q-2 -5 -17 -39l-227 -514
l-153 -355q-200 -474 -308 -474q-40 0 -67 26t-27 66q0 55 77 69q31 5 44 11q56 22 161 254l46 102l-170 457q-167 460 -238 460q-6 0 -9.5 -0.5t-6.5 -0.5v68zM617 1550l149 -96l-334 -334l-75 27z" />
    <glyph glyph-name="Thorn" unicode="&#xde;" horiz-adv-x="1188" 
d="M422 437q32 -6 69 -8.5t76 -2.5q188 0 284.5 83.5t96.5 244.5q0 145 -95.5 231t-258.5 86q-39 0 -80 -4t-86 -13q-3 -195 -4.5 -350t-1.5 -267zM98 1429q25 -1 70 -4q133 -8 182 -8q37 0 98.5 3t147.5 10v-70h-21q-82 0 -114.5 -30.5t-34.5 -110.5l-2 -54q65 4 124 6.5
t105 2.5q229 0 361.5 -106t132.5 -288q0 -212 -144 -330t-405 -118q-33 0 -164 13l-12 1v-67q0 -137 31.5 -173t136.5 -36h24v-70q-74 4 -145 6t-141 2q-34 0 -101 -2t-151 -6v65q8 -1 15.5 -1.5t23.5 -0.5q79 0 107 52.5t28 246.5v140v82l2 272v352q0 86 -32 119t-114 33
h-8v69z" />
    <glyph glyph-name="thorn" unicode="&#xfe;" horiz-adv-x="1147" 
d="M344 145q60 -29 120 -45t114 -16q148 0 232.5 97.5t84.5 271.5q0 188 -83 300.5t-218 112.5q-58 0 -121.5 -19t-122.5 -54q-4 -146 -6 -276t-2 -238q0 -21 1 -65.5t1 -68.5zM352 1546q-5 -199 -7.5 -353t-2.5 -286v-37q105 68 181.5 96.5t148.5 28.5q165 0 277 -131.5
t112 -326.5q0 -254 -141.5 -397.5t-391.5 -143.5q-46 0 -93 9.5t-93 27.5v-357q0 -118 173 -120h1v-70q-70 4 -132 6t-112 2q-33 0 -86 -2t-159 -8v67q63 2 87 10t36 25q15 26 21.5 106.5t6.5 315.5v103l4 1032v174q0 42 -18.5 63t-54.5 21q-14 0 -46 -6q-8 -2 -12 -2
l-14 65q83 14 161.5 36t153.5 52z" />
    <glyph glyph-name="minus" unicode="&#x2212;" horiz-adv-x="1706" 
d="M254 670h1198v-119h-1198v119z" />
    <glyph glyph-name="multiply" unicode="&#xd7;" horiz-adv-x="1706" 
d="M381 1169l477 -477l475 477l82 -82l-475 -477l475 -475l-82 -82l-475 475l-477 -475l-80 82l475 475l-475 477z" />
    <glyph glyph-name="onesuperior" unicode="&#xb9;" horiz-adv-x="752" 
d="M455 1436q-7 -113 -10 -232t-3 -317v-113q0 -106 23.5 -136t89.5 -30h27v-41q-47 2 -93.5 3t-113.5 1q-59 0 -104 -1t-93 -3v41h21q70 0 94.5 12.5t34.5 49.5q5 23 8.5 157.5t3.5 335.5q0 47 -3 159q-1 17 -1 25q-47 -1 -90 -4.5t-82 -9.5l-8 47q73 11 148 25t151 31z
" />
    <glyph glyph-name="twosuperior" unicode="&#xb2;" horiz-adv-x="752" 
d="M201 670q51 0 114 -1t76 -1h82q95 0 126.5 18.5t45.5 71.5l41 -13q-18 -44 -30.5 -87.5t-20.5 -89.5q-91 2 -172.5 3.5t-151.5 1.5q-60 0 -124.5 -1.5t-133.5 -3.5l-20 40q208 162 326 314t118 258q0 75 -49 125.5t-123 50.5q-56 0 -103.5 -29.5t-95.5 -95.5l-51 26
q56 90 125.5 134.5t155.5 44.5q113 0 192.5 -70.5t79.5 -169.5q0 -92 -87 -207.5t-320 -318.5z" />
    <glyph glyph-name="threesuperior" unicode="&#xb3;" horiz-adv-x="752" 
d="M375 1042q7 2 13.5 2h19.5q107 0 169 -56t62 -152q0 -115 -107 -200t-251 -85q-90 0 -156 31.5t-66 72.5q0 18 18.5 35t37.5 17q25 0 54 -29q8 -7 12 -11q30 -29 61.5 -42t70.5 -13q85 0 142 56.5t57 140.5q0 78 -49 127t-127 49q-28 0 -60 -6.5t-65 -20.5l-18 43
q130 52 196 110t66 122q0 55 -41 92t-103 37q-46 0 -89.5 -25.5t-86.5 -76.5l-49 26q46 75 110 112.5t146 37.5q99 0 166 -55t67 -134q0 -66 -49.5 -117t-150.5 -88z" />
    <glyph glyph-name="onehalf" unicode="&#xbd;" horiz-adv-x="1776" 
d="M1252 97q43 -2 84 -2.5t96 -0.5h79q93 0 121.5 17t42.5 67l39 -12q-18 -44 -30 -84.5t-19 -81.5q-86 3 -164 4.5t-145 1.5q-58 0 -119 -1.5t-127 -4.5l-20 37q198 151 310.5 294t112.5 240q0 71 -46.5 117.5t-116.5 46.5q-55 0 -100.5 -28t-88.5 -89l-49 27
q53 82 119.5 123t148.5 41q108 0 184 -65.5t76 -157.5q0 -85 -81.5 -190.5t-306.5 -298.5zM1325 1456l76 -49l-439 -656l-511 -794l-78 51l424.5 631.5zM434 1434q-6 -104 -9 -215t-3 -295v-105q0 -101 22 -129t84 -28q4 0 12.5 1t12.5 1v-39q-44 2 -88 3t-109 1
q-56 0 -98.5 -1t-87.5 -3v37h18q68 0 91.5 12t31.5 46q6 23 9.5 148.5t3.5 313.5q0 42 -4 148q0 15 -1 24q-44 -2 -84.5 -5.5t-78.5 -9.5l-9 43q77 12 147.5 25z" />
    <glyph glyph-name="onequarter" unicode="&#xbc;" horiz-adv-x="1776" 
d="M1479 676l-278 -348q62 -3 120 -4.5t113 -1.5h45v354zM1503 805h84q-5 -134 -7.5 -253t-2.5 -230h20q32 0 67 1.5t72 4.5q-2 -11 -9 -36l-11 -40q-24 1 -52.5 1.5t-86.5 0.5v-117q0 -66 16 -82t68 -16h16v-39q-34 2 -69.5 3t-85.5 1q-44 0 -79 -1t-73 -3v39q4 0 12.5 -1
t12.5 -1q50 0 67 20.5t17 96.5v43v57q-42 0 -97.5 1t-70.5 1q-7 0 -71 -1t-122 -1l-26 51l49 54q103 112 123 137l61 75l25 31q98 122 153 203zM1325 1456l76 -49l-439 -656l-511 -794l-78 51l424.5 631.5zM434 1434q-6 -104 -9 -215t-3 -295v-105q0 -101 22 -129t84 -28
q4 0 12.5 1t12.5 1v-39q-44 2 -88 3t-109 1q-56 0 -98.5 -1t-87.5 -3v37h18q68 0 91.5 12t31.5 46q6 23 9.5 148.5t3.5 313.5q0 42 -4 148q0 15 -1 24q-44 -2 -84.5 -5.5t-78.5 -9.5l-9 43q77 12 147.5 25z" />
    <glyph glyph-name="threequarters" unicode="&#xbe;" horiz-adv-x="1778" 
d="M1479 676l-278 -348q62 -3 120 -4.5t113 -1.5h45v354zM1503 805h84q-5 -134 -7.5 -253t-2.5 -230h20q32 0 67 1.5t72 4.5q-2 -11 -9 -36l-11 -40q-24 1 -52.5 1.5t-86.5 0.5v-117q0 -66 16 -82t68 -16h16v-39q-34 2 -69.5 3t-85.5 1q-44 0 -79 -1t-73 -3v39q4 0 12.5 -1
t12.5 -1q50 0 67 20.5t17 96.5v43v57q-42 0 -97.5 1t-70.5 1q-7 0 -71 -1t-122 -1l-26 51l49 54q103 112 123 137l61 75l25 31q98 122 153 203zM1325 1456l76 -49l-439 -656l-511 -794l-78 51l424.5 631.5zM358 1069h31q103 0 162 -52t59 -143q0 -107 -101.5 -186.5
t-240.5 -79.5q-84 0 -147.5 30t-63.5 69q0 16 17.5 32.5t36.5 16.5q21 0 49 -28q7 -7 13 -12q30 -27 60 -38.5t66 -11.5q80 0 135 53t55 131q0 73 -46.5 118.5t-120.5 45.5q-25 0 -55 -5.5t-66 -17.5l-19 39q126 49 189 103t63 112q0 51 -39 86t-98 35q-45 0 -86 -23
t-82 -71l-47 24q44 69 105 103.5t139 34.5q95 0 159 -50.5t64 -123.5q0 -63 -47.5 -110.5t-143.5 -80.5z" />
    <glyph glyph-name="Amacron" unicode="&#x100;" horiz-adv-x="1479" 
d="M698 1239l-229 -598q19 0 55 -1q113 -3 154 -3q50 0 181 3q29 1 44 1zM653 1427h172l246.5 -725t183.5 -493q40 -95 69 -117t83 -22h20v-70q-78 4 -142.5 6t-108.5 2q-56 0 -123 -2t-142 -6v70h19q71 0 97 16.5t26 60.5q0 16 -4 35.5t-13 46.5l-98 306q-38 0 -104 1
q-120 3 -154 3q-68 0 -128.5 -0.5t-125.5 -2.5q-71 -179 -97 -261t-26 -117q0 -49 26 -68.5t93 -19.5h27v-70q-73 4 -136.5 6t-113.5 2q-40 0 -100 -2t-130 -6v69q71 2 112.5 28.5t72.5 88.5q56 117 198.5 468.5zM479 1809h518v-127h-518v127z" />
    <glyph glyph-name="Abreve" unicode="&#x102;" horiz-adv-x="1479" 
d="M698 1239l-229 -598q19 0 55 -1q113 -3 154 -3q50 0 181 3q29 1 44 1zM653 1427h172l246.5 -725t183.5 -493q40 -95 69 -117t83 -22h20v-70q-78 4 -142.5 6t-108.5 2q-56 0 -123 -2t-142 -6v70h19q71 0 97 16.5t26 60.5q0 16 -4 35.5t-13 46.5l-98 306q-38 0 -104 1
q-120 3 -154 3q-68 0 -128.5 -0.5t-125.5 -2.5q-71 -179 -97 -261t-26 -117q0 -49 26 -68.5t93 -19.5h27v-70q-73 4 -136.5 6t-113.5 2q-40 0 -100 -2t-130 -6v69q71 2 112.5 28.5t72.5 88.5q56 117 198.5 468.5zM528 1885q29 -77 79 -111.5t132 -34.5q81 0 132 35t79 111
l63 -21q-35 -128 -104 -193t-170 -65q-100 0 -169.5 65.5t-104.5 192.5z" />
    <glyph glyph-name="Aogonek" unicode="&#x104;" horiz-adv-x="1479" 
d="M698 1239l-229 -598q19 0 55 -1q113 -3 154 -3q50 0 181 3q29 1 44 1zM653 1427h172l246.5 -725t183.5 -493q40 -95 69 -117t83 -22h20v-70q-19 1 -50 2q-46 2 -58 2q-1 0 -7 1q-15 1 -30 1q-66 -72 -101.5 -137t-35.5 -115q0 -43 22.5 -68.5t59.5 -25.5q29 0 56.5 18.5
t51.5 55.5l54 -39q-44 -71 -95 -106t-112 -35q-73 0 -119.5 46t-46.5 117q0 69 55 143t160 146q-9 0 -26.5 1t-26.5 1q-83 0 -255 -7l-12 -1v70h19q71 0 97 16.5t26 60.5q0 16 -4 35.5t-13 46.5l-98 306q-38 0 -104 1q-120 3 -154 3q-68 0 -128.5 -0.5t-125.5 -2.5
q-71 -179 -97 -261t-26 -117q0 -49 26 -68.5t93 -19.5h27v-70q-73 4 -136.5 6t-113.5 2q-40 0 -100 -2t-130 -6v69q71 2 112.5 28.5t72.5 88.5q56 117 198.5 468.5z" />
    <glyph glyph-name="AEacute" unicode="&#x1fc;" horiz-adv-x="2152" 
d="M1116 1320l-461 -687q66 -1 124.5 -1.5t111.5 -0.5q74 0 121 0.5t92 1.5q1 134 4.5 307zM813 1427q125 -7 262 -10.5t291 -3.5q125 0 267.5 3.5t324.5 10.5q1 -75 6 -153.5t12 -157.5l-69 -6q-8 120 -74 162.5t-285 42.5q-54 0 -196 -3q-36 -1 -53 -1q-2 -169 -7 -418
q-1 -71 -2 -102h31q59 0 147.5 -1.5t118.5 -1.5q145 0 191.5 27t50.5 100l63 -6q-7 -62 -10.5 -115t-3.5 -98q0 -26 1.5 -67t4.5 -92l-65 -2v8q0 85 -49.5 115t-229.5 30h-178h-72q0 -49 -1 -135.5t-1 -124.5q0 -66 1 -137.5t4 -167.5q50 -6 113.5 -9t139.5 -3
q251 0 330.5 48.5t126.5 186.5l72 -24q-30 -83 -53 -163t-40 -159h-12q-385 12 -573 12q-101 0 -216.5 -3t-248.5 -9v68q2 -1 5 -1q31 -3 44 -4q72 0 97.5 43.5t25.5 223.5v69q0 51 0.5 79.5t1.5 53.5q-82 2 -166.5 5.5t-89.5 3.5q-47 0 -138.5 -3t-125.5 -3l-97 -154
q-135 -214 -135 -246q0 -38 25.5 -52.5t95.5 -14.5h21v-68q-86 6 -147.5 9t-102.5 3q-44 0 -105 -3t-139 -9v66h16q117 0 263 212l30 44l392 557q278 391 278 424q0 31 -25.5 44t-93.5 13h-49v67zM1577 2001l149 -96l-334 -334l-75 27z" />
    <glyph glyph-name="Cacute" unicode="&#x106;" horiz-adv-x="1448" 
d="M1313 1382v-34q0 -70 5 -145.5t15 -158.5l-73 -12q-20 144 -136 224.5t-303 80.5q-249 0 -384.5 -152.5t-135.5 -432.5q0 -299 155.5 -483.5t403.5 -184.5q156 0 270.5 72t178.5 211l67 -33q-32 -65 -58 -132.5t-46 -135.5q-108 -49 -220 -74t-225 -25
q-332 0 -537.5 205.5t-205.5 540.5q0 330 217 537.5t561 207.5q102 0 215.5 -19t235.5 -57zM926 2001l149 -96l-334 -334l-75 27z" />
    <glyph glyph-name="Ccircumflex" unicode="&#x108;" horiz-adv-x="1448" 
d="M1313 1382v-34q0 -70 5 -145.5t15 -158.5l-73 -12q-20 144 -136 224.5t-303 80.5q-249 0 -384.5 -152.5t-135.5 -432.5q0 -299 155.5 -483.5t403.5 -184.5q156 0 270.5 72t178.5 211l67 -33q-32 -65 -58 -132.5t-46 -135.5q-108 -49 -220 -74t-225 -25
q-332 0 -537.5 205.5t-205.5 540.5q0 330 217 537.5t561 207.5q102 0 215.5 -19t235.5 -57zM780 1924h62l272 -322l-61 -31l-244 203l-244 -203l-59 31z" />
    <glyph glyph-name="Cdotaccent" unicode="&#x10a;" horiz-adv-x="1448" 
d="M1313 1382v-34q0 -70 5 -145.5t15 -158.5l-73 -12q-20 144 -136 224.5t-303 80.5q-249 0 -384.5 -152.5t-135.5 -432.5q0 -299 155.5 -483.5t403.5 -184.5q156 0 270.5 72t178.5 211l67 -33q-32 -65 -58 -132.5t-46 -135.5q-108 -49 -220 -74t-225 -25
q-332 0 -537.5 205.5t-205.5 540.5q0 330 217 537.5t561 207.5q102 0 215.5 -19t235.5 -57zM809 1868q41 0 86 -42t45 -81q0 -38 -44.5 -79t-86.5 -41q-41 0 -86 41.5t-45 78.5q0 38 45 80.5t86 42.5z" />
    <glyph glyph-name="Ccaron" unicode="&#x10c;" horiz-adv-x="1448" 
d="M1313 1382v-34q0 -70 5 -145.5t15 -158.5l-73 -12q-20 144 -136 224.5t-303 80.5q-249 0 -384.5 -152.5t-135.5 -432.5q0 -299 155.5 -483.5t403.5 -184.5q156 0 270.5 72t178.5 211l67 -33q-32 -65 -58 -132.5t-46 -135.5q-108 -49 -220 -74t-225 -25
q-332 0 -537.5 205.5t-205.5 540.5q0 330 217 537.5t561 207.5q102 0 215.5 -19t235.5 -57zM565 1921l244 -202l246 202l59 -30l-274 -320h-62l-274 322z" />
    <glyph glyph-name="Dcaron" unicode="&#x10e;" horiz-adv-x="1599" 
d="M76 0v69q6 0 13 -0.5t20 -0.5q133 0 135 371q1 94 2 147l4 266q1 86 1.5 167.5t0.5 186.5q0 86 -32 119t-114 33h-8v69l122.5 -5.5t94.5 -2.5q110 0 242.5 8.5t155.5 8.5q372 0 586 -189t214 -514q0 -334 -214.5 -537.5t-573.5 -203.5q-53 0 -193 8t-227 8q-41 0 -100 -2
t-129 -6zM430 121q73 -16 143.5 -23.5t141.5 -7.5q282 0 432.5 154t150.5 440q0 305 -162 478t-450 173q-59 0 -120 -4.5t-125 -13.5q-6 -364 -8.5 -574t-2.5 -350v-272zM557 1921l244 -202l246 202l59 -30l-274 -320h-62l-274 322z" />
    <glyph glyph-name="Dcroat" unicode="&#x110;" horiz-adv-x="1612" 
d="M94 0v69q7 0 15.5 -0.5t21.5 -0.5q80 0 108.5 56t28.5 259v203v92h-102h-76h-72v100q22 0 63 -1t60 -1h127v76q0 57 1 143.5t1 116.5q0 152 -28.5 199t-106.5 47h-18v69l128.5 -5.5t88.5 -2.5q112 0 245.5 8.5t155.5 8.5q373 0 587 -189t214 -514q0 -334 -214.5 -537.5
t-573.5 -203.5q-51 0 -192.5 8t-231.5 8q-41 0 -100 -2t-130 -6zM453 121q72 -16 143 -23.5t141 -7.5q282 0 433 154t151 440q0 306 -161.5 478.5t-448.5 172.5q-60 0 -122 -4.5t-126 -13.5q-2 -95 -4 -206.5t-4 -334.5h190q32 0 97 1t98 1v-102q-65 1 -123 1.5t-109 0.5
h-153q-1 -80 -1.5 -151.5t-0.5 -133.5v-272z" />
    <glyph glyph-name="Emacron" unicode="&#x112;" horiz-adv-x="1298" 
d="M98 1427q175 -6 313 -9t238 -3q111 0 224.5 3t230.5 9q1 -75 6 -153.5t12 -157.5l-67 -6q-8 120 -74 162.5t-285 42.5q-56 0 -205 -3q-30 -1 -44 -1q-2 -120 -6 -294t-5 -226h31q59 0 147.5 -1.5t118.5 -1.5q145 0 191.5 27t50.5 100l63 -6q-7 -62 -10.5 -115t-3.5 -98
q0 -26 5 -112l3 -47l-65 -2v8q0 85 -49.5 115t-231.5 30h-178h-72q0 -49 -1 -135.5t-1 -124.5q0 -66 1 -137.5t4 -167.5q50 -6 113.5 -9t139.5 -3q251 0 330.5 48.5t126.5 186.5l72 -24q-30 -83 -53 -163t-40 -159q-157 6 -292 9t-244 3q-149 0 -480 -11l-36 -1v65
q7 -1 13.5 -1.5t19.5 -0.5q133 0 135 374q1 94 2 147l4 273q1 88 1.5 171t0.5 180q0 86 -32 119t-114 33h-8v67zM389 1809h518v-127h-518v127z" />
    <glyph glyph-name="Ebreve" unicode="&#x114;" horiz-adv-x="1298" 
d="M98 1427q175 -6 313 -9t238 -3q111 0 224.5 3t230.5 9q1 -75 6 -153.5t12 -157.5l-67 -6q-8 120 -74 162.5t-285 42.5q-56 0 -205 -3q-30 -1 -44 -1q-2 -120 -6 -294t-5 -226h31q59 0 147.5 -1.5t118.5 -1.5q145 0 191.5 27t50.5 100l63 -6q-7 -62 -10.5 -115t-3.5 -98
q0 -26 5 -112l3 -47l-65 -2v8q0 85 -49.5 115t-231.5 30h-178h-72q0 -49 -1 -135.5t-1 -124.5q0 -66 1 -137.5t4 -167.5q50 -6 113.5 -9t139.5 -3q251 0 330.5 48.5t126.5 186.5l72 -24q-30 -83 -53 -163t-40 -159q-157 6 -292 9t-244 3q-149 0 -480 -11l-36 -1v65
q7 -1 13.5 -1.5t19.5 -0.5q133 0 135 374q1 94 2 147l4 273q1 88 1.5 171t0.5 180q0 86 -32 119t-114 33h-8v67zM438 1885q29 -77 79 -111.5t132 -34.5q81 0 132 35t79 111l63 -21q-35 -128 -104 -193t-170 -65q-100 0 -169.5 65.5t-104.5 192.5z" />
    <glyph glyph-name="Edotaccent" unicode="&#x116;" horiz-adv-x="1298" 
d="M98 1427q175 -6 313 -9t238 -3q111 0 224.5 3t230.5 9q1 -75 6 -153.5t12 -157.5l-67 -6q-8 120 -74 162.5t-285 42.5q-56 0 -205 -3q-30 -1 -44 -1q-2 -120 -6 -294t-5 -226h31q59 0 147.5 -1.5t118.5 -1.5q145 0 191.5 27t50.5 100l63 -6q-7 -62 -10.5 -115t-3.5 -98
q0 -26 5 -112l3 -47l-65 -2v8q0 85 -49.5 115t-231.5 30h-178h-72q0 -49 -1 -135.5t-1 -124.5q0 -66 1 -137.5t4 -167.5q50 -6 113.5 -9t139.5 -3q251 0 330.5 48.5t126.5 186.5l72 -24q-30 -83 -53 -163t-40 -159q-157 6 -292 9t-244 3q-149 0 -480 -11l-36 -1v65
q7 -1 13.5 -1.5t19.5 -0.5q133 0 135 374q1 94 2 147l4 273q1 88 1.5 171t0.5 180q0 86 -32 119t-114 33h-8v67zM649 1868q41 0 86 -42t45 -81q0 -38 -44.5 -79t-86.5 -41q-41 0 -86 41.5t-45 78.5q0 38 45 80.5t86 42.5z" />
    <glyph glyph-name="Eogonek" unicode="&#x118;" horiz-adv-x="1298" 
d="M98 1429q162 -7 302 -10.5t249 -3.5q119 0 232 3.5t223 10.5q1 -76 6 -154.5t12 -158.5l-67 -6q-8 120 -74 162.5t-285 42.5q-56 0 -205 -3q-30 -1 -44 -1q-2 -120 -6 -294t-5 -226h31q59 0 147.5 -1.5t118.5 -1.5q145 0 191.5 27t50.5 100l63 -6q-7 -62 -10.5 -115
t-3.5 -98q0 -26 5 -112l3 -47l-65 -2v8q0 85 -49.5 115t-231.5 30h-178h-72q0 -49 -1 -135.5t-1 -124.5q0 -66 1 -137.5t4 -167.5q50 -6 113.5 -9t139.5 -3q251 0 330.5 48.5t126.5 186.5l72 -24q-30 -83 -53 -163t-40 -159q-4 0 -13 1q-92 3 -132 3q-67 -68 -103 -133.5
t-36 -116.5q0 -42 23 -68t61 -26q29 0 55 18.5t51 55.5l53 -39q-43 -71 -94 -106t-112 -35q-73 0 -119.5 46t-46.5 117q0 69 54.5 143t159.5 146q-97 3 -182 4.5t-157 1.5q-162 0 -502 -12h-12v65q7 -1 13.5 -1.5t19.5 -0.5q133 0 135 374q1 94 2 147l4 273q1 88 1.5 171
t0.5 180q0 86 -32 119t-114 33h-8v69z" />
    <glyph glyph-name="Ecaron" unicode="&#x11a;" horiz-adv-x="1298" 
d="M98 1427q175 -6 313 -9t238 -3q111 0 224.5 3t230.5 9q1 -75 6 -153.5t12 -157.5l-67 -6q-8 120 -74 162.5t-285 42.5q-56 0 -205 -3q-30 -1 -44 -1q-2 -120 -6 -294t-5 -226h31q59 0 147.5 -1.5t118.5 -1.5q145 0 191.5 27t50.5 100l63 -6q-7 -62 -10.5 -115t-3.5 -98
q0 -26 5 -112l3 -47l-65 -2v8q0 85 -49.5 115t-231.5 30h-178h-72q0 -49 -1 -135.5t-1 -124.5q0 -66 1 -137.5t4 -167.5q50 -6 113.5 -9t139.5 -3q251 0 330.5 48.5t126.5 186.5l72 -24q-30 -83 -53 -163t-40 -159q-157 6 -292 9t-244 3q-149 0 -480 -11l-36 -1v65
q7 -1 13.5 -1.5t19.5 -0.5q133 0 135 374q1 94 2 147l4 273q1 88 1.5 171t0.5 180q0 86 -32 119t-114 33h-8v67zM405 1921l244 -202l246 202l59 -30l-274 -320h-62l-274 322z" />
    <glyph glyph-name="Gcircumflex" unicode="&#x11c;" horiz-adv-x="1520" 
d="M1329 1380q2 -74 10 -150.5t23 -156.5l-76 -16q-28 142 -134 210t-300 68q-262 0 -406.5 -154t-144.5 -436q0 -303 165 -484t437 -181q57 0 115 11.5t123 35.5q3 77 4.5 131t1.5 88q0 171 -38 205.5t-167 34.5h-14v67q85 -4 157.5 -6t122.5 -2q73 0 136.5 2t121.5 6v-67
q-84 0 -109.5 -32.5t-25.5 -201.5v-104q0 -77 2 -119.5t6 -81.5l-99 -22q-259 -58 -392 -58q-347 0 -555.5 202t-208.5 536t224.5 543.5t582.5 209.5q108 0 217.5 -19.5t220.5 -58.5zM731 1924h62l272 -322l-61 -31l-244 203l-244 -203l-59 31z" />
    <glyph glyph-name="Gbreve" unicode="&#x11e;" horiz-adv-x="1520" 
d="M1329 1380q2 -74 10 -150.5t23 -156.5l-76 -16q-28 142 -134 210t-300 68q-262 0 -406.5 -154t-144.5 -436q0 -303 165 -484t437 -181q57 0 115 11.5t123 35.5q3 77 4.5 131t1.5 88q0 171 -38 205.5t-167 34.5h-14v67q85 -4 157.5 -6t122.5 -2q73 0 136.5 2t121.5 6v-67
q-84 0 -109.5 -32.5t-25.5 -201.5v-104q0 -77 2 -119.5t6 -81.5l-99 -22q-259 -58 -392 -58q-347 0 -555.5 202t-208.5 536t224.5 543.5t582.5 209.5q108 0 217.5 -19.5t220.5 -58.5zM549 1885q29 -77 79 -111.5t132 -34.5q81 0 132 35t79 111l63 -21q-35 -128 -104 -193
t-170 -65q-100 0 -169.5 65.5t-104.5 192.5z" />
    <glyph glyph-name="Gdotaccent" unicode="&#x120;" horiz-adv-x="1520" 
d="M1329 1380q2 -74 10 -150.5t23 -156.5l-76 -16q-28 142 -134 210t-300 68q-262 0 -406.5 -154t-144.5 -436q0 -303 165 -484t437 -181q57 0 115 11.5t123 35.5q3 77 4.5 131t1.5 88q0 171 -38 205.5t-167 34.5h-14v67q85 -4 157.5 -6t122.5 -2q73 0 136.5 2t121.5 6v-67
q-84 0 -109.5 -32.5t-25.5 -201.5v-104q0 -77 2 -119.5t6 -81.5l-99 -22q-259 -58 -392 -58q-347 0 -555.5 202t-208.5 536t224.5 543.5t582.5 209.5q108 0 217.5 -19.5t220.5 -58.5zM760 1868q41 0 86 -42t45 -81q0 -38 -44.5 -79t-86.5 -41q-41 0 -86 41.5t-45 78.5
q0 38 45 80.5t86 42.5z" />
    <glyph glyph-name="Gcommaaccent" unicode="&#x122;" horiz-adv-x="1520" 
d="M1329 1380q2 -74 10 -150.5t23 -156.5l-76 -16q-28 142 -134 210t-300 68q-262 0 -406.5 -154t-144.5 -436q0 -303 165 -484t437 -181q57 0 115 11.5t123 35.5q3 77 4.5 131t1.5 88q0 171 -38 205.5t-167 34.5h-14v67q85 -4 157.5 -6t122.5 -2q73 0 136.5 2t121.5 6v-67
q-84 0 -109.5 -32.5t-25.5 -201.5v-104q0 -77 2 -119.5t6 -81.5l-99 -22q-259 -58 -392 -58q-347 0 -555.5 202t-208.5 536t224.5 543.5t582.5 209.5q108 0 217.5 -19.5t220.5 -58.5zM764 -98q65 -51 85 -80t20 -62q0 -52 -47.5 -113t-141.5 -130l-35 41q43 30 69 67t34 78
q-45 25 -64.5 45.5t-19.5 42.5q0 24 48 66q6 5 9 8z" />
    <glyph glyph-name="Hcircumflex" unicode="&#x124;" horiz-adv-x="1626" 
d="M78 1427q71 -4 136 -6t118 -2q61 0 125 2t131 6v-69h-27q-82 0 -110.5 -43.5t-28.5 -231.5v-49v-246q65 -2 137.5 -3t202.5 -1q133 0 231.5 1t200.5 3v279q0 199 -28.5 245t-110.5 46h-27v69q67 -4 131.5 -6t126.5 -2q53 0 117 2t135 6v-69q-5 0 -14 1t-13 1
q-77 0 -105 -48.5t-28 -207.5q0 -30 1 -114t1 -138v-266q0 -54 -1 -138.5t-1 -115.5q0 -164 28 -214t105 -50q14 0 21.5 0.5t13.5 0.5v-69q-79 4 -146.5 6t-113.5 2q-54 0 -121.5 -2t-144.5 -6v70q6 0 18 -1t17 -1q82 0 110.5 45t28.5 217v121v219h-13q-257 4 -376 4
q-90 0 -172 -2h-12q-43 0 -93 -0.5t-106 -1.5v-238v-80q0 -192 29 -238t112 -46q5 0 17 1t18 1v-70q-77 4 -144.5 6t-121.5 2q-46 0 -113 -2t-147 -6v69q6 0 13.5 -0.5t20.5 -0.5q78 0 106 50t28 214q0 31 -1 115.5t-1 138.5v266q0 50 1 127.5t1 105.5q0 173 -28.5 224
t-107.5 51q-3 0 -12 -1t-14 -1v69zM784 1924h62l272 -322l-61 -31l-244 203l-244 -203l-59 31z" />
    <glyph glyph-name="Itilde" unicode="&#x128;" horiz-adv-x="696" 
d="M76 1427q70 -4 139 -6t135 -2q56 0 125 2t146 6v-69h-17q-65 0 -97.5 -15t-45.5 -50q-8 -23 -11.5 -74.5t-3.5 -167.5v-199v-498q0 -118 5.5 -166t17.5 -71q13 -25 46.5 -36t94.5 -11h21v-70q-86 4 -159 6t-122 2q-58 0 -131 -2t-153 -6v70h20q62 0 95 11t46 36
q14 27 19.5 88.5t5.5 222.5v158v391q0 157 -4 223.5t-13 92.5q-12 35 -43.5 50t-97.5 15h-18v69zM680 1899l53 -43q-53 -69 -107 -119t-117 -86q-71 5 -173 21t-133 16q-60 0 -107 -23.5t-86 -72.5l-49 47q52 68 110 118.5t125 86.5q72 -6 174.5 -22.5t135.5 -16.5
q51 0 94 23.5t80 70.5z" />
    <glyph glyph-name="Imacron" unicode="&#x12a;" horiz-adv-x="696" 
d="M76 1427q70 -4 139 -6t135 -2q56 0 125 2t146 6v-69h-17q-65 0 -97.5 -15t-45.5 -50q-8 -23 -11.5 -74.5t-3.5 -167.5v-199v-498q0 -118 5.5 -166t17.5 -71q13 -25 46.5 -36t94.5 -11h21v-70q-86 4 -159 6t-122 2q-58 0 -131 -2t-153 -6v70h20q62 0 95 11t46 36
q14 27 19.5 88.5t5.5 222.5v158v391q0 157 -4 223.5t-13 92.5q-12 35 -43.5 50t-97.5 15h-18v69zM90 1809h518v-127h-518v127z" />
    <glyph glyph-name="Ibreve" unicode="&#x12c;" horiz-adv-x="696" 
d="M76 1427q70 -4 139 -6t135 -2q56 0 125 2t146 6v-69h-17q-65 0 -97.5 -15t-45.5 -50q-8 -23 -11.5 -74.5t-3.5 -167.5v-199v-498q0 -118 5.5 -166t17.5 -71q13 -25 46.5 -36t94.5 -11h21v-70q-86 4 -159 6t-122 2q-58 0 -131 -2t-153 -6v70h20q62 0 95 11t46 36
q14 27 19.5 88.5t5.5 222.5v158v391q0 157 -4 223.5t-13 92.5q-12 35 -43.5 50t-97.5 15h-18v69zM139 1885q29 -77 79 -111.5t132 -34.5q81 0 132 35t79 111l63 -21q-35 -128 -104 -193t-170 -65q-100 0 -169.5 65.5t-104.5 192.5z" />
    <glyph glyph-name="Idotaccent" unicode="&#x130;" horiz-adv-x="696" 
d="M76 1427q70 -4 139 -6t135 -2q56 0 125 2t146 6v-69h-17q-65 0 -97.5 -15t-45.5 -50q-8 -23 -11.5 -74.5t-3.5 -167.5v-199v-498q0 -118 5.5 -166t17.5 -71q13 -25 46.5 -36t94.5 -11h21v-70q-86 4 -159 6t-122 2q-58 0 -131 -2t-153 -6v70h20q62 0 95 11t46 36
q14 27 19.5 88.5t5.5 222.5v158v391q0 157 -4 223.5t-13 92.5q-12 35 -43.5 50t-97.5 15h-18v69zM350 1868q41 0 86 -42t45 -81q0 -38 -44.5 -79t-86.5 -41q-41 0 -86 41.5t-45 78.5q0 38 45 80.5t86 42.5z" />
    <glyph glyph-name="Iogonek" unicode="&#x12e;" horiz-adv-x="696" 
d="M76 1427q70 -4 139 -6t135 -2q56 0 125 2t146 6v-69h-17q-65 0 -97.5 -15t-45.5 -50q-8 -23 -11.5 -74.5t-3.5 -167.5v-199v-498q0 -118 5.5 -166t17.5 -71q13 -25 46.5 -36t94.5 -11h21v-70q-86 4 -159 6t-122 2q-58 0 -131 -2t-153 -6v70h20q62 0 95 11t46 36
q14 27 19.5 88.5t5.5 222.5v158v391q0 157 -4 223.5t-13 92.5q-12 35 -43.5 50t-97.5 15h-18v69zM426 43h37q-83 -78 -128.5 -154.5t-45.5 -134.5q0 -43 22.5 -68.5t58.5 -25.5q29 0 55.5 18.5t51.5 55.5l55 -39q-43 -71 -94.5 -106t-112.5 -35q-72 0 -118.5 46t-46.5 117
q0 77 66.5 158t199.5 168z" />
    <glyph glyph-name="Jcircumflex" unicode="&#x134;" horiz-adv-x="680" 
d="M68 1427q11 0 35 -1q159 -7 225 -7q64 0 221 7q25 1 37 1l-1 -69q-65 -2 -93.5 -16t-40.5 -50q-11 -28 -15 -124.5t-4 -442.5q0 -118 2 -272t2 -191q0 -172 -22.5 -265t-75.5 -171q-66 -95 -154 -144t-194 -49q-82 0 -122 25.5t-40 77.5q0 38 23 67t55 29
q24 0 83.5 -31.5t96.5 -31.5q81 0 116.5 78t35.5 266v1077q0 101 -30.5 134.5t-119.5 33.5h-20v69zM313 1924h62l272 -322l-61 -31l-244 203l-244 -203l-59 31z" />
    <glyph glyph-name="Kcommaaccent" unicode="&#x136;" horiz-adv-x="1419" 
d="M874 1427q64 -4 127 -6t123 -2q43 0 99 2t123 6v-67h-9q-114 0 -219 -99l-10 -10l-496 -475l457 -459l51 -51q193 -198 283 -198q11 0 17 0.5t9 1.5l1 -70q-16 1 -43 2q-104 6 -142 6t-86.5 -2t-103.5 -6l1.5 4.5t0.5 5.5q0 52 -319 369l-314 317l385 416l71 76
q101 109 101 129q0 22 -19.5 32.5t-62.5 10.5h-25v67zM78 1427q71 -4 136 -6t118 -2q62 0 126 2t130 6v-67h-13q-90 0 -120.5 -45t-30.5 -232v-731q0 -196 29 -240t116 -44q5 0 16 1t17 1v-70q-75 4 -143.5 6t-126.5 2q-46 0 -113 -2t-147 -6v69q6 0 13 -0.5t19 -0.5
q79 0 107.5 55.5t28.5 247.5q0 26 -1 98t-1 117v266q0 50 1 127.5t1 105.5q0 173 -28.5 224t-107.5 51q-3 0 -12 -1t-14 -1v69zM715 -98q65 -51 85 -80t20 -62q0 -52 -47.5 -113t-141.5 -130l-35 41q43 30 69 67t34 78q-45 25 -64.5 45.5t-19.5 42.5q0 24 48 66q6 5 9 8z
" />
    <glyph glyph-name="Lacute" unicode="&#x139;" horiz-adv-x="1171" 
d="M98 1430q107 -6 162.5 -8.5t89.5 -2.5q65 0 127.5 2.5t124.5 7.5v-69h-31q-79 0 -107 -54.5t-28 -250.5v-199l3 -733q56 -3 106.5 -4.5t95.5 -1.5q268 0 345.5 49.5t123.5 191.5l72 -22q-31 -86 -55 -169t-42 -167q-166 5 -305.5 7.5t-261.5 2.5q-86 0 -192 -2.5
t-250 -7.5v65q7 -1 13.5 -1.5t19.5 -0.5q135 1 136 385q0 87 1 136l2 272q0 44 1 113t1 96q0 184 -29.5 239.5t-114.5 55.5h-8v70zM484 2001l149 -96l-334 -334l-75 27z" />
    <glyph glyph-name="Lcaron" unicode="&#x13d;" horiz-adv-x="1171" 
d="M98 1430q107 -6 162.5 -8.5t89.5 -2.5q65 0 127.5 2.5t124.5 7.5v-69h-31q-79 0 -107 -54.5t-28 -250.5v-199l3 -733q56 -3 106.5 -4.5t95.5 -1.5q268 0 345.5 49.5t123.5 191.5l72 -22q-31 -86 -55 -169t-42 -167q-166 5 -305.5 7.5t-261.5 2.5q-86 0 -192 -2.5
t-250 -7.5v65q7 -1 13.5 -1.5t19.5 -0.5q135 1 136 385q0 87 1 136l2 272q0 44 1 113t1 96q0 184 -29.5 239.5t-114.5 55.5h-8v70zM918 1458q76 -60 100 -96.5t24 -79.5q0 -69 -69.5 -170t-186.5 -194l-49 63q61 48 99 106.5t53 126.5q-51 34 -71.5 58t-20.5 49q0 31 57 81
q8 7 12 11z" />
    <glyph glyph-name="Lcommaaccent" unicode="&#x13b;" horiz-adv-x="1171" 
d="M98 1430q107 -6 162.5 -8.5t89.5 -2.5q65 0 127.5 2.5t124.5 7.5v-69h-31q-79 0 -107 -54.5t-28 -250.5v-199l3 -733q56 -3 106.5 -4.5t95.5 -1.5q268 0 345.5 49.5t123.5 191.5l72 -22q-31 -86 -55 -169t-42 -167q-166 5 -305.5 7.5t-261.5 2.5q-86 0 -192 -2.5
t-250 -7.5v65q7 -1 13.5 -1.5t19.5 -0.5q135 1 136 385q0 87 1 136l2 272q0 44 1 113t1 96q0 184 -29.5 239.5t-114.5 55.5h-8v70zM590 -98q65 -51 85 -80t20 -62q0 -52 -47.5 -113t-141.5 -130l-35 41q43 30 69 67t34 78q-45 25 -64.5 45.5t-19.5 42.5q0 24 48 66q6 5 9 8z
" />
    <glyph glyph-name="Ldot" unicode="&#x13f;" horiz-adv-x="1741" 
d="M98 1430q107 -6 162.5 -8.5t89.5 -2.5q65 0 127.5 2.5t124.5 7.5v-69h-31q-79 0 -107 -54.5t-28 -250.5v-199l3 -733q56 -3 106.5 -4.5t95.5 -1.5q268 0 345.5 49.5t123.5 191.5l72 -22q-31 -86 -55 -169t-42 -167q-166 5 -305.5 7.5t-261.5 2.5q-86 0 -192 -2.5
t-250 -7.5v65q7 -1 13.5 -1.5t19.5 -0.5q135 1 136 385q0 87 1 136l2 272q0 44 1 113t1 96q0 184 -29.5 239.5t-114.5 55.5h-8v70zM1456 887q68 0 116 -48t48 -116t-48.5 -116t-115.5 -48q-66 0 -115 49t-49 115q0 67 48 115.5t116 48.5z" />
    <glyph glyph-name="Nacute" unicode="&#x143;" horiz-adv-x="1655" 
d="M61 1427q47 -4 91.5 -6t87.5 -2q32 0 75 2t93 6q13 -33 36 -68t58 -77l825 -976q-3 152 -6 403q-8 527 -18 567q-12 46 -42.5 64t-99.5 18h-31v69q12 0 36 -1q142 -7 200 -7q59 0 206 7q21 1 32 1l-1 -69q-6 1 -13 1.5t-19 0.5q-134 0 -136 -373q-1 -94 -1 -147l-4 -266
q-2 -59 -2.5 -121.5t-0.5 -171.5q0 -121 3 -188.5t10 -108.5h-111q-17 40 -121 160l-10 12l-858 1009v-23q6 -936 20 -990q12 -46 42.5 -64t97.5 -18h30v-70q-15 1 -44 2q-140 6 -191 6q-49 0 -108.5 -2t-125.5 -6v69q6 0 13.5 -0.5t19.5 -0.5q134 0 136 371q1 94 1 147
l5 266q1 86 1.5 167.5t0.5 186.5q0 86 -33 119t-117 33h-27v69zM944 2001l149 -96l-334 -334l-75 27z" />
    <glyph glyph-name="Ncaron" unicode="&#x147;" horiz-adv-x="1655" 
d="M61 1427q47 -4 91.5 -6t87.5 -2q32 0 75 2t93 6q13 -33 36 -68t58 -77l825 -976q-3 152 -6 403q-8 527 -18 567q-12 46 -42.5 64t-99.5 18h-31v69q12 0 36 -1q142 -7 200 -7q59 0 206 7q21 1 32 1l-1 -69q-6 1 -13 1.5t-19 0.5q-134 0 -136 -373q-1 -94 -1 -147l-4 -266
q-2 -59 -2.5 -121.5t-0.5 -171.5q0 -121 3 -188.5t10 -108.5h-111q-17 40 -121 160l-10 12l-858 1009v-23q6 -936 20 -990q12 -46 42.5 -64t97.5 -18h30v-70q-15 1 -44 2q-140 6 -191 6q-49 0 -108.5 -2t-125.5 -6v69q6 0 13.5 -0.5t19.5 -0.5q134 0 136 371q1 94 1 147
l5 266q1 86 1.5 167.5t0.5 186.5q0 86 -33 119t-117 33h-27v69zM583 1921l244 -202l246 202l59 -30l-274 -320h-62l-274 322z" />
    <glyph glyph-name="Ncommaaccent" unicode="&#x145;" horiz-adv-x="1655" 
d="M61 1427q47 -4 91.5 -6t87.5 -2q32 0 75 2t93 6q13 -33 36 -68t58 -77l825 -976q-3 152 -6 403q-8 527 -18 567q-12 46 -42.5 64t-99.5 18h-31v69q12 0 36 -1q142 -7 200 -7q59 0 206 7q21 1 32 1l-1 -69q-6 1 -13 1.5t-19 0.5q-134 0 -136 -373q-1 -94 -1 -147l-4 -266
q-2 -59 -2.5 -121.5t-0.5 -171.5q0 -121 3 -188.5t10 -108.5h-111q-17 40 -121 160l-10 12l-858 1009v-23q6 -936 20 -990q12 -46 42.5 -64t97.5 -18h30v-70q-15 1 -44 2q-140 6 -191 6q-49 0 -108.5 -2t-125.5 -6v69q6 0 13.5 -0.5t19.5 -0.5q134 0 136 371q1 94 1 147
l5 266q1 86 1.5 167.5t0.5 186.5q0 86 -33 119t-117 33h-27v69zM831 -98q65 -51 85 -80t20 -62q0 -52 -47.5 -113t-141.5 -130l-35 41q43 30 69 67t34 78q-45 25 -64.5 45.5t-19.5 42.5q0 24 48 66q6 5 9 8z" />
    <glyph glyph-name="Omacron" unicode="&#x14c;" horiz-adv-x="1642" 
d="M1327 684q0 291 -150 477.5t-378 186.5q-219 0 -351.5 -160t-132.5 -428q0 -298 150.5 -489t376.5 -191q218 0 351.5 164.5t133.5 439.5zM821 1460q152 0 271.5 -43.5t216.5 -134.5q116 -110 177.5 -255t61.5 -308q0 -166 -65 -314t-185 -255q-96 -86 -223.5 -134.5
t-255.5 -48.5q-160 0 -294.5 59t-237.5 175q-94 106 -143.5 238t-49.5 278q0 158 59.5 298.5t172.5 246.5q102 96 230 147t265 51zM561 1809h518v-127h-518v127z" />
    <glyph glyph-name="Obreve" unicode="&#x14e;" horiz-adv-x="1642" 
d="M1327 684q0 291 -150 477.5t-378 186.5q-219 0 -351.5 -160t-132.5 -428q0 -298 150.5 -489t376.5 -191q218 0 351.5 164.5t133.5 439.5zM821 1460q152 0 271.5 -43.5t216.5 -134.5q116 -110 177.5 -255t61.5 -308q0 -166 -65 -314t-185 -255q-96 -86 -223.5 -134.5
t-255.5 -48.5q-160 0 -294.5 59t-237.5 175q-94 106 -143.5 238t-49.5 278q0 158 59.5 298.5t172.5 246.5q102 96 230 147t265 51zM610 1885q29 -77 79 -111.5t132 -34.5q81 0 132 35t79 111l63 -21q-35 -128 -104 -193t-170 -65q-100 0 -169.5 65.5t-104.5 192.5z" />
    <glyph glyph-name="Ohungarumlaut" unicode="&#x150;" horiz-adv-x="1642" 
d="M1327 684q0 291 -150 477.5t-378 186.5q-219 0 -351.5 -160t-132.5 -428q0 -298 150.5 -489t376.5 -191q218 0 351.5 164.5t133.5 439.5zM821 1460q152 0 271.5 -43.5t216.5 -134.5q116 -110 177.5 -255t61.5 -308q0 -166 -65 -314t-185 -255q-96 -86 -223.5 -134.5
t-255.5 -48.5q-160 0 -294.5 59t-237.5 175q-94 106 -143.5 238t-49.5 278q0 158 59.5 298.5t172.5 246.5q102 96 230 147t265 51zM1069 2001l133 -86l-279 -344l-75 27zM784 2001l139 -67l-227 -363l-76 27z" />
    <glyph glyph-name="Oslashacute" unicode="&#x1fe;" horiz-adv-x="1642" 
d="M1100 1253q-70 53 -144 79t-155 26q-226 0 -363 -163t-137 -435q0 -154 40.5 -278.5t121.5 -219.5q135 196 439 679zM1161 1196l-299 -454.5l-342 -544.5q75 -63 158 -94t174 -31q216 0 352.5 168.5t136.5 445.5q0 157 -45.5 286t-134.5 224zM1307 1608l84 -54
l-88.5 -132.5l-57.5 -88.5q147 -112 225 -270t78 -344q0 -165 -65 -314t-185 -255q-96 -86 -223.5 -134.5t-255.5 -48.5q-111 0 -201.5 24.5t-168.5 76.5l-67.5 -109.5l-76.5 -130.5l-80 49l98 148l58 90q-135 100 -211 259t-76 343q0 315 214 529t532 214q88 0 169.5 -19
t161.5 -59q41 64 110 181zM938 2001l149 -96l-334 -334l-75 27z" />
    <glyph glyph-name="Racute" unicode="&#x154;" horiz-adv-x="1440" 
d="M432 705q48 -5 90.5 -7t75.5 -2q28 0 64 1.5t78 5.5q96 58 141 134.5t45 182.5q0 139 -90 223t-242 84q-41 0 -80 -3.5t-77 -10.5q-3 -124 -4 -255t-1 -353zM76 65q7 -1 13.5 -1.5t19.5 -0.5q133 0 135 374q1 94 2 147l4 273q1 88 1.5 171t0.5 180q0 86 -32 119t-114 33
h-8v70q67 -5 132.5 -7t127.5 -2q67 0 166.5 4.5t132.5 4.5q205 0 336 -108t131 -271q0 -121 -65.5 -215.5t-196.5 -161.5l187 -283l30 -46q194 -296 318 -296h10v-57q-14 -1 -42 -4q-65 -6 -95 -6q-106 0 -167.5 28.5t-121.5 110.5q-10 13 -110.5 178t-202.5 311
q-38 -4 -81 -6t-95 -2h-60v-307q0 -150 31 -189.5t123 -39.5q3 0 8 1t8 1q4 0 6.5 -1t3.5 -1v-66q-71 4 -141 6t-139 2q-37 0 -104 -2t-152 -6v65zM838 2001l149 -96l-334 -334l-75 27z" />
    <glyph glyph-name="Rcaron" unicode="&#x158;" horiz-adv-x="1440" 
d="M432 705q48 -5 90.5 -7t75.5 -2q28 0 64 1.5t78 5.5q96 58 141 134.5t45 182.5q0 139 -90 223t-242 84q-41 0 -80 -3.5t-77 -10.5q-3 -124 -4 -255t-1 -353zM76 65q7 -1 13.5 -1.5t19.5 -0.5q133 0 135 374q1 94 2 147l4 273q1 88 1.5 171t0.5 180q0 86 -32 119t-114 33
h-8v70q67 -5 132.5 -7t127.5 -2q67 0 166.5 4.5t132.5 4.5q205 0 336 -108t131 -271q0 -121 -65.5 -215.5t-196.5 -161.5l187 -283l30 -46q194 -296 318 -296h10v-57q-14 -1 -42 -4q-65 -6 -95 -6q-106 0 -167.5 28.5t-121.5 110.5q-10 13 -110.5 178t-202.5 311
q-38 -4 -81 -6t-95 -2h-60v-307q0 -150 31 -189.5t123 -39.5q3 0 8 1t8 1q4 0 6.5 -1t3.5 -1v-66q-71 4 -141 6t-139 2q-37 0 -104 -2t-152 -6v65zM477 1921l244 -202l246 202l59 -30l-274 -320h-62l-274 322z" />
    <glyph glyph-name="Rcommaaccent" unicode="&#x156;" horiz-adv-x="1440" 
d="M432 705q48 -5 90.5 -7t75.5 -2q28 0 64 1.5t78 5.5q96 58 141 134.5t45 182.5q0 139 -90 223t-242 84q-41 0 -80 -3.5t-77 -10.5q-3 -124 -4 -255t-1 -353zM76 65q7 -1 13.5 -1.5t19.5 -0.5q133 0 135 374q1 94 2 147l4 273q1 88 1.5 171t0.5 180q0 86 -32 119t-114 33
h-8v70q67 -5 132.5 -7t127.5 -2q67 0 166.5 4.5t132.5 4.5q205 0 336 -108t131 -271q0 -121 -65.5 -215.5t-196.5 -161.5l187 -283l30 -46q194 -296 318 -296h10v-57q-14 -1 -42 -4q-65 -6 -95 -6q-106 0 -167.5 28.5t-121.5 110.5q-10 13 -110.5 178t-202.5 311
q-38 -4 -81 -6t-95 -2h-60v-307q0 -150 31 -189.5t123 -39.5q3 0 8 1t8 1q4 0 6.5 -1t3.5 -1v-66q-71 4 -141 6t-139 2q-37 0 -104 -2t-152 -6v65zM725 -98q65 -51 85 -80t20 -62q0 -52 -47.5 -113t-141.5 -130l-35 41q43 30 69 67t34 78q-45 25 -64.5 45.5t-19.5 42.5
q0 24 48 66q6 5 9 8z" />
    <glyph glyph-name="Sacute" unicode="&#x15a;" horiz-adv-x="1108" 
d="M940 1384q0 -74 8.5 -146t26.5 -142l-78 -15q-17 124 -95.5 184t-221.5 60q-132 0 -214.5 -64t-82.5 -165q0 -166 352 -284q47 -15 72 -24q161 -56 237 -143.5t76 -216.5q0 -199 -151 -322.5t-400 -123.5q-95 0 -185.5 15.5t-183.5 48.5q1 10 1.5 23.5t0.5 39.5
q0 71 -8 140t-24 138l90 21q17 -164 103 -240t255 -76q148 0 241 74.5t93 191.5q0 166 -290 258q-41 13 -64 21q-201 65 -288 159t-87 240q0 172 136 287t341 115q75 0 152 -12t188 -42zM672 2001l149 -96l-334 -334l-75 27z" />
    <glyph glyph-name="Scircumflex" unicode="&#x15c;" horiz-adv-x="1108" 
d="M940 1384q0 -74 8.5 -146t26.5 -142l-78 -15q-17 124 -95.5 184t-221.5 60q-132 0 -214.5 -64t-82.5 -165q0 -166 352 -284q47 -15 72 -24q161 -56 237 -143.5t76 -216.5q0 -199 -151 -322.5t-400 -123.5q-95 0 -185.5 15.5t-183.5 48.5q1 10 1.5 23.5t0.5 39.5
q0 71 -8 140t-24 138l90 21q17 -164 103 -240t255 -76q148 0 241 74.5t93 191.5q0 166 -290 258q-41 13 -64 21q-201 65 -288 159t-87 240q0 172 136 287t341 115q75 0 152 -12t188 -42zM526 1924h62l272 -322l-61 -31l-244 203l-244 -203l-59 31z" />
    <glyph glyph-name="Scedilla" unicode="&#x15e;" horiz-adv-x="1108" 
d="M940 1384q0 -74 8.5 -146t26.5 -142l-78 -15q-17 124 -95.5 184t-221.5 60q-132 0 -214.5 -64t-82.5 -165q0 -166 352 -284q47 -15 72 -24q161 -56 237 -143.5t76 -216.5q0 -199 -151 -322.5t-400 -123.5q-95 0 -185.5 15.5t-183.5 48.5q1 10 1.5 23.5t0.5 39.5
q0 71 -8 140t-24 138l90 21q17 -164 103 -240t255 -76q148 0 241 74.5t93 191.5q0 166 -290 258q-41 13 -64 21q-201 65 -288 159t-87 240q0 172 136 287t341 115q75 0 152 -12t188 -42zM618 0h76l-98 -121q65 -16 100 -50t35 -81q0 -67 -66.5 -120.5t-185.5 -82.5l-30 60
q66 15 100.5 46t34.5 77q0 37 -30.5 61t-90.5 35z" />
    <glyph glyph-name="Tcommaaccent" unicode="&#x21a;" horiz-adv-x="1292" 
d="M334 70h35q71 0 101 17.5t42 64.5q9 31 12.5 225t3.5 604v319h-202q-147 0 -198.5 -39.5t-76.5 -166.5l-65 14q19 87 29 171t10 165q30 -19 121.5 -27t320.5 -8h244q304 0 391.5 7.5t122.5 27.5q0 -10 -1 -31.5t-1 -32.5q0 -63 5.5 -130t16.5 -138l-63 -12
q-12 113 -61.5 154t-208.5 46h-189q-1 -57 -2 -161q-2 -273 -2 -367q0 -355 4.5 -481t15.5 -157q13 -36 43 -50t92 -14h35v-70q-83 4 -156.5 6t-131.5 2q-51 0 -125.5 -2t-161.5 -6v70zM651 -98q65 -51 85 -80t20 -62q0 -52 -47.5 -113t-141.5 -130l-35 41q43 30 69 67
t34 78q-45 25 -64.5 45.5t-19.5 42.5q0 24 48 66q6 5 9 8z" />
    <glyph glyph-name="Tcaron" unicode="&#x164;" horiz-adv-x="1292" 
d="M334 70h35q71 0 101 17.5t42 64.5q9 31 12.5 225t3.5 604v319h-202q-147 0 -198.5 -39.5t-76.5 -166.5l-65 14q19 87 29 171t10 165q30 -19 121.5 -27t320.5 -8h244q304 0 391.5 7.5t122.5 27.5q0 -10 -1 -31.5t-1 -32.5q0 -63 5.5 -130t16.5 -138l-63 -12
q-12 113 -61.5 154t-208.5 46h-189q-1 -57 -2 -161q-2 -273 -2 -367q0 -355 4.5 -481t15.5 -157q13 -36 43 -50t92 -14h35v-70q-83 4 -156.5 6t-131.5 2q-51 0 -125.5 -2t-161.5 -6v70zM403 1921l244 -202l246 202l59 -30l-274 -320h-62l-274 322z" />
    <glyph glyph-name="Utilde" unicode="&#x168;" horiz-adv-x="1612" 
d="M598 1427v-69q-6 0 -17 1t-16 1q-79 0 -107 -52t-28 -247v-158v-207q0 -162 10 -239t33 -127q49 -108 144.5 -164.5t230.5 -56.5q101 0 177 29t130 89t76 147t22 290q0 244 -5.5 410.5t-14.5 201.5q-14 46 -43.5 64t-95.5 18h-15v69q12 0 35 -1q138 -7 197 -7q58 0 196 7
q24 1 35 1v-69h-12q-59 0 -88.5 -15t-42.5 -50q-11 -29 -16 -152.5t-5 -399.5v-100q0 -158 -12 -241.5t-39 -147.5q-56 -133 -193 -209t-323 -76q-129 0 -237.5 38t-184.5 110q-83 76 -118 179.5t-35 289.5q0 72 2 235.5t2 255.5v31q0 172 -28.5 212t-111.5 40h-18v69
q71 -4 135 -6t117 -2q64 0 130 2t134 6zM1168 1899l53 -43q-53 -69 -107 -119t-117 -86q-71 5 -173 21t-133 16q-60 0 -107 -23.5t-86 -72.5l-49 47q52 68 110 118.5t125 86.5q72 -6 174.5 -22.5t135.5 -16.5q51 0 94 23.5t80 70.5z" />
    <glyph glyph-name="Umacron" unicode="&#x16a;" horiz-adv-x="1612" 
d="M598 1427v-69q-6 0 -17 1t-16 1q-79 0 -107 -52t-28 -247v-158v-207q0 -162 10 -239t33 -127q49 -108 144.5 -164.5t230.5 -56.5q101 0 177 29t130 89t76 147t22 290q0 244 -5.5 410.5t-14.5 201.5q-14 46 -43.5 64t-95.5 18h-15v69q12 0 35 -1q138 -7 197 -7q58 0 196 7
q24 1 35 1v-69h-12q-59 0 -88.5 -15t-42.5 -50q-11 -29 -16 -152.5t-5 -399.5v-100q0 -158 -12 -241.5t-39 -147.5q-56 -133 -193 -209t-323 -76q-129 0 -237.5 38t-184.5 110q-83 76 -118 179.5t-35 289.5q0 72 2 235.5t2 255.5v31q0 172 -28.5 212t-111.5 40h-18v69
q71 -4 135 -6t117 -2q64 0 130 2t134 6zM578 1809h518v-127h-518v127z" />
    <glyph glyph-name="Ubreve" unicode="&#x16c;" horiz-adv-x="1612" 
d="M598 1427v-69q-6 0 -17 1t-16 1q-79 0 -107 -52t-28 -247v-158v-207q0 -162 10 -239t33 -127q49 -108 144.5 -164.5t230.5 -56.5q101 0 177 29t130 89t76 147t22 290q0 244 -5.5 410.5t-14.5 201.5q-14 46 -43.5 64t-95.5 18h-15v69q12 0 35 -1q138 -7 197 -7q58 0 196 7
q24 1 35 1v-69h-12q-59 0 -88.5 -15t-42.5 -50q-11 -29 -16 -152.5t-5 -399.5v-100q0 -158 -12 -241.5t-39 -147.5q-56 -133 -193 -209t-323 -76q-129 0 -237.5 38t-184.5 110q-83 76 -118 179.5t-35 289.5q0 72 2 235.5t2 255.5v31q0 172 -28.5 212t-111.5 40h-18v69
q71 -4 135 -6t117 -2q64 0 130 2t134 6zM627 1885q29 -77 79 -111.5t132 -34.5q81 0 132 35t79 111l63 -21q-35 -128 -104 -193t-170 -65q-100 0 -169.5 65.5t-104.5 192.5z" />
    <glyph glyph-name="Uring" unicode="&#x16e;" horiz-adv-x="1612" 
d="M598 1427v-69q-6 0 -17 1t-16 1q-79 0 -107 -52t-28 -247v-158v-207q0 -162 10 -239t33 -127q49 -108 144.5 -164.5t230.5 -56.5q101 0 177 29t130 89t76 147t22 290q0 244 -5.5 410.5t-14.5 201.5q-14 46 -43.5 64t-95.5 18h-15v69q12 0 35 -1q138 -7 197 -7q58 0 196 7
q24 1 35 1v-69h-12q-59 0 -88.5 -15t-42.5 -50q-11 -29 -16 -152.5t-5 -399.5v-100q0 -158 -12 -241.5t-39 -147.5q-56 -133 -193 -209t-323 -76q-129 0 -237.5 38t-184.5 110q-83 76 -118 179.5t-35 289.5q0 72 2 235.5t2 255.5v31q0 172 -28.5 212t-111.5 40h-18v69
q71 -4 135 -6t117 -2q64 0 130 2t134 6zM838 1934q-57 0 -97 -40.5t-40 -99.5q0 -57 40 -98t97 -41t98 41.5t41 97.5q0 59 -40.5 99.5t-98.5 40.5zM838 2038q101 0 172.5 -71t71.5 -173q0 -101 -70.5 -171t-173.5 -70q-101 0 -171.5 70t-70.5 171q0 102 70.5 173t171.5 71z
" />
    <glyph glyph-name="Uhungarumlaut" unicode="&#x170;" horiz-adv-x="1612" 
d="M598 1427v-69q-6 0 -17 1t-16 1q-79 0 -107 -52t-28 -247v-158v-207q0 -162 10 -239t33 -127q49 -108 144.5 -164.5t230.5 -56.5q101 0 177 29t130 89t76 147t22 290q0 244 -5.5 410.5t-14.5 201.5q-14 46 -43.5 64t-95.5 18h-15v69q12 0 35 -1q138 -7 197 -7q58 0 196 7
q24 1 35 1v-69h-12q-59 0 -88.5 -15t-42.5 -50q-11 -29 -16 -152.5t-5 -399.5v-100q0 -158 -12 -241.5t-39 -147.5q-56 -133 -193 -209t-323 -76q-129 0 -237.5 38t-184.5 110q-83 76 -118 179.5t-35 289.5q0 72 2 235.5t2 255.5v31q0 172 -28.5 212t-111.5 40h-18v69
q71 -4 135 -6t117 -2q64 0 130 2t134 6zM1086 2001l133 -86l-279 -344l-75 27zM801 2001l139 -67l-227 -363l-76 27z" />
    <glyph glyph-name="Uogonek" unicode="&#x172;" horiz-adv-x="1612" 
d="M598 1427v-69q-6 0 -17 1t-16 1q-79 0 -107 -52t-28 -247v-158v-207q0 -162 10 -239t33 -127q49 -108 144.5 -164.5t230.5 -56.5q101 0 177 29t130 89t76 147t22 290q0 244 -5.5 410.5t-14.5 201.5q-14 46 -43.5 64t-95.5 18h-15v69q12 0 35 -1q138 -7 197 -7q58 0 196 7
q24 1 35 1v-69h-12q-59 0 -88.5 -15t-42.5 -50q-11 -29 -16 -152.5t-5 -399.5v-100q0 -158 -12 -241.5t-39 -147.5q-56 -133 -193 -209t-323 -76q-129 0 -237.5 38t-184.5 110q-83 76 -118 179.5t-35 289.5q0 72 2 235.5t2 255.5v31q0 172 -28.5 212t-111.5 40h-18v69
q71 -4 135 -6t117 -2q64 0 130 2t134 6zM875 43h37q-83 -78 -128.5 -154.5t-45.5 -134.5q0 -43 22.5 -68.5t58.5 -25.5q29 0 55.5 18.5t51.5 55.5l55 -39q-43 -71 -94.5 -106t-112.5 -35q-72 0 -118.5 46t-46.5 117q0 77 66.5 158t199.5 168z" />
    <glyph glyph-name="Wdieresis" unicode="&#x1e84;" horiz-adv-x="2124" 
d="M717 250l307 764l-61 196q-32 100 -59 125t-85 25q-16 0 -24.5 -0.5t-15.5 -1.5l-1 69q92 -5 148 -7.5t96 -2.5q38 0 97.5 2.5t160.5 7.5v-69h-27q-72 0 -95 -13.5t-23 -50.5q0 -22 7.5 -54t35.5 -116l284 -874l106 302q234 664 234 728q0 45 -24 61.5t-99 16.5h-26v69
q63 -4 120.5 -6t104.5 -2q54 0 110.5 2t114.5 6v-69h-16q-28 0 -47.5 -5t-34.5 -16q-32 -25 -177 -412l-44 -118l-84 -221l-98 -260q-110 -289 -121 -342h-117q-14 52 -43 141l-14 42l-232 697l-270 -671q-3 -8 -12 -30q-42 -97 -64 -179h-117q-7 50 -118 354l-82 227
l-109 299l-69 201q-101 297 -185 297q-5 0 -11.5 -1t-18.5 -3l-1 69q64 -4 121 -6t105 -2q57 0 117 2t122 6v-69q-72 0 -95 -13t-23 -51q0 -41 49 -180l4 -10zM1276 1862q39 0 83 -40t44 -77q0 -36 -44 -76t-83 -40q-40 0 -82.5 39.5t-42.5 76.5q0 36 43 76.5t82 40.5z
M850 1862q39 0 82 -40t43 -77q0 -36 -43 -76t-82 -40q-40 0 -82.5 39.5t-42.5 76.5q0 36 43 76.5t82 40.5z" />
    <glyph glyph-name="Wgrave" unicode="&#x1e80;" horiz-adv-x="2124" 
d="M717 250l307 764l-61 196q-32 100 -59 125t-85 25q-16 0 -24.5 -0.5t-15.5 -1.5l-1 69q92 -5 148 -7.5t96 -2.5q38 0 97.5 2.5t160.5 7.5v-69h-27q-72 0 -95 -13.5t-23 -50.5q0 -22 7.5 -54t35.5 -116l284 -874l106 302q234 664 234 728q0 45 -24 61.5t-99 16.5h-26v69
q63 -4 120.5 -6t104.5 -2q54 0 110.5 2t114.5 6v-69h-16q-28 0 -47.5 -5t-34.5 -16q-32 -25 -177 -412l-44 -118l-84 -221l-98 -260q-110 -289 -121 -342h-117q-14 52 -43 141l-14 42l-232 697l-270 -671q-3 -8 -12 -30q-42 -97 -64 -179h-117q-7 50 -118 354l-82 227
l-109 299l-69 201q-101 297 -185 297q-5 0 -11.5 -1t-18.5 -3l-1 69q64 -4 121 -6t105 -2q57 0 117 2t122 6v-69q-72 0 -95 -13t-23 -51q0 -41 49 -180l4 -10zM950 2001l265 -405l-76 -25l-336 340z" />
    <glyph glyph-name="Wacute" unicode="&#x1e82;" horiz-adv-x="2124" 
d="M717 250l307 764l-61 196q-32 100 -59 125t-85 25q-16 0 -24.5 -0.5t-15.5 -1.5l-1 69q92 -5 148 -7.5t96 -2.5q38 0 97.5 2.5t160.5 7.5v-69h-27q-72 0 -95 -13.5t-23 -50.5q0 -22 7.5 -54t35.5 -116l284 -874l106 302q234 664 234 728q0 45 -24 61.5t-99 16.5h-26v69
q63 -4 120.5 -6t104.5 -2q54 0 110.5 2t114.5 6v-69h-16q-28 0 -47.5 -5t-34.5 -16q-32 -25 -177 -412l-44 -118l-84 -221l-98 -260q-110 -289 -121 -342h-117q-14 52 -43 141l-14 42l-232 697l-270 -671q-3 -8 -12 -30q-42 -97 -64 -179h-117q-7 50 -118 354l-82 227
l-109 299l-69 201q-101 297 -185 297q-5 0 -11.5 -1t-18.5 -3l-1 69q64 -4 121 -6t105 -2q57 0 117 2t122 6v-69q-72 0 -95 -13t-23 -51q0 -41 49 -180l4 -10zM1180 2001l149 -96l-334 -334l-75 27z" />
    <glyph glyph-name="Wcircumflex" unicode="&#x174;" horiz-adv-x="2124" 
d="M717 250l307 764l-61 196q-32 100 -59 125t-85 25q-16 0 -24.5 -0.5t-15.5 -1.5l-1 69q92 -5 148 -7.5t96 -2.5q38 0 97.5 2.5t160.5 7.5v-69h-27q-72 0 -95 -13.5t-23 -50.5q0 -22 7.5 -54t35.5 -116l284 -874l106 302q234 664 234 728q0 45 -24 61.5t-99 16.5h-26v69
q63 -4 120.5 -6t104.5 -2q54 0 110.5 2t114.5 6v-69h-16q-28 0 -47.5 -5t-34.5 -16q-32 -25 -177 -412l-44 -118l-84 -221l-98 -260q-110 -289 -121 -342h-117q-14 52 -43 141l-14 42l-232 697l-270 -671q-3 -8 -12 -30q-42 -97 -64 -179h-117q-7 50 -118 354l-82 227
l-109 299l-69 201q-101 297 -185 297q-5 0 -11.5 -1t-18.5 -3l-1 69q64 -4 121 -6t105 -2q57 0 117 2t122 6v-69q-72 0 -95 -13t-23 -51q0 -41 49 -180l4 -10zM1034 1924h62l272 -322l-61 -31l-244 203l-244 -203l-59 31z" />
    <glyph glyph-name="Ygrave" unicode="&#x1ef2;" horiz-adv-x="1350" 
d="M18 1427q74 -4 139 -6t115 -2q54 0 116 2t130 6v-69h-14q-55 0 -84 -11.5t-29 -33.5q0 -24 49 -108l21 -36l241 -430q164 263 246 406t82 166q0 24 -24.5 35.5t-79.5 11.5h-17v69q60 -4 114 -6t95 -2q51 0 104 2t109 6v-69q-2 1 -5 1.5t-9 0.5h-12q-89 0 -231 -228
l-70 -112l-252 -385l4 -357q2 -139 32 -173.5t119 -34.5h35v-70q-83 4 -157.5 6t-133.5 2q-50 0 -124.5 -2t-161.5 -6v70q7 0 21 -1t20 -1q87 0 118 40t33 166l4 355l-323 545q-9 13 -23 38q-89 150 -162 150q-5 0 -12.5 -1l-21.5 -3zM563 2001l265 -405l-76 -25l-336 340z
" />
    <glyph glyph-name="Ycircumflex" unicode="&#x176;" horiz-adv-x="1350" 
d="M18 1427q74 -4 139 -6t115 -2q54 0 116 2t130 6v-69h-14q-55 0 -84 -11.5t-29 -33.5q0 -24 49 -108l21 -36l241 -430q164 263 246 406t82 166q0 24 -24.5 35.5t-79.5 11.5h-17v69q60 -4 114 -6t95 -2q51 0 104 2t109 6v-69q-2 1 -5 1.5t-9 0.5h-12q-89 0 -231 -228
l-70 -112l-252 -385l4 -357q2 -139 32 -173.5t119 -34.5h35v-70q-83 4 -157.5 6t-133.5 2q-50 0 -124.5 -2t-161.5 -6v70q7 0 21 -1t20 -1q87 0 118 40t33 166l4 355l-323 545q-9 13 -23 38q-89 150 -162 150q-5 0 -12.5 -1l-21.5 -3zM647 1924h62l272 -322l-61 -31
l-244 203l-244 -203l-59 31z" />
    <glyph glyph-name="Zacute" unicode="&#x179;" horiz-adv-x="1366" 
d="M156 1427q83 -9 193.5 -13.5t305.5 -4.5h119h119q121 0 209 4.5t168 13.5l28 -55q-38 -35 -76.5 -78.5t-86.5 -107.5l-790 -1053q63 -1 131.5 -1.5t191.5 -0.5q190 0 290.5 5t149.5 16q57 11 100 65.5t80 163.5l68 -21q-32 -95 -54.5 -184t-35.5 -176q-114 11 -267.5 17
t-355.5 6h-76q-168 0 -280.5 -5.5t-214.5 -17.5l-33 59q53 44 139 159l17 22l790 1060h-336q-289 0 -374 -43t-107 -165l-66 18q24 75 37 153.5t17 163.5zM801 2001l149 -96l-334 -334l-75 27z" />
    <glyph glyph-name="Zdotaccent" unicode="&#x17b;" horiz-adv-x="1366" 
d="M156 1427q83 -9 193.5 -13.5t305.5 -4.5h119h119q121 0 209 4.5t168 13.5l28 -55q-38 -35 -76.5 -78.5t-86.5 -107.5l-790 -1053q63 -1 131.5 -1.5t191.5 -0.5q190 0 290.5 5t149.5 16q57 11 100 65.5t80 163.5l68 -21q-32 -95 -54.5 -184t-35.5 -176q-114 11 -267.5 17
t-355.5 6h-76q-168 0 -280.5 -5.5t-214.5 -17.5l-33 59q53 44 139 159l17 22l790 1060h-336q-289 0 -374 -43t-107 -165l-66 18q24 75 37 153.5t17 163.5zM684 1868q41 0 86 -42t45 -81q0 -38 -44.5 -79t-86.5 -41q-41 0 -86 41.5t-45 78.5q0 38 45 80.5t86 42.5z" />
    <glyph glyph-name="IJ" unicode="&#x132;" horiz-adv-x="1376" 
d="M764 1427q12 0 35 -1q159 -7 225 -7t225 7q23 1 35 1v-69q-66 -2 -94 -16t-41 -50q-10 -28 -14.5 -124.5t-4.5 -442.5q0 -118 1.5 -272t1.5 -191q0 -172 -23 -265t-76 -171q-66 -96 -153.5 -144.5t-194.5 -48.5q-78 0 -120 25.5t-42 73.5q0 42 22.5 71t55.5 29
q25 0 84 -31.5t96 -31.5q82 0 118 78.5t36 265.5v1077q0 101 -31 134.5t-121 33.5h-20v69zM76 1427q70 -4 139 -6t135 -2q56 0 125 2t146 6v-69h-17q-65 0 -97.5 -15t-45.5 -50q-8 -23 -11.5 -74.5t-3.5 -167.5v-199v-498q0 -118 5.5 -166t17.5 -71q13 -25 46.5 -36
t94.5 -11h21v-70q-86 4 -159 6t-122 2q-58 0 -131 -2t-153 -6v70h20q62 0 95 11t46 36q14 27 19.5 88.5t5.5 222.5v158v391q0 157 -4 223.5t-13 92.5q-12 35 -43.5 50t-97.5 15h-18v69z" />
    <glyph glyph-name="amacron" unicode="&#x101;" horiz-adv-x="985" 
d="M961 145l28 -63q-75 -54 -137 -83.5t-100 -29.5q-64 0 -96 37.5t-35 113.5q-109 -73 -181 -104.5t-129 -31.5q-101 0 -169 76t-68 186q0 187 403 282l148 35q0 17 1 49q3 66 3 86q0 104 -43 153.5t-131 49.5q-86 0 -135.5 -31.5t-49.5 -85.5q0 -5 1 -13.5t1 -12.5
q0 -31 -30 -51.5t-72 -20.5q-36 0 -53 12t-17 37q0 80 135 178.5t279 98.5q139 0 211 -76.5t72 -224.5q0 -80 -9.5 -246t-9.5 -252q0 -65 14.5 -88t51.5 -23q16 0 41.5 9.5t75.5 33.5zM620 483l-57 -15q-325 -89 -325 -210q0 -66 42 -107.5t111 -41.5q42 0 97 22t128 70z
M236 1358h518v-127h-518v127z" />
    <glyph glyph-name="abreve" unicode="&#x103;" horiz-adv-x="985" 
d="M961 145l28 -63q-75 -54 -137 -83.5t-100 -29.5q-64 0 -96 37.5t-35 113.5q-109 -73 -181 -104.5t-129 -31.5q-101 0 -169 76t-68 186q0 187 403 282l148 35q0 17 1 49q3 66 3 86q0 104 -43 153.5t-131 49.5q-86 0 -135.5 -31.5t-49.5 -85.5q0 -5 1 -13.5t1 -12.5
q0 -31 -30 -51.5t-72 -20.5q-36 0 -53 12t-17 37q0 80 135 178.5t279 98.5q139 0 211 -76.5t72 -224.5q0 -80 -9.5 -246t-9.5 -252q0 -65 14.5 -88t51.5 -23q16 0 41.5 9.5t75.5 33.5zM620 483l-57 -15q-325 -89 -325 -210q0 -66 42 -107.5t111 -41.5q42 0 97 22t128 70z
M285 1434q29 -77 79 -111.5t132 -34.5q81 0 132 35t79 111l63 -21q-35 -128 -104 -193t-170 -65q-100 0 -169.5 65.5t-104.5 192.5z" />
    <glyph glyph-name="aogonek" unicode="&#x105;" horiz-adv-x="985" 
d="M946 143l33 -57q-109 -70 -175.5 -162.5t-66.5 -167.5q0 -43 23.5 -69.5t60.5 -26.5q29 0 55.5 18.5t51.5 55.5l53 -39q-43 -71 -94.5 -106t-112.5 -35q-73 0 -119.5 46t-46.5 117q0 62 44.5 127.5t127.5 126.5q-4 0 -11 -1q-20 -3 -26 -3q-57 0 -88 39t-34 114
q-112 -75 -183 -106.5t-127 -31.5q-101 0 -169 76t-68 186q0 188 416 287l135 32q0 17 1 49q3 66 3 86q0 104 -43 153.5t-131 49.5q-91 0 -133 -31t-50 -113q-3 -41 -23 -57t-69 -16q-41 0 -60.5 12.5t-19.5 38.5q0 80 135 178.5t279 98.5q139 0 211 -76.5t72 -224.5
q0 -77 -9.5 -243t-9.5 -255q0 -63 14.5 -87t49.5 -24q16 0 38 9t66 32zM620 483l-57 -15q-325 -89 -325 -210q0 -66 42 -107.5t111 -41.5q44 0 99 22t126 68z" />
    <glyph glyph-name="aeacute" unicode="&#x1fd;" horiz-adv-x="1548" 
d="M801 633q198 0 311.5 7t179.5 24q-30 123 -91 188.5t-146 65.5q-96 0 -165 -77t-89 -208zM629 205l3 278q-17 -4 -53 -14q-343 -89 -343 -207q0 -64 44.5 -106.5t114.5 -42.5q46 0 101.5 21.5t132.5 70.5zM702 172q-137 -100 -228 -144t-159 -44q-102 0 -172.5 76
t-70.5 186q0 186 412 281l153 36q1 18 2 50q2 65 2 85q0 105 -43.5 154t-136.5 49q-88 0 -138.5 -30t-50.5 -83v-20q0 -39 -29 -60.5t-81 -21.5q-30 0 -46 12.5t-16 36.5q0 79 138.5 178t279.5 99q87 0 146.5 -37.5t87.5 -110.5q63 76 142.5 112t180.5 36q176 0 281 -118.5
t121 -334.5h-488q-57 0 -105 -2t-89 -6v-37q0 -196 90.5 -303t255.5 -107q73 0 145.5 24.5t151.5 76.5l39 -64q-102 -84 -205.5 -127t-202.5 -43q-116 0 -213.5 53.5t-153.5 147.5zM891 1550l149 -96l-334 -334l-75 27z" />
    <glyph glyph-name="cacute" unicode="&#x107;" horiz-adv-x="915" 
d="M829 197l50 -76q-97 -74 -191 -112t-178 -38q-196 0 -320 140.5t-124 359.5q0 227 157 384t383 157q116 0 179 -32.5t63 -90.5q0 -42 -25.5 -72.5t-58.5 -30.5q-11 0 -92.5 50.5t-155.5 50.5q-130 0 -206.5 -93.5t-76.5 -254.5q0 -203 92.5 -316.5t256.5 -113.5
q61 0 121.5 21t125.5 67zM639 1550l149 -96l-334 -334l-75 27z" />
    <glyph glyph-name="ccircumflex" unicode="&#x109;" horiz-adv-x="915" 
d="M829 197l50 -76q-97 -74 -191 -112t-178 -38q-196 0 -320 140.5t-124 359.5q0 227 157 384t383 157q116 0 179 -32.5t63 -90.5q0 -42 -25.5 -72.5t-58.5 -30.5q-11 0 -92.5 50.5t-155.5 50.5q-130 0 -206.5 -93.5t-76.5 -254.5q0 -203 92.5 -316.5t256.5 -113.5
q61 0 121.5 21t125.5 67zM493 1473h62l272 -322l-61 -31l-244 203l-244 -203l-59 31z" />
    <glyph glyph-name="cdotaccent" unicode="&#x10b;" horiz-adv-x="915" 
d="M829 197l50 -76q-97 -74 -191 -112t-178 -38q-196 0 -320 140.5t-124 359.5q0 227 157 384t383 157q116 0 179 -32.5t63 -90.5q0 -42 -25.5 -72.5t-58.5 -30.5q-11 0 -92.5 50.5t-155.5 50.5q-130 0 -206.5 -93.5t-76.5 -254.5q0 -203 92.5 -316.5t256.5 -113.5
q61 0 121.5 21t125.5 67zM522 1417q41 0 86 -42t45 -81q0 -38 -44.5 -79t-86.5 -41q-41 0 -86 41.5t-45 78.5q0 38 45 80.5t86 42.5z" />
    <glyph glyph-name="ccaron" unicode="&#x10d;" horiz-adv-x="915" 
d="M829 197l50 -76q-97 -74 -191 -112t-178 -38q-196 0 -320 140.5t-124 359.5q0 227 157 384t383 157q116 0 179 -32.5t63 -90.5q0 -42 -25.5 -72.5t-58.5 -30.5q-11 0 -92.5 50.5t-155.5 50.5q-130 0 -206.5 -93.5t-76.5 -254.5q0 -203 92.5 -316.5t256.5 -113.5
q61 0 121.5 21t125.5 67zM278 1470l244 -202l246 202l59 -30l-274 -320h-62l-274 322z" />
    <glyph glyph-name="dcaron" unicode="&#x10f;" horiz-adv-x="1458" 
d="M799 821q-67 38 -127 56t-121 18q-154 0 -238 -96t-84 -271q0 -186 82.5 -295.5t220.5 -109.5q55 0 118.5 21t142.5 65zM983 1550l-1 -18q-12 -355 -19 -686l-2 -156q-2 -55 -3.5 -146.5t-1.5 -201.5v-39q0 -156 11 -193.5t43 -37.5q19 0 39.5 4t42.5 12l16 -63
q-70 -27 -137 -40.5t-135 -13.5l-29 1q-7 43 -10.5 79.5t-3.5 69.5q-114 -73 -188 -101t-144 -28q-175 0 -285 132.5t-110 344.5q0 236 141 381t366 145q51 0 107.5 -9.5t122.5 -29.5q0 9 1 27q5 175 5 315q0 63 -19.5 89t-64.5 26q-10 0 -25 -2.5t-41 -7.5l-12 65
q74 13 157 33.5t179 48.5zM1333 1458q74 -59 98.5 -95.5t24.5 -80.5q0 -70 -69 -171t-185 -193l-51 63q61 49 100 107.5t54 125.5q-51 34 -72 58t-21 49q0 32 60 85q5 4 9 8z" />
    <glyph glyph-name="dcroat" unicode="&#x111;" horiz-adv-x="1165" 
d="M799 821q-67 38 -127 56t-121 18q-154 0 -238 -96t-84 -271q0 -186 82.5 -295.5t220.5 -109.5q55 0 118.5 21t142.5 65zM983 1550q-5 -96 -7.5 -176.5t-2.5 -148.5h71h29q18 0 37.5 0.5t40.5 1.5v-88q-29 1 -89 2t-91 2q-3 -78 -5.5 -178t-2.5 -119l-2 -156
q-2 -55 -3.5 -146.5t-1.5 -201.5v-39q0 -156 11 -193.5t43 -37.5q19 0 39.5 4t42.5 12l16 -63q-70 -27 -137 -40.5t-135 -13.5l-29 1q-7 43 -10.5 79.5t-3.5 69.5q-114 -73 -188 -101t-144 -28q-175 0 -285 132.5t-110 344.5q0 236 141 381t366 145q51 0 107.5 -9.5
t122.5 -29.5q0 21 3 88t3 103q-37 0 -89.5 1t-68.5 1q-42 0 -85 -0.5t-89 -1.5l1 88q94 -3 177 -4.5t154 -1.5v69q0 63 -19.5 89t-64.5 26q-10 0 -25 -2.5t-41 -7.5l-12 65q74 13 157 33.5t179 48.5z" />
    <glyph glyph-name="emacron" unicode="&#x113;" horiz-adv-x="999" 
d="M930 559h-488q-57 0 -105 -2t-89 -6v-37q0 -196 90.5 -303t255.5 -107q73 0 144 24.5t151 76.5l39 -64q-103 -84 -205.5 -127t-202.5 -43q-194 0 -320 138.5t-126 355.5q0 231 132 388t322 157q177 0 282 -118t120 -333zM745 664q-30 123 -91 188.5t-146 65.5
q-96 0 -164.5 -77t-89.5 -208q198 0 311.5 7t179.5 24zM242 1358h518v-127h-518v127z" />
    <glyph glyph-name="ebreve" unicode="&#x115;" horiz-adv-x="999" 
d="M930 559h-488q-57 0 -105 -2t-89 -6v-37q0 -196 90.5 -303t255.5 -107q73 0 144 24.5t151 76.5l39 -64q-103 -84 -205.5 -127t-202.5 -43q-194 0 -320 138.5t-126 355.5q0 231 132 388t322 157q177 0 282 -118t120 -333zM745 664q-30 123 -91 188.5t-146 65.5
q-96 0 -164.5 -77t-89.5 -208q198 0 311.5 7t179.5 24zM291 1434q29 -77 79 -111.5t132 -34.5q81 0 132 35t79 111l63 -21q-35 -128 -104 -193t-170 -65q-100 0 -169.5 65.5t-104.5 192.5z" />
    <glyph glyph-name="edotaccent" unicode="&#x117;" horiz-adv-x="999" 
d="M930 559h-488q-57 0 -105 -2t-89 -6v-37q0 -196 90.5 -303t255.5 -107q73 0 144 24.5t151 76.5l39 -64q-103 -84 -205.5 -127t-202.5 -43q-194 0 -320 138.5t-126 355.5q0 231 132 388t322 157q177 0 282 -118t120 -333zM745 664q-30 123 -91 188.5t-146 65.5
q-96 0 -164.5 -77t-89.5 -208q198 0 311.5 7t179.5 24zM502 1417q41 0 86 -42t45 -81q0 -38 -44.5 -79t-86.5 -41q-41 0 -86 41.5t-45 78.5q0 38 45 80.5t86 42.5z" />
    <glyph glyph-name="eogonek" unicode="&#x119;" horiz-adv-x="999" 
d="M930 559h-488q-57 0 -105 -2t-89 -6v-37q0 -196 90.5 -303t255.5 -107q73 0 144 24.5t151 76.5l39 -64q-159 -107 -239.5 -204t-80.5 -181q0 -43 23 -69.5t59 -26.5q29 0 55.5 18.5t51.5 55.5l55 -39q-43 -71 -94.5 -106t-112.5 -35q-73 0 -119.5 46t-46.5 117
q0 68 53.5 141t153.5 142q-43 -14 -83.5 -21.5t-78.5 -7.5q-198 0 -324 137.5t-126 356.5q0 231 132 388t322 157q177 0 282 -118t120 -333zM745 664q-30 123 -91 188.5t-146 65.5q-96 0 -164.5 -77t-89.5 -208q198 0 311.5 7t179.5 24z" />
    <glyph glyph-name="ecaron" unicode="&#x11b;" horiz-adv-x="999" 
d="M930 559h-488q-57 0 -105 -2t-89 -6v-37q0 -196 90.5 -303t255.5 -107q73 0 144 24.5t151 76.5l39 -64q-103 -84 -205.5 -127t-202.5 -43q-194 0 -320 138.5t-126 355.5q0 231 132 388t322 157q177 0 282 -118t120 -333zM745 664q-30 123 -91 188.5t-146 65.5
q-96 0 -164.5 -77t-89.5 -208q198 0 311.5 7t179.5 24zM258 1470l244 -202l246 202l59 -30l-274 -320h-62l-274 322z" />
    <glyph glyph-name="gcircumflex" unicode="&#x11d;" horiz-adv-x="1057" 
d="M506 934q-107 0 -166 -66t-59 -186q0 -132 57.5 -205.5t161.5 -73.5q105 0 165 66.5t60 183.5q0 135 -57 208t-162 73zM324 14q-49 -55 -72 -100t-23 -86q0 -93 83.5 -157t209.5 -64q143 0 247.5 79.5t104.5 178.5q0 81 -51 114t-196 33q-15 0 -66 1t-86 1h-151zM743 940
q67 0 135.5 2t137.5 6l-5 -100q-44 5 -96.5 7.5t-121.5 2.5q47 -36 71.5 -87.5t24.5 -113.5q0 -135 -112.5 -232t-276.5 -97q-17 0 -48 2.5l-44 3.5q-27 -18 -51 -37.5t-44 -40.5q15 -28 34.5 -51.5t45.5 -44.5q31 0 89 1q140 3 184 3q181 0 260.5 -55t79.5 -177
q0 -78 -43.5 -157.5t-122.5 -145.5q-81 -67 -186.5 -105t-209.5 -38q-155 0 -259.5 82t-104.5 199q0 68 43.5 133.5t152.5 154.5q-45 41 -74.5 84t-47.5 94q36 34 79 64.5t95 60.5q-101 32 -158 107t-57 174q0 155 114.5 262t286.5 107q63 0 118 -16.5t111 -51.5zM499 1473
h62l272 -322l-61 -31l-244 203l-244 -203l-59 31z" />
    <glyph glyph-name="gbreve" unicode="&#x11f;" horiz-adv-x="1057" 
d="M506 934q-107 0 -166 -66t-59 -186q0 -132 57.5 -205.5t161.5 -73.5q105 0 165 66.5t60 183.5q0 135 -57 208t-162 73zM324 14q-49 -55 -72 -100t-23 -86q0 -93 83.5 -157t209.5 -64q143 0 247.5 79.5t104.5 178.5q0 81 -51 114t-196 33q-15 0 -66 1t-86 1h-151zM743 940
q67 0 135.5 2t137.5 6l-5 -100q-44 5 -96.5 7.5t-121.5 2.5q47 -36 71.5 -87.5t24.5 -113.5q0 -135 -112.5 -232t-276.5 -97q-17 0 -48 2.5l-44 3.5q-27 -18 -51 -37.5t-44 -40.5q15 -28 34.5 -51.5t45.5 -44.5q31 0 89 1q140 3 184 3q181 0 260.5 -55t79.5 -177
q0 -78 -43.5 -157.5t-122.5 -145.5q-81 -67 -186.5 -105t-209.5 -38q-155 0 -259.5 82t-104.5 199q0 68 43.5 133.5t152.5 154.5q-45 41 -74.5 84t-47.5 94q36 34 79 64.5t95 60.5q-101 32 -158 107t-57 174q0 155 114.5 262t286.5 107q63 0 118 -16.5t111 -51.5zM317 1434
q29 -77 79 -111.5t132 -34.5q81 0 132 35t79 111l63 -21q-35 -128 -104 -193t-170 -65q-100 0 -169.5 65.5t-104.5 192.5z" />
    <glyph glyph-name="gdotaccent" unicode="&#x121;" horiz-adv-x="1057" 
d="M506 934q-107 0 -166 -66t-59 -186q0 -132 57.5 -205.5t161.5 -73.5q105 0 165 66.5t60 183.5q0 135 -57 208t-162 73zM324 14q-49 -55 -72 -100t-23 -86q0 -93 83.5 -157t209.5 -64q143 0 247.5 79.5t104.5 178.5q0 81 -51 114t-196 33q-15 0 -66 1t-86 1h-151zM743 940
q67 0 135.5 2t137.5 6l-5 -100q-44 5 -96.5 7.5t-121.5 2.5q47 -36 71.5 -87.5t24.5 -113.5q0 -135 -112.5 -232t-276.5 -97q-17 0 -48 2.5l-44 3.5q-27 -18 -51 -37.5t-44 -40.5q15 -28 34.5 -51.5t45.5 -44.5q31 0 89 1q140 3 184 3q181 0 260.5 -55t79.5 -177
q0 -78 -43.5 -157.5t-122.5 -145.5q-81 -67 -186.5 -105t-209.5 -38q-155 0 -259.5 82t-104.5 199q0 68 43.5 133.5t152.5 154.5q-45 41 -74.5 84t-47.5 94q36 34 79 64.5t95 60.5q-101 32 -158 107t-57 174q0 155 114.5 262t286.5 107q63 0 118 -16.5t111 -51.5zM528 1417
q41 0 86 -42t45 -81q0 -38 -44.5 -79t-86.5 -41q-41 0 -86 41.5t-45 78.5q0 38 45 80.5t86 42.5z" />
    <glyph glyph-name="gcommaaccent" unicode="&#x123;" horiz-adv-x="1057" 
d="M506 934q-107 0 -166 -66t-59 -186q0 -132 57.5 -205.5t161.5 -73.5q105 0 165 66.5t60 183.5q0 135 -57 208t-162 73zM324 14q-49 -55 -72 -100t-23 -86q0 -93 83.5 -157t209.5 -64q143 0 247.5 79.5t104.5 178.5q0 81 -51 114t-196 33q-15 0 -66 1t-86 1h-151zM743 940
q67 0 135.5 2t137.5 6l-5 -100q-44 5 -96.5 7.5t-121.5 2.5q47 -36 71.5 -87.5t24.5 -113.5q0 -135 -112.5 -232t-276.5 -97q-17 0 -48 2.5l-44 3.5q-27 -18 -51 -37.5t-44 -40.5q15 -28 34.5 -51.5t45.5 -44.5q31 0 89 1q140 3 184 3q181 0 260.5 -55t79.5 -177
q0 -78 -43.5 -157.5t-122.5 -145.5q-81 -67 -186.5 -105t-209.5 -38q-155 0 -259.5 82t-104.5 199q0 68 43.5 133.5t152.5 154.5q-45 41 -74.5 84t-47.5 94q36 34 79 64.5t95 60.5q-101 32 -158 107t-57 174q0 155 114.5 262t286.5 107q63 0 118 -16.5t111 -51.5zM618 1599
l45 -57q-55 -43 -89.5 -94t-49.5 -113q48 -30 66 -50t18 -42q0 -18 -13 -36t-49 -46l-51 -41q-70 54 -92 86.5t-22 69.5q0 61 64.5 150.5t172.5 172.5z" />
    <glyph glyph-name="hcircumflex" unicode="&#x125;" horiz-adv-x="1200" 
d="M372 1546q-4 -168 -7 -343t-4 -359q112 85 200 125.5t160 40.5q147 0 221 -83t74 -249q0 -1 -1 -88t-1 -174q0 -37 -1 -92.5t-1 -75.5q0 -112 20 -146t76 -34q3 0 11.5 1t13.5 1v-70q-91 6 -137 8t-76 2q-48 0 -103.5 -2.5t-115.5 -7.5l-1 70h15q128 0 131 234v20l2 215
v41q0 182 -43 241.5t-148 59.5q-57 0 -126.5 -28t-163.5 -89l-5 -356q0 -30 -1 -77t-1 -65q0 -124 20 -161t77 -37q4 0 12.5 1t13.5 1v-70q-63 5 -118.5 7.5t-96.5 2.5q-39 0 -90 -2t-133 -7v69q6 0 17 -1t16 -1q69 0 93 36.5t24 212.5v74l4 752v172q0 43 -18.5 64.5
t-55.5 21.5q-14 0 -46 -6q-8 -2 -11 -2l-15 65q82 16 161 37.5t158 50.5zM266 1997h62l272 -322l-61 -31l-244 203l-244 -203l-59 31z" />
    <glyph glyph-name="itilde" unicode="&#x129;" horiz-adv-x="608" 
d="M395 1022q-1 -38 -3 -108q-13 -402 -13 -566v-106q0 -114 21.5 -143t86.5 -29h21h10v-70q-85 6 -137 8t-88 2q-32 0 -81.5 -2t-148.5 -8v70h25q124 0 125 244v55l4 247q0 27 1 68t1 55q0 81 -15.5 107t-56.5 26q-8 0 -23.5 -1.5t-33.5 -3.5l-10 63q79 15 157.5 38
t157.5 54zM637 1448l53 -43q-53 -69 -107 -119t-117 -86q-71 5 -173 21t-133 16q-60 0 -107 -23.5t-86 -72.5l-49 47q52 68 110 118.5t125 86.5q72 -6 174.5 -22.5t135.5 -16.5q51 0 94 23.5t80 70.5z" />
    <glyph glyph-name="imacron" unicode="&#x12b;" horiz-adv-x="608" 
d="M395 1022q-1 -38 -3 -108q-13 -402 -13 -566v-106q0 -114 21.5 -143t86.5 -29h21h10v-70q-85 6 -137 8t-88 2q-32 0 -81.5 -2t-148.5 -8v70h25q124 0 125 244v55l4 247q0 27 1 68t1 55q0 81 -15.5 107t-56.5 26q-8 0 -23.5 -1.5t-33.5 -3.5l-10 63q79 15 157.5 38
t157.5 54zM47 1358h518v-127h-518v127z" />
    <glyph glyph-name="ibreve" unicode="&#x12d;" horiz-adv-x="608" 
d="M395 1022q-1 -38 -3 -108q-13 -402 -13 -566v-106q0 -114 21.5 -143t86.5 -29h21h10v-70q-85 6 -137 8t-88 2q-32 0 -81.5 -2t-148.5 -8v70h25q124 0 125 244v55l4 247q0 27 1 68t1 55q0 81 -15.5 107t-56.5 26q-8 0 -23.5 -1.5t-33.5 -3.5l-10 63q79 15 157.5 38
t157.5 54zM96 1434q29 -77 79 -111.5t132 -34.5q81 0 132 35t79 111l63 -21q-35 -128 -104 -193t-170 -65q-100 0 -169.5 65.5t-104.5 192.5z" />
    <glyph glyph-name="iogonek" unicode="&#x12f;" horiz-adv-x="608" 
d="M395 1022q-1 -38 -3 -108q-13 -402 -13 -566v-106q0 -116 22 -146t86 -30q6 0 16 1t15 1v-68q-85 6 -137 8t-88 2q-32 0 -81.5 -2t-148.5 -8v70h25q124 0 125 244v55l4 247q0 27 1 68t1 55q0 81 -15.5 107t-56.5 26q-8 0 -23.5 -1.5t-33.5 -3.5l-10 63q79 15 157.5 38
t157.5 54zM287 1493l71 -53q28 -21 41 -42t13 -44t-10.5 -39.5t-39.5 -38.5l-75 -57l-70 55q-29 23 -42 42.5t-13 41.5t10 38.5t41 39.5zM383 43h37q-83 -78 -128.5 -154.5t-45.5 -134.5q0 -43 22.5 -68.5t58.5 -25.5q29 0 55.5 18.5t51.5 55.5l55 -39q-43 -71 -94.5 -106
t-112.5 -35q-72 0 -118.5 46t-46.5 117q0 77 66.5 158t199.5 168z" />
    <glyph glyph-name="jcircumflex" unicode="&#x135;" horiz-adv-x="561" 
d="M375 1022q-6 -154 -9.5 -312t-3.5 -339v-140q0 -251 -8 -349t-28 -150q-47 -123 -151 -195t-234 -72h-25l4 80q151 13 215 116t64 343v723q0 95 -15 120t-55 25q-9 0 -21.5 -1.5l-29.5 -3.5l-12 63q86 16 162.5 39t146.5 53zM254 1473h62l272 -322l-61 -31l-244 203
l-244 -203l-59 31z" />
    <glyph glyph-name="kcommaaccent" unicode="&#x137;" horiz-adv-x="1118" 
d="M781 0l-1 20q0 40 -60 106l-24 26l-338 380l147 135q202 184 202 220q0 12 -19 19t-53 7h-14v68q63 -3 110.5 -4.5t81.5 -1.5q45 0 97 1.5t109 4.5l1 -67q-4 0 -9.5 0.5t-15.5 0.5q-107 0 -367 -239l-104 -94l355 -382l29 -33q85 -99 163 -99q11 0 17.5 0.5t11.5 0.5
l-3 -69q-58 5 -100.5 7.5t-76.5 2.5q-16 0 -40.5 -1.5t-98.5 -8.5zM51 70h15q52 0 78 14.5t38 50.5q15 51 18 472q1 39 1 59l2 194q1 65 3.5 177.5t2.5 156.5q0 123 -17.5 165t-64.5 42q-14 0 -46 -6q-8 -2 -11 -2l-15 65q82 16 161 37.5t158 50.5q-7 -349 -11.5 -623
t-4.5 -372v-361q0 -81 24.5 -100t106.5 -20v-70q-69 6 -124 9t-97 3q-64 0 -114.5 -3t-102.5 -9v70zM563 -98q65 -51 85 -80t20 -62q0 -52 -47.5 -113t-141.5 -130l-35 41q43 30 69 67t34 78q-45 25 -64.5 45.5t-19.5 42.5q0 24 48 66q6 5 9 8z" />
    <glyph glyph-name="lacute" unicode="&#x13a;" horiz-adv-x="598" 
d="M377 1546q-6 -186 -7 -484q-1 -115 -1 -165l-2 -205v-155v-209v-82q0 -115 25.5 -145.5t96.5 -30.5h23v-70q-69 5 -129.5 7.5t-106.5 2.5q-47 0 -103 -2.5t-117 -7.5l-1 70q7 0 17.5 -1t15.5 -1q70 0 93.5 36.5t23.5 212.5v74l4 752v172q0 43 -18.5 64.5t-55.5 21.5
q-14 0 -52 -7q-5 -1 -7 -1l-15 65q84 14 162.5 36t153.5 52zM412 2074l149 -96l-334 -334l-75 27z" />
    <glyph glyph-name="lcaron" unicode="&#x13e;" horiz-adv-x="905" 
d="M377 1546q-6 -186 -7 -484q-1 -115 -1 -165l-2 -205v-155v-209v-82q0 -115 25.5 -145.5t96.5 -30.5h23v-70q-69 5 -129.5 7.5t-106.5 2.5q-47 0 -103 -2.5t-117 -7.5l-1 70q7 0 17.5 -1t15.5 -1q70 0 93.5 36.5t23.5 212.5v74l4 752v172q0 43 -18.5 64.5t-55.5 21.5
q-14 0 -52 -7q-5 -1 -7 -1l-15 65q84 14 162.5 36t153.5 52zM780 1458q74 -59 98.5 -95.5t24.5 -80.5q0 -70 -69 -171t-185 -193l-51 63q61 49 100 107.5t54 125.5q-51 34 -72 58t-21 49q0 32 60 85q5 4 9 8z" />
    <glyph glyph-name="lcommaaccent" unicode="&#x13c;" horiz-adv-x="598" 
d="M377 1546q-6 -186 -7 -484q-1 -115 -1 -165l-2 -205v-155v-209v-82q0 -115 25.5 -145.5t96.5 -30.5h23v-70q-69 5 -129.5 7.5t-106.5 2.5q-47 0 -103 -2.5t-117 -7.5l-1 70q7 0 17.5 -1t15.5 -1q70 0 93.5 36.5t23.5 212.5v74l4 752v172q0 43 -18.5 64.5t-55.5 21.5
q-14 0 -52 -7q-5 -1 -7 -1l-15 65q84 14 162.5 36t153.5 52zM305 -98q65 -51 85 -80t20 -62q0 -52 -47.5 -113t-141.5 -130l-35 41q43 30 69 67t34 78q-45 25 -64.5 45.5t-19.5 42.5q0 24 48 66q6 5 9 8z" />
    <glyph glyph-name="ldot" unicode="&#x140;" horiz-adv-x="1167" 
d="M377 1546q-6 -186 -7 -484q-1 -115 -1 -165l-2 -205v-155v-209v-82q0 -115 25.5 -145.5t96.5 -30.5h23v-70q-69 5 -129.5 7.5t-106.5 2.5q-47 0 -103 -2.5t-117 -7.5l-1 70q7 0 17.5 -1t15.5 -1q70 0 93.5 36.5t23.5 212.5v74l4 752v172q0 43 -18.5 64.5t-55.5 21.5
q-14 0 -52 -7q-5 -1 -7 -1l-15 65q84 14 162.5 36t153.5 52zM883 887q68 0 116 -48t48 -116t-48.5 -116t-115.5 -48q-66 0 -115 49t-49 115q0 67 48 115.5t116 48.5z" />
    <glyph glyph-name="nacute" unicode="&#x144;" horiz-adv-x="1196" 
d="M377 1022l-12 -168q113 82 196.5 119t153.5 37q147 0 221 -83t74 -249q0 -1 -1 -88t-1 -174q0 -37 -1 -92.5t-1 -75.5q0 -112 20 -146t76 -34q3 0 11.5 1t12.5 1v-70q-90 6 -136 8t-77 2q-48 0 -104 -2.5t-114 -7.5l-1 70h15q128 0 130 234q1 13 1 20l2 215v36
q0 185 -43 245.5t-148 60.5q-58 0 -128.5 -27.5t-149.5 -81.5q-4 -104 -6 -196.5t-2 -167.5v-138q0 -132 19.5 -167t76.5 -35q4 0 12.5 1t13.5 1v-70q-86 6 -135.5 8t-81.5 2q-30 0 -79 -2t-137 -8l-1 70h19q125 0 126 243q0 36 1 56l2 245v99q0 98 -15 128.5t-55 30.5
q-8 0 -20.5 -2t-26.5 -6l-12 62q75 14 150.5 38t154.5 58zM715 1550l149 -96l-334 -334l-75 27z" />
    <glyph glyph-name="ncaron" unicode="&#x148;" horiz-adv-x="1196" 
d="M377 1022l-12 -168q113 82 196.5 119t153.5 37q147 0 221 -83t74 -249q0 -1 -1 -88t-1 -174q0 -37 -1 -92.5t-1 -75.5q0 -112 20 -146t76 -34q3 0 11.5 1t12.5 1v-70q-90 6 -136 8t-77 2q-48 0 -104 -2.5t-114 -7.5l-1 70h15q128 0 130 234q1 13 1 20l2 215v36
q0 185 -43 245.5t-148 60.5q-58 0 -128.5 -27.5t-149.5 -81.5q-4 -104 -6 -196.5t-2 -167.5v-138q0 -132 19.5 -167t76.5 -35q4 0 12.5 1t13.5 1v-70q-86 6 -135.5 8t-81.5 2q-30 0 -79 -2t-137 -8l-1 70h19q125 0 126 243q0 36 1 56l2 245v99q0 98 -15 128.5t-55 30.5
q-8 0 -20.5 -2t-26.5 -6l-12 62q75 14 150.5 38t154.5 58zM354 1470l244 -202l246 202l59 -30l-274 -320h-62l-274 322z" />
    <glyph glyph-name="ncommaaccent" unicode="&#x146;" horiz-adv-x="1196" 
d="M377 1022l-12 -168q113 82 196.5 119t153.5 37q147 0 221 -83t74 -249q0 -1 -1 -88t-1 -174q0 -37 -1 -92.5t-1 -75.5q0 -112 20 -146t76 -34q3 0 11.5 1t12.5 1v-70q-90 6 -136 8t-77 2q-48 0 -104 -2.5t-114 -7.5l-1 70h15q128 0 130 234q1 13 1 20l2 215v36
q0 185 -43 245.5t-148 60.5q-58 0 -128.5 -27.5t-149.5 -81.5q-4 -104 -6 -196.5t-2 -167.5v-138q0 -132 19.5 -167t76.5 -35q4 0 12.5 1t13.5 1v-70q-86 6 -135.5 8t-81.5 2q-30 0 -79 -2t-137 -8l-1 70h19q125 0 126 243q0 36 1 56l2 245v99q0 98 -15 128.5t-55 30.5
q-8 0 -20.5 -2t-26.5 -6l-12 62q75 14 150.5 38t154.5 58zM602 -98q65 -51 85 -80t20 -62q0 -52 -47.5 -113t-141.5 -130l-35 41q43 30 69 67t34 78q-45 25 -64.5 45.5t-19.5 42.5q0 24 48 66q6 5 9 8z" />
    <glyph glyph-name="napostrophe" unicode="&#x149;" horiz-adv-x="1503" 
d="M182 1458q74 -59 98.5 -95.5t24.5 -80.5q0 -70 -69 -171t-185 -193l-51 63q61 49 100 107.5t54 125.5q-51 34 -72 58t-21 49q0 32 60 85q5 4 9 8zM684 1022l-12 -168q113 82 196.5 119t153.5 37q147 0 221 -83t74 -249q0 -1 -1 -88t-1 -174q0 -37 -1 -92.5t-1 -75.5
q0 -112 20 -146t76 -34q3 0 11.5 1t12.5 1v-70q-90 6 -136 8t-77 2q-48 0 -104 -2.5t-114 -7.5l-1 70h15q128 0 130 234q1 13 1 20l2 215v36q0 185 -43 245.5t-148 60.5q-58 0 -128.5 -27.5t-149.5 -81.5q-4 -104 -6 -196.5t-2 -167.5v-138q0 -132 19.5 -167t76.5 -35
q4 0 12.5 1t13.5 1v-70q-86 6 -135.5 8t-81.5 2q-30 0 -79 -2t-137 -8l-1 70h19q125 0 126 243q0 36 1 56l2 245v99q0 98 -15 128.5t-55 30.5q-8 0 -20.5 -2t-26.5 -6l-12 62q75 14 150.5 38t154.5 58z" />
    <glyph glyph-name="omacron" unicode="&#x14d;" horiz-adv-x="1128" 
d="M549 905q-134 0 -215.5 -97.5t-81.5 -262.5q0 -211 90.5 -342t235.5 -131q140 0 223.5 104t83.5 283q0 196 -94.5 321t-241.5 125zM575 1010q211 0 349.5 -141.5t138.5 -350.5q0 -230 -146 -387.5t-360 -157.5t-351.5 144t-137.5 364t149.5 374.5t357.5 154.5zM305 1358
h518v-127h-518v127z" />
    <glyph glyph-name="obreve" unicode="&#x14f;" horiz-adv-x="1128" 
d="M549 905q-134 0 -215.5 -97.5t-81.5 -262.5q0 -211 90.5 -342t235.5 -131q140 0 223.5 104t83.5 283q0 196 -94.5 321t-241.5 125zM575 1010q211 0 349.5 -141.5t138.5 -350.5q0 -230 -146 -387.5t-360 -157.5t-351.5 144t-137.5 364t149.5 374.5t357.5 154.5zM354 1434
q29 -77 79 -111.5t132 -34.5q81 0 132 35t79 111l63 -21q-35 -128 -104 -193t-170 -65q-100 0 -169.5 65.5t-104.5 192.5z" />
    <glyph glyph-name="ohungarumlaut" unicode="&#x151;" horiz-adv-x="1128" 
d="M549 905q-134 0 -215.5 -97.5t-81.5 -262.5q0 -211 90.5 -342t235.5 -131q140 0 223.5 104t83.5 283q0 196 -94.5 321t-241.5 125zM575 1010q211 0 349.5 -141.5t138.5 -350.5q0 -230 -146 -387.5t-360 -157.5t-351.5 144t-137.5 364t149.5 374.5t357.5 154.5zM813 1550
l133 -86l-279 -344l-75 27zM528 1550l139 -67l-227 -363l-76 27z" />
    <glyph glyph-name="oslashacute" unicode="&#x1ff;" horiz-adv-x="1128" 
d="M786 801l-411 -639q34 -45 87.5 -69.5t117.5 -24.5q143 0 228 104.5t85 286.5q0 95 -28 184.5t-79 157.5zM731 852q-40 30 -85 44.5t-97 14.5q-141 0 -223 -101t-82 -280q0 -91 21.5 -170.5t62.5 -140.5zM909 1139l62 -37l-113 -180q98 -71 151.5 -176.5t53.5 -227.5
q0 -229 -146.5 -387t-359.5 -158q-79 0 -140.5 16.5t-113.5 51.5l-110 -174l-58 37l111 178q-85 71 -131.5 175.5t-46.5 223.5q0 223 151 376t371 153q54 0 104.5 -12t102.5 -37zM682 1550l149 -96l-334 -334l-75 27z" />
    <glyph glyph-name="racute" unicode="&#x155;" horiz-adv-x="799" 
d="M375 1022q-7 -68 -11 -137.5t-6 -147.5q81 143 149.5 206t141.5 63q57 0 90 -30.5t33 -82.5q0 -37 -21.5 -63.5t-50.5 -26.5q-18 0 -55.5 19.5t-64.5 19.5q-52 0 -104 -45.5t-109 -141.5v-110q0 -160 2.5 -259.5t7.5 -126.5q9 -51 38.5 -70t100.5 -19h29v-70
q-78 6 -139 9t-103 3q-58 0 -119.5 -3t-128.5 -9v70h23q73 0 99 35t26 163v105v325q0 108 -15 139t-55 31q-8 0 -17 -0.5t-30 -3.5l-12 62q71 16 146 40t155 56zM518 1550l149 -96l-334 -334l-75 27z" />
    <glyph glyph-name="rcaron" unicode="&#x159;" horiz-adv-x="799" 
d="M375 1022q-7 -68 -11 -137.5t-6 -147.5q81 143 149.5 206t141.5 63q57 0 90 -30.5t33 -82.5q0 -37 -21.5 -63.5t-50.5 -26.5q-18 0 -55.5 19.5t-64.5 19.5q-52 0 -104 -45.5t-109 -141.5v-110q0 -160 2.5 -259.5t7.5 -126.5q9 -51 38.5 -70t100.5 -19h29v-70
q-78 6 -139 9t-103 3q-58 0 -119.5 -3t-128.5 -9v70h23q73 0 99 35t26 163v105v325q0 108 -15 139t-55 31q-8 0 -17 -0.5t-30 -3.5l-12 62q71 16 146 40t155 56zM157 1470l244 -202l246 202l59 -30l-274 -320h-62l-274 322z" />
    <glyph glyph-name="rcommaaccent" unicode="&#x157;" horiz-adv-x="799" 
d="M375 1022q-7 -68 -11 -137.5t-6 -147.5q81 143 149.5 206t141.5 63q57 0 90 -30.5t33 -82.5q0 -37 -21.5 -63.5t-50.5 -26.5q-18 0 -55.5 19.5t-64.5 19.5q-52 0 -104 -45.5t-109 -141.5v-110q0 -160 2.5 -259.5t7.5 -126.5q9 -51 38.5 -70t100.5 -19h29v-70
q-78 6 -139 9t-103 3q-58 0 -119.5 -3t-128.5 -9v70h23q73 0 99 35t26 163v105v325q0 108 -15 139t-55 31q-8 0 -17 -0.5t-30 -3.5l-12 62q71 16 146 40t155 56zM307 -98q65 -51 85 -80t20 -62q0 -52 -47.5 -113t-141.5 -130l-35 41q43 30 69 67t34 78q-45 25 -64.5 45.5
t-19.5 42.5q0 24 48 66q6 5 9 8z" />
    <glyph glyph-name="sacute" unicode="&#x15b;" horiz-adv-x="907" 
d="M740 969q0 -61 6.5 -123t18.5 -125l-76 -12q-12 104 -66 155t-151 51q-84 0 -138 -45.5t-54 -115.5q0 -111 236 -176l63 -17q118 -33 172.5 -94t54.5 -160q0 -146 -114.5 -241t-293.5 -95q-65 0 -133 14t-139 42q1 10 1.5 21t0.5 34q0 46 -5.5 99.5t-16.5 113.5l75 18
q16 -124 78 -185.5t172 -61.5q100 0 163.5 48.5t63.5 125.5q0 108 -212 172q-21 7 -31 10q-152 46 -213.5 113t-61.5 178q0 128 102 212.5t261 84.5q49 0 106.5 -10t130.5 -31zM574 1550l149 -96l-334 -334l-75 27z" />
    <glyph glyph-name="scircumflex" unicode="&#x15d;" horiz-adv-x="907" 
d="M740 969q0 -61 6.5 -123t18.5 -125l-76 -12q-12 104 -66 155t-151 51q-84 0 -138 -45.5t-54 -115.5q0 -111 236 -176l63 -17q118 -33 172.5 -94t54.5 -160q0 -146 -114.5 -241t-293.5 -95q-65 0 -133 14t-139 42q1 10 1.5 21t0.5 34q0 46 -5.5 99.5t-16.5 113.5l75 18
q16 -124 78 -185.5t172 -61.5q100 0 163.5 48.5t63.5 125.5q0 108 -212 172q-21 7 -31 10q-152 46 -213.5 113t-61.5 178q0 128 102 212.5t261 84.5q49 0 106.5 -10t130.5 -31zM428 1473h62l272 -322l-61 -31l-244 203l-244 -203l-59 31z" />
    <glyph glyph-name="scedilla" unicode="&#x15f;" horiz-adv-x="907" 
d="M740 969q0 -61 6.5 -123t18.5 -125l-76 -12q-12 104 -66 155t-151 51q-84 0 -138 -45.5t-54 -115.5q0 -111 236 -176l63 -17q118 -33 172.5 -94t54.5 -160q0 -146 -114.5 -241t-293.5 -95q-65 0 -133 14t-139 42q1 10 1.5 21t0.5 34q0 46 -5.5 99.5t-16.5 113.5l75 18
q16 -124 78 -185.5t172 -61.5q100 0 163.5 48.5t63.5 125.5q0 108 -212 172q-21 7 -31 10q-152 46 -213.5 113t-61.5 178q0 128 102 212.5t261 84.5q49 0 106.5 -10t130.5 -31zM520 0h76l-98 -121q65 -16 100 -50t35 -81q0 -67 -66.5 -120.5t-185.5 -82.5l-30 60
q66 15 100.5 46t34.5 77q0 37 -30.5 61t-90.5 35z" />
    <glyph glyph-name="tcommaaccent" unicode="&#x21b;" horiz-adv-x="737" 
d="M315 1171l66 -20q-6 -55 -9.5 -98.5t-4.5 -85.5h71q57 0 116 1.5t119 4.5l-24 -109q-64 5 -120.5 6.5t-112.5 1.5h-47q-6 -172 -8.5 -263.5t-2.5 -151.5q0 -226 31 -294.5t111 -68.5q33 0 73.5 14t98.5 46l33 -66q-96 -58 -174 -87.5t-136 -29.5q-107 0 -156 73.5
t-49 236.5q0 32 4.5 228.5t4.5 360.5q-9 0 -26 -1q-83 -3 -114 -3v72q98 14 162 72.5t94 160.5zM375 -98q65 -51 85 -80t20 -62q0 -52 -47.5 -113t-141.5 -130l-35 41q43 30 69 67t34 78q-45 25 -64.5 45.5t-19.5 42.5q0 24 48 66q6 5 9 8z" />
    <glyph glyph-name="tcaron" unicode="&#x165;" horiz-adv-x="1044" 
d="M315 1171l66 -20q-6 -55 -9.5 -98.5t-4.5 -85.5h71q57 0 116 1.5t119 4.5l-24 -109q-64 5 -120.5 6.5t-112.5 1.5h-47q-6 -172 -8.5 -263.5t-2.5 -151.5q0 -226 31 -294.5t111 -68.5q33 0 73.5 14t98.5 46l33 -66q-96 -58 -174 -87.5t-136 -29.5q-107 0 -156 73.5
t-49 236.5q0 32 4.5 228.5t4.5 360.5q-9 0 -26 -1q-83 -3 -114 -3v72q98 14 162 72.5t94 160.5zM919 1458q74 -59 98.5 -95.5t24.5 -80.5q0 -70 -69 -171t-185 -193l-51 63q61 49 100 107.5t54 125.5q-51 34 -72 58t-21 49q0 32 60 85q5 4 9 8z" />
    <glyph glyph-name="utilde" unicode="&#x169;" horiz-adv-x="1204" 
d="M367 1011q-7 -196 -11 -343.5t-4 -204.5q0 -214 44 -285.5t151 -71.5q53 0 118 26t148 79q3 154 4.5 254t1.5 147v68q0 126 -21 158t-81 32q-10 0 -21.5 -0.5t-23.5 -1.5l-6 64q85 6 167.5 19t161.5 32q-6 -171 -9 -305t-3 -234q0 -41 -1 -102.5t-1 -81.5q0 -93 16 -122
t60 -29q10 0 23.5 2t35.5 8l8 -62l-305 -77l-4 149q-108 -82 -189.5 -120t-148.5 -38q-137 0 -214 79t-77 220q0 36 3 151q1 48 1 75l3 112q0 28 1 71.5t1 59.5q0 86 -14.5 114t-53.5 28q-12 0 -28 -2l-33 -4l-7 65q72 12 148.5 29.5t159.5 41.5zM932 1448l53 -43
q-53 -69 -107 -119t-117 -86q-71 5 -173 21t-133 16q-60 0 -107 -23.5t-86 -72.5l-49 47q52 68 110 118.5t125 86.5q72 -6 174.5 -22.5t135.5 -16.5q51 0 94 23.5t80 70.5z" />
    <glyph glyph-name="umacron" unicode="&#x16b;" horiz-adv-x="1204" 
d="M367 1011q-7 -196 -11 -343.5t-4 -204.5q0 -214 44 -285.5t151 -71.5q53 0 118 26t148 79q3 154 4.5 254t1.5 147v68q0 126 -21 158t-81 32q-10 0 -21.5 -0.5t-23.5 -1.5l-6 64q85 6 167.5 19t161.5 32q-6 -171 -9 -305t-3 -234q0 -41 -1 -102.5t-1 -81.5q0 -93 16 -122
t60 -29q10 0 23.5 2t35.5 8l8 -62l-305 -77l-4 149q-108 -82 -189.5 -120t-148.5 -38q-137 0 -214 79t-77 220q0 36 3 151q1 48 1 75l3 112q0 28 1 71.5t1 59.5q0 86 -14.5 114t-53.5 28q-12 0 -28 -2l-33 -4l-7 65q72 12 148.5 29.5t159.5 41.5zM342 1358h518v-127h-518
v127z" />
    <glyph glyph-name="ubreve" unicode="&#x16d;" horiz-adv-x="1204" 
d="M367 1011q-7 -196 -11 -343.5t-4 -204.5q0 -214 44 -285.5t151 -71.5q53 0 118 26t148 79q3 154 4.5 254t1.5 147v68q0 126 -21 158t-81 32q-10 0 -21.5 -0.5t-23.5 -1.5l-6 64q85 6 167.5 19t161.5 32q-6 -171 -9 -305t-3 -234q0 -41 -1 -102.5t-1 -81.5q0 -93 16 -122
t60 -29q10 0 23.5 2t35.5 8l8 -62l-305 -77l-4 149q-108 -82 -189.5 -120t-148.5 -38q-137 0 -214 79t-77 220q0 36 3 151q1 48 1 75l3 112q0 28 1 71.5t1 59.5q0 86 -14.5 114t-53.5 28q-12 0 -28 -2l-33 -4l-7 65q72 12 148.5 29.5t159.5 41.5zM391 1434q29 -77 79 -111.5
t132 -34.5q81 0 132 35t79 111l63 -21q-35 -128 -104 -193t-170 -65q-100 0 -169.5 65.5t-104.5 192.5z" />
    <glyph glyph-name="uring" unicode="&#x16f;" horiz-adv-x="1204" 
d="M367 1011q-7 -196 -11 -343.5t-4 -204.5q0 -214 44 -285.5t151 -71.5q53 0 118 26t148 79q3 154 4.5 254t1.5 147v68q0 126 -21 158t-81 32q-10 0 -21.5 -0.5t-23.5 -1.5l-6 64q85 6 167.5 19t161.5 32q-6 -171 -9 -305t-3 -234q0 -41 -1 -102.5t-1 -81.5q0 -93 16 -122
t60 -29q10 0 23.5 2t35.5 8l8 -62l-305 -77l-4 149q-108 -82 -189.5 -120t-148.5 -38q-137 0 -214 79t-77 220q0 36 3 151q1 48 1 75l3 112q0 28 1 71.5t1 59.5q0 86 -14.5 114t-53.5 28q-12 0 -28 -2l-33 -4l-7 65q72 12 148.5 29.5t159.5 41.5zM602 1483q-57 0 -97 -40.5
t-40 -99.5q0 -57 40 -98t97 -41t98 41.5t41 97.5q0 59 -40.5 99.5t-98.5 40.5zM602 1587q101 0 172.5 -71t71.5 -173q0 -101 -70.5 -171t-173.5 -70q-101 0 -171.5 70t-70.5 171q0 102 70.5 173t171.5 71z" />
    <glyph glyph-name="uhungarumlaut" unicode="&#x171;" horiz-adv-x="1204" 
d="M367 1011q-7 -196 -11 -343.5t-4 -204.5q0 -214 44 -285.5t151 -71.5q53 0 118 26t148 79q3 154 4.5 254t1.5 147v68q0 126 -21 158t-81 32q-10 0 -21.5 -0.5t-23.5 -1.5l-6 64q85 6 167.5 19t161.5 32q-6 -171 -9 -305t-3 -234q0 -41 -1 -102.5t-1 -81.5q0 -93 16 -122
t60 -29q10 0 23.5 2t35.5 8l8 -62l-305 -77l-4 149q-108 -82 -189.5 -120t-148.5 -38q-137 0 -214 79t-77 220q0 36 3 151q1 48 1 75l3 112q0 28 1 71.5t1 59.5q0 86 -14.5 114t-53.5 28q-12 0 -28 -2l-33 -4l-7 65q72 12 148.5 29.5t159.5 41.5zM850 1550l133 -86
l-279 -344l-75 27zM565 1550l139 -67l-227 -363l-76 27z" />
    <glyph glyph-name="uogonek" unicode="&#x173;" horiz-adv-x="1204" 
d="M367 1011q-7 -196 -11 -343.5t-4 -204.5q0 -214 44 -285.5t151 -71.5q53 0 118 26t148 79q3 154 4.5 254t1.5 147v68q0 126 -21 158t-81 32q-10 0 -21.5 -0.5t-23.5 -1.5l-6 64q82 6 164.5 18.5t164.5 30.5q-6 -170 -9 -303.5t-3 -233.5q0 -41 -1 -102.5t-1 -81.5
q0 -93 16 -122t60 -29q10 0 23.5 2t35.5 8l8 -62l-96 -24q-114 -30 -185 -108t-71 -169q0 -43 23.5 -69.5t60.5 -26.5q29 0 55.5 18.5t51.5 55.5l55 -39q-44 -71 -95 -106t-112 -35q-73 0 -119.5 46t-46.5 117q0 62 42 125t132 138l-4 149q-108 -82 -189.5 -120t-148.5 -38
q-137 0 -214 79t-77 220q0 36 3 151q1 48 1 75l3 112q0 28 1 71.5t1 59.5q0 86 -14.5 114t-53.5 28q-12 0 -28 -2l-33 -4l-7 65q72 12 148.5 29.5t159.5 41.5z" />
    <glyph glyph-name="wdieresis" unicode="&#x1e85;" horiz-adv-x="1587" 
d="M12 981q54 -4 101 -6t84 -2q50 0 103 2t108 6v-68h-15q-55 0 -76.5 -16t-21.5 -55q0 -13 5 -34t13 -46l193 -553l264 559l-18 55q-20 57 -43 73.5t-72 16.5h-29v68q58 -4 108 -6t89 -2q53 0 107 2t112 6v-68q-5 0 -15 -1t-14 -1q-41 0 -60.5 -13.5t-19.5 -43.5
q0 -18 5.5 -41.5t15.5 -52.5l186 -545l32 81q196 504 196 552q0 38 -21.5 51.5t-81.5 13.5h-18v68q46 -4 90.5 -6t87.5 -2q36 0 78.5 2t91.5 6v-68q-32 0 -53 -8.5t-33 -25.5q-22 -33 -91.5 -198l-289.5 -710h-72l-235 670q-117 -227 -190.5 -386t-118.5 -284h-68
l-191 540.5t-135 360.5q-13 22 -31 31.5t-42 9.5h-15v68zM1008 1411q39 0 83 -40t44 -77q0 -36 -44 -76t-83 -40q-40 0 -82.5 39.5t-42.5 76.5q0 36 43 76.5t82 40.5zM582 1411q39 0 82 -40t43 -77q0 -36 -43 -76t-82 -40q-40 0 -82.5 39.5t-42.5 76.5q0 36 43 76.5t82 40.5
z" />
    <glyph glyph-name="wgrave" unicode="&#x1e81;" horiz-adv-x="1587" 
d="M12 981q54 -4 101 -6t84 -2q50 0 103 2t108 6v-68h-15q-55 0 -76.5 -16t-21.5 -55q0 -13 5 -34t13 -46l193 -553l264 559l-18 55q-20 57 -43 73.5t-72 16.5h-29v68q58 -4 108 -6t89 -2q53 0 107 2t112 6v-68q-5 0 -15 -1t-14 -1q-41 0 -60.5 -13.5t-19.5 -43.5
q0 -18 5.5 -41.5t15.5 -52.5l186 -545l32 81q196 504 196 552q0 38 -21.5 51.5t-81.5 13.5h-18v68q46 -4 90.5 -6t87.5 -2q36 0 78.5 2t91.5 6v-68q-32 0 -53 -8.5t-33 -25.5q-22 -33 -91.5 -198l-289.5 -710h-72l-235 670q-117 -227 -190.5 -386t-118.5 -284h-68
l-191 540.5t-135 360.5q-13 22 -31 31.5t-42 9.5h-15v68zM682 1550l265 -405l-76 -25l-336 340z" />
    <glyph glyph-name="wacute" unicode="&#x1e83;" horiz-adv-x="1587" 
d="M12 981q54 -4 101 -6t84 -2q50 0 103 2t108 6v-68h-15q-55 0 -76.5 -16t-21.5 -55q0 -13 5 -34t13 -46l193 -553l264 559l-18 55q-20 57 -43 73.5t-72 16.5h-29v68q58 -4 108 -6t89 -2q53 0 107 2t112 6v-68q-5 0 -15 -1t-14 -1q-41 0 -60.5 -13.5t-19.5 -43.5
q0 -18 5.5 -41.5t15.5 -52.5l186 -545l32 81q196 504 196 552q0 38 -21.5 51.5t-81.5 13.5h-18v68q46 -4 90.5 -6t87.5 -2q36 0 78.5 2t91.5 6v-68q-32 0 -53 -8.5t-33 -25.5q-22 -33 -91.5 -198l-289.5 -710h-72l-235 670q-117 -227 -190.5 -386t-118.5 -284h-68
l-191 540.5t-135 360.5q-13 22 -31 31.5t-42 9.5h-15v68zM912 1550l149 -96l-334 -334l-75 27z" />
    <glyph glyph-name="wcircumflex" unicode="&#x175;" horiz-adv-x="1587" 
d="M12 981q54 -4 101 -6t84 -2q50 0 103 2t108 6v-68h-15q-55 0 -76.5 -16t-21.5 -55q0 -13 5 -34t13 -46l193 -553l264 559l-18 55q-20 57 -43 73.5t-72 16.5h-29v68q58 -4 108 -6t89 -2q53 0 107 2t112 6v-68q-5 0 -15 -1t-14 -1q-41 0 -60.5 -13.5t-19.5 -43.5
q0 -18 5.5 -41.5t15.5 -52.5l186 -545l32 81q196 504 196 552q0 38 -21.5 51.5t-81.5 13.5h-18v68q46 -4 90.5 -6t87.5 -2q36 0 78.5 2t91.5 6v-68q-32 0 -53 -8.5t-33 -25.5q-22 -33 -91.5 -198l-289.5 -710h-72l-235 670q-117 -227 -190.5 -386t-118.5 -284h-68
l-191 540.5t-135 360.5q-13 22 -31 31.5t-42 9.5h-15v68zM766 1473h62l272 -322l-61 -31l-244 203l-244 -203l-59 31z" />
    <glyph glyph-name="ygrave" unicode="&#x1ef3;" horiz-adv-x="995" 
d="M0 980q75 -5 120 -7t77 -2q30 0 76.5 2t129.5 8v-70h-26q-50 0 -70 -13.5t-20 -47.5q0 -26 88 -264l139 -381q139 330 195.5 476t56.5 175t-22 42t-72 13h-15v70q45 -4 88.5 -6t83.5 -2q33 0 76 2t92 6v-70h-8q-33 0 -55.5 -14.5t-38.5 -46.5q-2 -5 -17 -39l-227 -514
l-153 -355q-200 -474 -308 -474q-40 0 -67 26t-27 66q0 55 77 69q31 5 44 11q56 22 161 254l46 102l-170 457q-167 460 -238 460q-6 0 -9.5 -0.5t-6.5 -0.5v68zM387 1550l265 -405l-76 -25l-336 340z" />
    <glyph glyph-name="ycircumflex" unicode="&#x177;" horiz-adv-x="995" 
d="M0 980q75 -5 120 -7t77 -2q30 0 76.5 2t129.5 8v-70h-26q-50 0 -70 -13.5t-20 -47.5q0 -26 88 -264l139 -381q139 330 195.5 476t56.5 175t-22 42t-72 13h-15v70q45 -4 88.5 -6t83.5 -2q33 0 76 2t92 6v-70h-8q-33 0 -55.5 -14.5t-38.5 -46.5q-2 -5 -17 -39l-227 -514
l-153 -355q-200 -474 -308 -474q-40 0 -67 26t-27 66q0 55 77 69q31 5 44 11q56 22 161 254l46 102l-170 457q-167 460 -238 460q-6 0 -9.5 -0.5t-6.5 -0.5v68zM471 1473h62l272 -322l-61 -31l-244 203l-244 -203l-59 31z" />
    <glyph glyph-name="zacute" unicode="&#x17a;" horiz-adv-x="967" 
d="M135 981q83 -6 155 -9t128 -3q200 0 284 2.5t146 9.5l35 -55q-46 -37 -99 -98.5t-137 -176.5l-354 -485q56 -4 109.5 -6t103.5 -2h72q148 0 195 28.5t65 106.5l63 -19q-17 -64 -30 -132.5t-21 -141.5q-15 1 -43 2q-266 14 -379 14q-81 0 -166 -4t-178 -12l-33 63
q86 64 231 262l7 9l362 491q-29 1 -82 2q-122 2 -161 2h-41q-126 0 -161 -24.5t-50 -93.5l-66 18q16 59 27.5 121.5t17.5 130.5zM602 1550l149 -96l-334 -334l-75 27z" />
    <glyph glyph-name="zdotaccent" unicode="&#x17c;" horiz-adv-x="967" 
d="M135 981q83 -6 155 -9t128 -3q200 0 284 2.5t146 9.5l35 -55q-46 -37 -99 -98.5t-137 -176.5l-354 -485q56 -4 109.5 -6t103.5 -2h72q148 0 195 28.5t65 106.5l63 -19q-17 -64 -30 -132.5t-21 -141.5q-15 1 -43 2q-266 14 -379 14q-81 0 -166 -4t-178 -12l-33 63
q86 64 231 262l7 9l362 491q-29 1 -82 2q-122 2 -161 2h-41q-126 0 -161 -24.5t-50 -93.5l-66 18q16 59 27.5 121.5t17.5 130.5zM485 1417q41 0 86 -42t45 -81q0 -38 -44.5 -79t-86.5 -41q-41 0 -86 41.5t-45 78.5q0 38 45 80.5t86 42.5z" />
    <glyph glyph-name="ij" unicode="&#x133;" horiz-adv-x="1149" 
d="M965 1022q-13 -283 -13.5 -737.5t-38.5 -552.5q-47 -123 -150.5 -195t-234.5 -72h-24l4 80q148 16 211 117.5t65 341.5l2 686v37q0 95 -14.5 120t-54.5 25q-10 0 -21.5 -1t-29.5 -5l-13 64q89 17 166 39.5t146 52.5zM395 1022q-1 -38 -3 -108q-13 -402 -13 -566v-106
q0 -114 21.5 -143t86.5 -29h21h10v-70q-85 6 -137 8t-88 2q-32 0 -81.5 -2t-148.5 -8v70h25q124 0 125 244v55l4 247q0 27 1 68t1 55q0 81 -15.5 107t-56.5 26q-8 0 -23.5 -1.5t-33.5 -3.5l-10 63q79 15 157.5 38t157.5 54zM854 1493l72 -53q27 -21 40 -42t13 -44t-10 -39.5
t-39 -38.5l-76 -57l-70 55q-28 22 -40.5 41.5t-12.5 42.5t10 39.5t39 38.5zM287 1493l71 -53q28 -21 41 -42t13 -44t-10.5 -39.5t-39.5 -38.5l-75 -57l-70 55q-29 23 -42 42.5t-13 41.5t10 38.5t41 39.5z" />
    <glyph glyph-name="Euro" horiz-adv-x="1139" 
d="M1110 334q-25 -65 -44.5 -132t-33.5 -132q-85 -52 -158 -75.5t-151 -23.5q-215 0 -362 159.5t-181 430.5h-12q-22 0 -82 -2q-35 -1 -57 -2l24 73q37 0 60 -0.5t45 -0.5h16q-1 14 -1.5 30.5t-0.5 49.5q0 31 1.5 62t4.5 60h-10q-22 0 -82 -2q-36 -1 -57 -2l25 74
q34 -1 57 -1.5t47 -0.5h30q45 251 196.5 399t365.5 148q68 0 140.5 -17t172.5 -57v-35q0 -60 3.5 -131.5t10.5 -158.5l-53 -11q-16 148 -93.5 224.5t-211.5 76.5q-147 0 -239 -113t-118 -325h285q81 0 150 0.5t116 1.5l-24 -74q-107 2 -211 3t-182 1h-140q-1 -14 -1.5 -31
t-0.5 -52q0 -51 1 -75.5t3 -43.5h289q49 0 94 0.5t93 1.5l-25 -74q-23 0 -65 1q-150 3 -248 3h-129q32 -221 136 -351t245 -130q108 0 184 69.5t127 217.5z" />
    <glyph glyph-name="Euro" unicode="&#x20ac;" horiz-adv-x="1139" 
d="M1110 334q-25 -65 -44.5 -132t-33.5 -132q-85 -52 -158 -75.5t-151 -23.5q-215 0 -362 159.5t-181 430.5h-12q-22 0 -82 -2q-35 -1 -57 -2l24 73q37 0 60 -0.5t45 -0.5h16q-1 14 -1.5 30.5t-0.5 49.5q0 31 1.5 62t4.5 60h-10q-22 0 -82 -2q-36 -1 -57 -2l25 74
q34 -1 57 -1.5t47 -0.5h30q45 251 196.5 399t365.5 148q68 0 140.5 -17t172.5 -57v-35q0 -60 3.5 -131.5t10.5 -158.5l-53 -11q-16 148 -93.5 224.5t-211.5 76.5q-147 0 -239 -113t-118 -325h285q81 0 150 0.5t116 1.5l-24 -74q-107 2 -211 3t-182 1h-140q-1 -14 -1.5 -31
t-0.5 -52q0 -51 1 -75.5t3 -43.5h289q49 0 94 0.5t93 1.5l-25 -74q-23 0 -65 1q-150 3 -248 3h-129q32 -221 136 -351t245 -130q108 0 184 69.5t127 217.5z" />
    <glyph glyph-name="estimated" unicode="&#x212e;" horiz-adv-x="2048" 
d="M520 772h1008q10 1 16 7t6 16v370q0 108 -156.5 202.5t-369.5 94.5t-369.5 -94.5t-156.5 -202.5v-370q0 -10 6.5 -16.5t15.5 -6.5zM498 705v-373q0 -107 156 -199t370 -92q177 0 312.5 62t213.5 176h127q-114 -152 -276 -225.5t-377 -73.5q-350 0 -593 223.5t-243 544.5
q0 320 243 544t593 224t593 -224t243 -544v-21h-1340q-9 0 -15.5 -6.5t-6.5 -15.5z" />
    <glyph glyph-name="franc" unicode="&#x20a3;" horiz-adv-x="1997" 
d="M76 65q8 -1 15.5 -1.5t23.5 -0.5q80 0 108.5 52.5t28.5 234.5q0 30 -1 107t-1 127v272q0 55 1 172.5t1 179.5q0 85 -32.5 118.5t-113.5 33.5h-16v67q207 -5 335.5 -7.5t217.5 -2.5q97 0 209.5 2.5t251.5 7.5q0 -69 4.5 -145.5t13.5 -173.5l-69 -8q-7 127 -71 171t-286 44
q-78 0 -243 -4h-6q-2 -148 -6 -329.5t-5 -201.5h33q56 0 139 -1t113 -1q147 0 194.5 27t51.5 100l63 -4q-8 -75 -11 -123.5t-3 -89.5q0 -30 1.5 -71t4.5 -92l-66 -5v17q0 82 -49 111.5t-227 29.5h-172h-72v-389q0 -144 32 -181.5t130 -37.5h39v-70q-76 4 -149.5 6t-143.5 2
q-35 0 -106.5 -2t-161.5 -6v65zM1573 1022q-7 -68 -11 -137.5t-6 -147.5q81 143 149.5 206t141.5 63q57 0 90 -30.5t33 -82.5q0 -37 -21.5 -63.5t-50.5 -26.5q-18 0 -55.5 19.5t-64.5 19.5q-52 0 -104 -45.5t-109 -141.5v-110q0 -160 2.5 -259.5t7.5 -126.5q9 -51 38.5 -70
t100.5 -19h29v-70q-78 6 -139 9t-103 3q-58 0 -119.5 -3t-128.5 -9v70h23q73 0 99 35t26 163v105v325q0 108 -15 139t-55 31q-8 0 -17 -0.5t-30 -3.5l-12 62q71 16 146 40t155 56z" />
    <glyph glyph-name="peseta" unicode="&#x20a7;" horiz-adv-x="1540" 
d="M332 707h106q153 0 230 76.5t77 228.5q0 150 -78 230.5t-223 80.5q-61 0 -86.5 -28t-25.5 -97v-491zM1141 1311h71v-359h246v-80h-244v-698q0 -59 19.5 -86t60.5 -27q65 0 95 56t30 176v80h62v-45q0 -194 -49.5 -273.5t-165.5 -79.5q-97 0 -147 55t-50 163v679h-84v62
q77 28 113 114t43 263zM59 1393h347q259 0 384 -90t125 -275q0 -190 -126.5 -291.5t-364.5 -101.5h-92v-420q0 -84 29.5 -113.5t109.5 -29.5h10v-72h-422v72h9q67 0 90.5 28t23.5 115v995q0 58 -26 84.5t-82 26.5h-15v72z" />
    <glyph glyph-name="litre" unicode="&#x2113;" horiz-adv-x="934" 
d="M397 711q175 124 285.5 276.5t110.5 251.5q0 57 -26 90t-71 33q-92 0 -173 -175t-126 -476zM217 530q-39 -26 -71 -50.5t-60 -49.5l-37 45q28 28 71 63t105 80q59 360 189.5 581.5t275.5 221.5q72 0 119 -49t47 -125q0 -131 -128.5 -304.5t-340.5 -315.5l-20 -192
q-6 -47 -8.5 -84t-2.5 -68q0 -125 27 -180.5t86 -55.5q56 0 100.5 54.5t77.5 164.5l55 -18q-37 -140 -96 -206.5t-145 -66.5q-121 0 -186.5 109.5t-65.5 312.5q0 26 2 59.5t6 73.5z" />
    <glyph glyph-name="overscore.001" unicode="&#xaf;" horiz-adv-x="1024" 
d="M0 1565h1024v-119h-1024v119z" />
    <glyph glyph-name="revlogicalnot" unicode="&#x2310;" horiz-adv-x="1706" 
d="M254 858h1198v-117h-1083v-385h-115v502z" />
    <glyph glyph-name="exclam.smallcap" horiz-adv-x="592" 
d="M201 1067h196q-1 -104 -35.5 -346t-46.5 -375h-77zM272 260l72 -55q28 -22 40.5 -41.5t12.5 -42.5t-10 -39.5t-39 -38.5l-76 -57l-69 53q-28 21 -40.5 42t-12.5 44t10 39.5t39 38.5z" />
    <glyph glyph-name="ampersand.smallcap" horiz-adv-x="1479" 
d="M612 637q63 35 99.5 87.5t36.5 106.5q0 74 -40 123.5t-98 49.5t-93.5 -38.5t-35.5 -101.5q0 -52 32.5 -108t98.5 -119zM799 193l-136 164l-159 175q-74 -28 -114 -80.5t-40 -119.5q0 -93 73.5 -161.5t174.5 -68.5q51 0 100.5 22.5t100.5 68.5zM850 135
q-87 -79 -165.5 -114t-166.5 -35q-137 0 -233.5 87.5t-96.5 211.5q0 100 67 174t206 129q-67 63 -96 116.5t-29 110.5q0 109 86.5 187.5t210.5 78.5q105 0 176.5 -64t71.5 -157q0 -78 -56.5 -146t-167.5 -126l134 -145.5l122 -137.5q81 96 132 188t51 128q0 27 -19.5 39
t-66.5 12h-25v69q58 -4 106.5 -6t79.5 -2q41 0 90.5 2t104.5 6v-65q-8 1 -16 1.5t-23 0.5q-77 0 -120 -84l-15 -29q-53 -99 -108 -176.5t-117 -142.5l45 -56q35 -42 80 -70t77 -28t70.5 19.5t91.5 62.5l35 -49q-79 -79 -146.5 -118.5t-123.5 -39.5q-58 0 -112 35.5
t-134 132.5z" />
    <glyph glyph-name="comma.smallcap" horiz-adv-x="569" 
d="M266 266q73 -53 104 -93t31 -81q0 -67 -61 -157t-168 -177l-53 56q49 44 78 94.5t38 108.5q-53 27 -77.5 53t-24.5 55q0 22 18 46t56 52z" />
    <glyph glyph-name="period.smallcap" horiz-adv-x="569" 
d="M266 274l80 -59q33 -25 48.5 -45t15.5 -39q0 -24 -13.5 -44t-46.5 -44l-78 -57l-73 57q-36 26 -50 46t-14 42q0 19 10.5 35.5t49.5 48.5z" />
    <glyph glyph-name="minute" unicode="&#x2032;" horiz-adv-x="289" 
d="M80 1446h182l-76 -471l-75 -23z" />
    <glyph glyph-name="second" unicode="&#x2033;" horiz-adv-x="588" 
d="M381 1446h182l-76 -471l-77 -23zM80 1446h182l-76 -471l-75 -23z" />
    <glyph glyph-name="zero.oldstyle" horiz-adv-x="1214" 
d="M592 891q-148 0 -244 -109.5t-96 -281.5q0 -181 103 -301.5t255 -120.5q156 0 255.5 109t99.5 282q0 184 -105 303t-268 119zM76 471q0 218 161 374t386 156q214 0 364 -148.5t150 -358.5q0 -219 -158 -373t-387 -154q-218 0 -367 147t-149 357z" />
    <glyph glyph-name="one.oldstyle" horiz-adv-x="739" 
d="M494 983q-15 -38 -24 -242.5t-9 -509.5q0 -94 28 -125.5t119 -31.5q17 0 33 0.5t33 1.5v-76q-133 6 -202 8t-114 2q-41 0 -107.5 -2t-191.5 -8l1 76q18 -1 36 -1.5t43 -0.5q153 0 157 296q0 59 1 93l2 65q0 15 1 43.5t1 42.5q0 55 -1.5 122t-4.5 148q-30 5 -62 7t-90 2
q-2 0 -13 -1q-37 -1 -71 -1v76h138q75 0 148.5 4t148.5 12z" />
    <glyph glyph-name="two.oldstyle" horiz-adv-x="1020" 
d="M47 -8l-22 76q84 29 172 84t180 135q138 120 193 203.5t55 166.5q0 95 -62 156t-157 61q-78 0 -145 -40.5t-124 -120.5l-61 43q78 127 168 186t205 59q153 0 252.5 -86.5t99.5 -220.5q0 -124 -101.5 -242t-382.5 -305q87 -2 165 -3t147 -1h30q141 0 186 26t75 97l63 -22
q-31 -69 -55 -131.5t-41 -120.5q-118 8 -226 12t-210 4q-71 0 -169 -4t-235 -12z" />
    <glyph glyph-name="three.oldstyle" horiz-adv-x="866" 
d="M481 444q134 -21 207.5 -104t73.5 -213q0 -195 -166.5 -334t-407.5 -139q-34 0 -72 4t-79 12l2 76q38 -3 70.5 -4.5t60.5 -1.5q175 0 292.5 100t117.5 246q0 112 -59.5 178t-160.5 66q-37 0 -76 -10t-79 -29l-33 67q169 66 262.5 155.5t93.5 184.5q0 82 -54 135.5
t-138 53.5q-54 0 -107 -28t-98 -81l-53 49q58 85 138.5 131t168.5 46q128 0 217.5 -81.5t89.5 -195.5q0 -81 -49.5 -148t-161.5 -135z" />
    <glyph glyph-name="four.oldstyle" horiz-adv-x="1108" 
d="M221 141h393l4 553zM96 18l-33 70q45 57 93 125q8 11 12 16l393 541q37 50 71 102l66 105l82 2q-4 -189 -6 -395t-2 -443h203h86l-53 -120l-86.5 4t-87.5 2h-60q0 -28 -1 -85t-1 -87t1 -90t1 -93q-40 -6 -81 -13.5t-84 -16.5q3 83 5 177t2 208h-225q-72 0 -145 -2
t-150 -7z" />
    <glyph glyph-name="five.oldstyle" horiz-adv-x="836" 
d="M795 977q-16 -35 -30.5 -72.5t-29.5 -83.5q-70 -8 -119 -12t-86 -4q-43 0 -89 1.5t-93 4.5l-74 -205q219 -96 325 -220t106 -282q0 -188 -157 -321t-384 -133q-28 0 -78 3l-6 1v78q7 0 22.5 -1t22.5 -1q180 0 292.5 94t112.5 242q0 130 -95.5 235t-293.5 193l158 481
q72 -8 125 -11t98 -3q55 0 122.5 4t150.5 12z" />
    </font>
</defs>
</svg>
